<svg width="85" height="85" viewBox="0 0 85 85" fill="none" xmlns="http://www.w3.org/2000/svg">
<path fill-rule="evenodd" clip-rule="evenodd" d="M42.7466 84.6672C65.9425 84.6672 84.7466 65.8632 84.7466 42.6672C84.7466 19.4713 65.9425 0.667236 42.7466 0.667236C19.5506 0.667236 0.746582 19.4713 0.746582 42.6672C0.746582 65.8632 19.5506 84.6672 42.7466 84.6672ZM45.4311 17.8361L25.825 41.633C24.5804 43.1436 25.8948 45.3858 27.8209 45.0377L36.9335 43.3909C38.478 43.1117 39.7724 44.5625 39.3197 46.0653L33.5257 65.2989C32.8775 67.4504 35.6034 68.9812 37.1032 67.3079L59.1115 42.7535C60.3738 41.3452 59.2792 39.1166 57.3931 39.2546L47.4766 39.9802C46.0779 40.0825 44.9733 38.8125 45.2686 37.4415L49.1078 19.6151C49.5715 17.4618 46.8317 16.1362 45.4311 17.8361Z" fill="#FFE500"/>
</svg>
