<svg width="85" height="85" viewBox="0 0 85 85" fill="none" xmlns="http://www.w3.org/2000/svg">
<path fill-rule="evenodd" clip-rule="evenodd" d="M42.2002 84.6672C65.3962 84.6672 84.2002 65.8632 84.2002 42.6672C84.2002 19.4713 65.3962 0.667236 42.2002 0.667236C19.0042 0.667236 0.200195 19.4713 0.200195 42.6672C0.200195 65.8632 19.0042 84.6672 42.2002 84.6672ZM44.8847 17.8361L25.2786 41.633C24.0341 43.1436 25.3484 45.3858 27.2745 45.0377L36.3872 43.3909C37.9317 43.1117 39.2261 44.5625 38.7733 46.0653L32.9793 65.2989C32.3312 67.4504 35.057 68.9812 36.5568 67.3079L58.5651 42.7535C59.8274 41.3452 58.7328 39.1166 56.8467 39.2546L46.9302 39.9802C45.5316 40.0825 44.4269 38.8125 44.7222 37.4415L48.5614 19.6151C49.0252 17.4618 46.2853 16.1362 44.8847 17.8361Z" fill="white"/>
</svg>
