<svg width="308" height="61" viewBox="0 0 308 61" fill="none" xmlns="http://www.w3.org/2000/svg">
<path fill-rule="evenodd" clip-rule="evenodd" d="M30.2733 59.7C46.621 59.7 59.8733 46.4476 59.8733 30.1C59.8733 13.7524 46.621 0.5 30.2733 0.5C13.9257 0.5 0.67334 13.7524 0.67334 30.1C0.67334 46.4476 13.9257 59.7 30.2733 59.7ZM32.1655 12.6L18.3479 29.3711C17.4707 30.4358 18.3971 32.0159 19.7545 31.7706L26.1767 30.61C27.2652 30.4133 28.1775 31.4357 27.8584 32.4948L23.775 46.0499C23.3182 47.5662 25.2393 48.6451 26.2963 47.4658L41.8069 30.1608C42.6965 29.1683 41.9251 27.5976 40.5958 27.6949L33.6071 28.2063C32.6214 28.2784 31.8428 27.3833 32.0509 26.4171L34.7567 13.8537C35.0835 12.3362 33.1525 11.4019 32.1655 12.6Z" fill="#017E7A"/>
<path d="M100.623 25.6773C109.516 26.7014 115.715 28.9652 115.715 37.5892C115.715 43.8416 110.325 49.3395 100.192 49.3395C89.6273 49.3395 84.6685 42.548 84.6685 35.541H91.7833C91.8911 38.4516 93.2386 43.3026 100.192 43.3026C106.498 43.3026 108.385 40.1225 108.385 38.0204C108.385 35.4332 106.714 33.5467 100.192 32.6843C89.4117 31.2829 85.9621 27.7794 85.9621 21.3113C85.9621 15.3823 91.2982 10.5313 100.3 10.5313C110.163 10.5313 114.206 16.4603 114.314 22.605H107.36C107.36 20.1255 105.69 16.5681 100.192 16.5681C94.64 16.5681 93.2386 19.3709 93.2386 20.9879C93.2386 22.4433 93.9393 24.9227 100.623 25.6773Z" fill="#19213D"/>
<path d="M130.916 20.0177C139.81 20.0177 145.146 26.5936 145.146 34.6786C145.146 42.7636 139.81 49.3395 130.916 49.3395C122.023 49.3395 116.686 42.7636 116.686 34.6786C116.686 26.5936 122.023 20.0177 130.916 20.0177ZM130.916 43.087C135.605 43.087 138.247 39.314 138.247 34.6786C138.247 30.0432 135.605 26.2702 130.916 26.2702C126.227 26.2702 123.586 30.0432 123.586 34.6786C123.586 39.314 126.227 43.087 130.916 43.087Z" fill="#19213D"/>
<path d="M157.229 49.3395C151.084 49.3395 146.988 45.3509 146.988 37.2658V20.4489H153.887V34.8942C153.887 41.3083 155.558 43.087 159.169 43.087C163.158 43.087 166.823 38.6133 166.823 32.0375V20.4489H173.722V48.9083H166.823V47.1296C166.823 45.4048 167.2 44.3807 167.685 43.2487C167.901 42.7636 168.224 42.009 167.524 41.8473C167.092 41.7395 166.931 42.0629 166.715 42.4941C165.314 45.297 162.188 49.3395 157.229 49.3395Z" fill="#19213D"/>
<path d="M184.07 26.5397C184.394 26.5936 184.663 26.1624 184.717 26.0007C186.442 22.066 188.005 20.0177 194.958 20.0177V27.0248C186.927 26.4858 184.609 29.3425 184.609 36.5651V48.9083H177.71V20.4489H184.609V22.0121C184.609 23.2518 184.286 24.3298 183.801 25.3C183.585 25.7851 183.423 26.4319 184.07 26.5397Z" fill="#19213D"/>
<path d="M194.212 34.6786C194.212 26.2163 199.764 20.0177 208.604 20.0177C216.581 20.0177 221.324 25.4078 221.809 31.229H215.018C214.587 28.534 212.484 26.2702 208.604 26.2702C203.86 26.2702 201.111 29.7198 201.111 34.6786C201.111 39.6374 203.86 43.087 208.604 43.087C212.484 43.087 214.587 40.8232 215.018 38.1282H221.809C221.324 43.9495 216.635 49.3395 208.604 49.3395C199.926 49.3395 194.212 43.1409 194.212 34.6786Z" fill="#19213D"/>
<path d="M250.564 34.3013C250.564 35.0559 250.51 35.5949 250.402 36.4034H229.704C230.189 40.7154 232.992 43.3026 237.304 43.3026C240.592 43.3026 242.263 41.5239 243.072 38.9906H250.079C248.839 44.8658 244.85 49.3395 237.25 49.3395C228.033 49.3395 222.967 43.1409 222.967 34.6786C222.967 25.7851 228.465 20.0177 237.143 20.0177C243.718 20.0177 250.564 23.9525 250.564 34.3013ZM229.974 31.6602H243.664C243.395 28.2106 241.347 25.6234 237.358 25.6234C232.669 25.6234 230.675 28.2645 229.974 31.6602Z" fill="#19213D"/>
<path d="M263.982 16.1369C261.071 16.1369 261.017 16.3525 261.017 19.4787V20.4489H268.779V26.4858H261.017V48.9083H254.118V26.4858H249.806V20.4489H254.118V18.8319C254.118 11.9866 256.813 10.1001 262.527 10.1001H268.779V16.1369H263.982Z" fill="#19213D"/>
<path d="M279.999 49.3395C273.855 49.3395 269.758 45.3509 269.758 37.2658V20.4489H276.657V34.8942C276.657 41.3083 278.328 43.087 281.94 43.087C285.928 43.087 289.593 38.6133 289.593 32.0375V20.4489H296.493V48.9083H289.593V47.1296C289.593 45.4048 289.971 44.3807 290.456 43.2487C290.671 42.7636 290.995 42.009 290.294 41.8473C289.863 41.7395 289.701 42.0629 289.486 42.4941C288.084 45.297 284.958 49.3395 279.999 49.3395Z" fill="#19213D"/>
<path d="M300.48 10.1001H307.38V48.9083H300.48V10.1001Z" fill="#19213D"/>
</svg>
