<svg width="224" height="144" viewBox="0 0 224 144" fill="none" xmlns="http://www.w3.org/2000/svg">
<path d="M16.5013 119.444C25.3949 120.468 31.5934 122.732 31.5934 131.356C31.5934 137.609 26.2034 143.107 16.0701 143.107C5.5057 143.107 0.546875 136.315 0.546875 129.308H7.66171C7.76951 132.219 9.11701 137.07 16.0701 137.07C22.3765 137.07 24.263 133.89 24.263 131.788C24.263 129.2 22.5921 127.314 16.0701 126.451C5.2901 125.05 1.84048 121.546 1.84048 115.078C1.84048 109.149 7.1766 104.298 16.1779 104.298C26.0417 104.298 30.0842 110.227 30.192 116.372H23.2389C23.2389 113.893 21.568 110.335 16.0701 110.335C10.5184 110.335 9.11701 113.138 9.11701 114.755C9.11701 116.21 9.81772 118.69 16.5013 119.444Z" fill="white"/>
<path d="M46.7945 113.785C55.6881 113.785 61.0242 120.361 61.0242 128.446C61.0242 136.531 55.6881 143.107 46.7945 143.107C37.901 143.107 32.5649 136.531 32.5649 128.446C32.5649 120.361 37.901 113.785 46.7945 113.785ZM46.7945 136.854C51.4839 136.854 54.125 133.081 54.125 128.446C54.125 123.81 51.4839 120.037 46.7945 120.037C42.1052 120.037 39.4641 123.81 39.4641 128.446C39.4641 133.081 42.1052 136.854 46.7945 136.854Z" fill="white"/>
<path d="M73.1071 143.107C66.9625 143.107 62.8661 139.118 62.8661 131.033V114.216H69.7653V128.661C69.7653 135.075 71.4362 136.854 75.0475 136.854C79.0361 136.854 82.7014 132.38 82.7014 125.805V114.216H89.6006V142.675H82.7014V140.897C82.7014 139.172 83.0787 138.148 83.5638 137.016C83.7794 136.531 84.1028 135.776 83.4021 135.614C82.9709 135.507 82.8092 135.83 82.5936 136.261C81.1922 139.064 78.0659 143.107 73.1071 143.107Z" fill="white"/>
<path d="M99.9486 120.307C100.272 120.361 100.542 119.929 100.595 119.768C102.32 115.833 103.883 113.785 110.836 113.785V120.792C102.805 120.253 100.488 123.11 100.488 130.332V142.675H93.5884V114.216H100.488V115.779C100.488 117.019 100.164 118.097 99.6791 119.067C99.4635 119.552 99.3018 120.199 99.9486 120.307Z" fill="white"/>
<path d="M110.091 128.446C110.091 119.983 115.642 113.785 124.482 113.785C132.459 113.785 137.203 119.175 137.688 124.996H130.896C130.465 122.301 128.363 120.037 124.482 120.037C119.739 120.037 116.99 123.487 116.99 128.446C116.99 133.405 119.739 136.854 124.482 136.854C128.363 136.854 130.465 134.59 130.896 131.895H137.688C137.203 137.717 132.513 143.107 124.482 143.107C115.804 143.107 110.091 136.908 110.091 128.446Z" fill="white"/>
<path d="M166.442 128.068C166.442 128.823 166.388 129.362 166.28 130.171H145.583C146.068 134.483 148.871 137.07 153.183 137.07C156.471 137.07 158.141 135.291 158.95 132.758H165.957C164.717 138.633 160.729 143.107 153.129 143.107C143.912 143.107 138.845 136.908 138.845 128.446C138.845 119.552 144.343 113.785 153.021 113.785C159.597 113.785 166.442 117.72 166.442 128.068ZM145.852 125.427H159.543C159.273 121.978 157.225 119.39 153.237 119.39C148.547 119.39 146.553 122.032 145.852 125.427Z" fill="white"/>
<path d="M179.86 109.904C176.95 109.904 176.896 110.12 176.896 113.246V114.216H184.657V120.253H176.896V142.675H169.997V120.253H165.685V114.216H169.997V112.599C169.997 105.754 172.692 103.867 178.405 103.867H184.657V109.904H179.86Z" fill="white"/>
<path d="M195.878 143.107C189.733 143.107 185.637 139.118 185.637 131.033V114.216H192.536V128.661C192.536 135.075 194.207 136.854 197.818 136.854C201.807 136.854 205.472 132.38 205.472 125.805V114.216H212.371V142.675H205.472V140.897C205.472 139.172 205.849 138.148 206.334 137.016C206.55 136.531 206.873 135.776 206.173 135.614C205.741 135.507 205.58 135.83 205.364 136.261C203.963 139.064 200.836 143.107 195.878 143.107Z" fill="white"/>
<path d="M216.359 103.867H223.258V142.675H216.359V103.867Z" fill="white"/>
<path fill-rule="evenodd" clip-rule="evenodd" d="M112.147 84.6671C135.343 84.6671 154.147 65.8631 154.147 42.6671C154.147 19.4712 135.343 0.667114 112.147 0.667114C88.951 0.667114 70.147 19.4712 70.147 42.6671C70.147 65.8631 88.951 84.6671 112.147 84.6671ZM114.831 17.836L95.2254 41.6329C93.9808 43.1435 95.2952 45.3857 97.2213 45.0376L106.334 43.3907C107.878 43.1116 109.173 44.5624 108.72 46.0652L102.926 65.2988C102.278 67.4502 105.004 68.981 106.504 67.3078L128.512 42.7534C129.774 41.3451 128.68 39.1164 126.793 39.2545L116.877 39.9801C115.478 40.0824 114.374 38.8124 114.669 37.4414L118.508 19.615C118.972 17.4617 116.232 16.136 114.831 17.836Z" fill="#FFE500"/>
</svg>
