<svg width="85" height="85" viewBox="0 0 85 85" fill="none" xmlns="http://www.w3.org/2000/svg">
<path fill-rule="evenodd" clip-rule="evenodd" d="M42.9814 84.5C66.1774 84.5 84.9814 65.696 84.9814 42.5C84.9814 19.304 66.1774 0.5 42.9814 0.5C19.7855 0.5 0.981445 19.304 0.981445 42.5C0.981445 65.696 19.7855 84.5 42.9814 84.5ZM45.6661 17.6689L26.06 41.4658C24.8155 42.9764 26.1299 45.2186 28.0559 44.8705L37.1686 43.2236C38.7131 42.9445 40.0075 44.3953 39.5548 45.8981L33.7607 65.1317C33.1126 67.2831 35.8384 68.8139 37.3382 67.1407L59.3465 42.5863C60.6088 41.178 59.5142 38.9493 57.6281 39.0873L47.7116 39.8129C46.313 39.9153 45.2083 38.6452 45.5036 37.2743L49.3428 19.4478C49.8066 17.2946 47.0667 15.9689 45.6661 17.6689Z" fill="#19213D"/>
</svg>
