<svg width="308" height="61" viewBox="0 0 308 61" fill="none" xmlns="http://www.w3.org/2000/svg">
<path fill-rule="evenodd" clip-rule="evenodd" d="M30.0736 59.7C46.4213 59.7 59.6736 46.4476 59.6736 30.1C59.6736 13.7524 46.4213 0.5 30.0736 0.5C13.726 0.5 0.473633 13.7524 0.473633 30.1C0.473633 46.4476 13.726 59.7 30.0736 59.7ZM31.9658 12.6L18.1482 29.3711C17.271 30.4358 18.1974 32.0159 19.5548 31.7706L25.977 30.61C27.0655 30.4133 27.9778 31.4357 27.6587 32.4948L23.5753 46.0499C23.1185 47.5662 25.0396 48.6451 26.0966 47.4658L41.6072 30.1608C42.4968 29.1683 41.7254 27.5976 40.3961 27.6949L33.4073 28.2063C32.4216 28.2784 31.6431 27.3833 31.8512 26.4171L34.557 13.8537C34.8838 12.3362 32.9528 11.4019 31.9658 12.6Z" fill="#19213D"/>
<path d="M100.423 25.6773C109.317 26.7014 115.515 28.9652 115.515 37.5892C115.515 43.8416 110.125 49.3395 99.992 49.3395C89.4276 49.3395 84.4688 42.548 84.4688 35.541H91.5836C91.6914 38.4516 93.0389 43.3026 99.992 43.3026C106.298 43.3026 108.185 40.1225 108.185 38.0204C108.185 35.4332 106.514 33.5467 99.992 32.6843C89.212 31.2829 85.7624 27.7794 85.7624 21.3113C85.7624 15.3823 91.0985 10.5313 100.1 10.5313C109.964 10.5313 114.006 16.4603 114.114 22.605H107.161C107.161 20.1255 105.49 16.5681 99.992 16.5681C94.4403 16.5681 93.0389 19.3709 93.0389 20.9879C93.0389 22.4433 93.7396 24.9227 100.423 25.6773Z" fill="#19213D"/>
<path d="M130.716 20.0177C139.61 20.0177 144.946 26.5936 144.946 34.6786C144.946 42.7636 139.61 49.3395 130.716 49.3395C121.823 49.3395 116.487 42.7636 116.487 34.6786C116.487 26.5936 121.823 20.0177 130.716 20.0177ZM130.716 43.087C135.406 43.087 138.047 39.314 138.047 34.6786C138.047 30.0432 135.406 26.2702 130.716 26.2702C126.027 26.2702 123.386 30.0432 123.386 34.6786C123.386 39.314 126.027 43.087 130.716 43.087Z" fill="#19213D"/>
<path d="M157.029 49.3395C150.884 49.3395 146.788 45.3509 146.788 37.2658V20.4489H153.687V34.8942C153.687 41.3083 155.358 43.087 158.969 43.087C162.958 43.087 166.623 38.6133 166.623 32.0375V20.4489H173.522V48.9083H166.623V47.1296C166.623 45.4048 167.001 44.3807 167.486 43.2487C167.701 42.7636 168.025 42.009 167.324 41.8473C166.893 41.7395 166.731 42.0629 166.515 42.4941C165.114 45.297 161.988 49.3395 157.029 49.3395Z" fill="#19213D"/>
<path d="M183.87 26.5397C184.194 26.5936 184.463 26.1624 184.517 26.0007C186.242 22.066 187.805 20.0177 194.758 20.0177V27.0248C186.727 26.4858 184.409 29.3425 184.409 36.5651V48.9083H177.51V20.4489H184.409V22.0121C184.409 23.2518 184.086 24.3298 183.601 25.3C183.385 25.7851 183.224 26.4319 183.87 26.5397Z" fill="#19213D"/>
<path d="M194.013 34.6786C194.013 26.2163 199.564 20.0177 208.404 20.0177C216.381 20.0177 221.124 25.4078 221.609 31.229H214.818C214.387 28.534 212.285 26.2702 208.404 26.2702C203.661 26.2702 200.912 29.7198 200.912 34.6786C200.912 39.6374 203.661 43.087 208.404 43.087C212.285 43.087 214.387 40.8232 214.818 38.1282H221.609C221.124 43.9495 216.435 49.3395 208.404 49.3395C199.726 49.3395 194.013 43.1409 194.013 34.6786Z" fill="#19213D"/>
<path d="M250.364 34.3013C250.364 35.0559 250.31 35.5949 250.202 36.4034H229.505C229.99 40.7154 232.793 43.3026 237.105 43.3026C240.392 43.3026 242.063 41.5239 242.872 38.9906H249.879C248.639 44.8658 244.651 49.3395 237.051 49.3395C227.834 49.3395 222.767 43.1409 222.767 34.6786C222.767 25.7851 228.265 20.0177 236.943 20.0177C243.519 20.0177 250.364 23.9525 250.364 34.3013ZM229.774 31.6602H243.465C243.195 28.2106 241.147 25.6234 237.158 25.6234C232.469 25.6234 230.475 28.2645 229.774 31.6602Z" fill="#19213D"/>
<path d="M263.782 16.1369C260.872 16.1369 260.818 16.3525 260.818 19.4787V20.4489H268.579V26.4858H260.818V48.9083H253.918V26.4858H249.606V20.4489H253.918V18.8319C253.918 11.9866 256.613 10.1001 262.327 10.1001H268.579V16.1369H263.782Z" fill="#19213D"/>
<path d="M279.799 49.3395C273.655 49.3395 269.558 45.3509 269.558 37.2658V20.4489H276.458V34.8942C276.458 41.3083 278.129 43.087 281.74 43.087C285.728 43.087 289.394 38.6133 289.394 32.0375V20.4489H296.293V48.9083H289.394V47.1296C289.394 45.4048 289.771 44.3807 290.256 43.2487C290.472 42.7636 290.795 42.009 290.094 41.8473C289.663 41.7395 289.501 42.0629 289.286 42.4941C287.884 45.297 284.758 49.3395 279.799 49.3395Z" fill="#19213D"/>
<path d="M300.281 10.1001H307.18V48.9083H300.281V10.1001Z" fill="#19213D"/>
</svg>
