<svg width="617" height="81" viewBox="0 0 617 81" fill="none" xmlns="http://www.w3.org/2000/svg">
<ellipse cx="39.6427" cy="39.3788" rx="39.1672" ry="39.1859" fill="#2F4A66"/>
<path d="M23.8624 38.4139L42.1461 16.2114C43.4522 14.6254 46.0073 15.8622 45.5748 17.8712L41.9945 34.5033C41.7192 35.7823 42.7493 36.9673 44.0536 36.8718L53.3012 36.1948C55.0602 36.066 56.0809 38.1454 54.9038 39.4593L34.3798 62.3685C32.9813 63.9297 30.4392 62.5014 31.0437 60.4941L36.4469 42.5492C36.8691 41.1471 35.662 39.7935 34.2217 40.0539L25.7237 41.5905C23.9275 41.9152 22.7018 39.8233 23.8624 38.4139Z" fill="#00FF84"/>
<path d="M134.817 32.6358C145.296 33.8424 152.6 36.5098 152.6 46.6711C152.6 54.038 146.249 60.5159 134.309 60.5159C121.862 60.5159 116.019 52.5138 116.019 44.2578H124.402C124.529 47.6872 126.117 53.403 134.309 53.403C141.74 53.403 143.962 49.656 143.962 47.1792C143.962 44.1308 141.994 41.908 134.309 40.8918C121.608 39.2406 117.543 35.1126 117.543 27.4916C117.543 20.5057 123.83 14.79 134.436 14.79C146.058 14.79 150.821 21.7759 150.948 29.0158H142.756C142.756 26.0944 140.787 21.9029 134.309 21.9029C127.768 21.9029 126.117 25.2053 126.117 27.1106C126.117 28.8253 126.942 31.7467 134.817 32.6358ZM171.145 25.9674C181.624 25.9674 187.912 33.7154 187.912 43.2416C187.912 52.7679 181.624 60.5159 171.145 60.5159C160.667 60.5159 154.379 52.7679 154.379 43.2416C154.379 33.7154 160.667 25.9674 171.145 25.9674ZM171.145 53.1489C176.671 53.1489 179.783 48.7033 179.783 43.2416C179.783 37.7799 176.671 33.3344 171.145 33.3344C165.62 33.3344 162.508 37.7799 162.508 43.2416C162.508 48.7033 165.62 53.1489 171.145 53.1489ZM202.783 60.5159C195.544 60.5159 190.717 55.8163 190.717 46.29V26.4755H198.846V43.4957C198.846 51.0532 200.815 53.1489 205.07 53.1489C209.769 53.1489 214.088 47.8777 214.088 40.1297V26.4755H222.217V60.0078H214.088V57.912C214.088 55.8798 214.532 54.6731 215.104 53.3394C215.358 52.7679 215.739 51.8788 214.914 51.6882C214.405 51.5612 214.215 51.9423 213.961 52.4503C212.31 55.7528 208.626 60.5159 202.783 60.5159ZM235.045 33.6519C235.426 33.7154 235.743 33.2073 235.807 33.0168C237.839 28.3807 239.681 25.9674 247.873 25.9674V34.2235C238.411 33.5884 235.68 36.9543 235.68 45.4644V60.0078H227.551V26.4755H235.68V28.3172C235.68 29.7779 235.299 31.0481 234.727 32.1912C234.473 32.7628 234.283 33.5249 235.045 33.6519ZM247.63 43.2416C247.63 33.2708 254.171 25.9674 264.586 25.9674C273.986 25.9674 279.574 32.3182 280.146 39.1771H272.144C271.636 36.0017 269.159 33.3344 264.586 33.3344C258.998 33.3344 255.759 37.3989 255.759 43.2416C255.759 49.0844 258.998 53.1489 264.586 53.1489C269.159 53.1489 271.636 50.4816 272.144 47.3062H280.146C279.574 54.1651 274.049 60.5159 264.586 60.5159C254.362 60.5159 247.63 53.2124 247.63 43.2416ZM314.661 42.7971C314.661 43.6862 314.598 44.3213 314.471 45.2739H290.083C290.655 50.3546 293.957 53.403 299.038 53.403C302.912 53.403 304.881 51.3072 305.833 48.3223H314.09C312.629 55.2447 307.929 60.5159 298.975 60.5159C288.115 60.5159 282.145 53.2124 282.145 43.2416C282.145 32.7628 288.623 25.9674 298.848 25.9674C306.596 25.9674 314.661 30.6035 314.661 42.7971ZM290.401 39.6852H306.532C306.215 35.6207 303.801 32.5723 299.102 32.5723C293.576 32.5723 291.227 35.6842 290.401 39.6852ZM331.106 21.3948C327.677 21.3948 327.613 21.6488 327.613 25.3323V26.4755H336.759V33.5884H327.613V60.0078H319.484V33.5884H314.404V26.4755H319.484V24.5702C319.484 16.5047 322.66 14.2819 329.392 14.2819H336.759V21.3948H331.106ZM350.614 60.5159C343.374 60.5159 338.547 55.8163 338.547 46.29V26.4755H346.676V43.4957C346.676 51.0532 348.645 53.1489 352.9 53.1489C357.6 53.1489 361.918 47.8777 361.918 40.1297V26.4755H370.047V60.0078H361.918V57.912C361.918 55.8798 362.363 54.6731 362.934 53.3394C363.188 52.7679 363.569 51.8788 362.744 51.6882C362.236 51.5612 362.045 51.9423 361.791 52.4503C360.14 55.7528 356.456 60.5159 350.614 60.5159ZM375.381 14.2819H383.51V60.0078H375.381V14.2819Z" fill="#2F4A66"/>
<path d="M435.34 22.919H412.477V34.0965H431.275V41.2094H412.477V52.3868H435.34V60.0078H403.84V15.298H435.34V22.919ZM459.587 25.9674C466.827 25.9674 471.654 30.667 471.654 40.1932V60.0078H463.524V42.9876C463.524 35.4301 461.556 33.3344 457.301 33.3344C452.601 33.3344 448.283 38.6055 448.283 46.3535V60.0078H440.153V26.4755H448.283V28.5712C448.283 30.6035 447.901 31.8102 447.266 33.1438C447.012 33.7154 446.631 34.6045 447.457 34.795C447.965 34.9221 448.156 34.541 448.41 34.0329C449.934 30.667 453.744 25.9674 459.587 25.9674ZM506.951 42.7971C506.951 43.6862 506.888 44.3213 506.761 45.2739H482.374C482.945 50.3546 486.248 53.403 491.328 53.403C495.202 53.403 497.171 51.3072 498.124 48.3223H506.38C504.919 55.2447 500.219 60.5159 491.265 60.5159C480.405 60.5159 474.435 53.2124 474.435 43.2416C474.435 32.7628 480.913 25.9674 491.138 25.9674C498.886 25.9674 506.951 30.6035 506.951 42.7971ZM482.691 39.6852H498.822C498.505 35.6207 496.091 32.5723 491.392 32.5723C485.866 32.5723 483.517 35.6842 482.691 39.6852ZM517.236 33.6519C517.617 33.7154 517.935 33.2073 517.998 33.0168C520.03 28.3807 521.872 25.9674 530.065 25.9674V34.2235C520.602 33.5884 517.871 36.9543 517.871 45.4644V60.0078H509.742V26.4755H517.871V28.3172C517.871 29.7779 517.49 31.0481 516.919 32.1912C516.664 32.7628 516.474 33.5249 517.236 33.6519ZM530.317 42.4795C530.317 33.4614 536.224 25.9674 544.924 25.9674C550.132 25.9674 553.371 28.5712 555.53 32.0642C555.594 32.1912 555.975 33.0168 556.546 32.7628C557.181 32.5088 556.737 31.6831 556.419 31.0481C555.911 30.0954 555.721 29.2063 555.721 27.9997V26.4755H563.85V56.4514C563.85 67.1842 557.562 72.7095 547.274 72.7095C536.732 72.7095 531.905 67.0572 531.333 60.7699H539.335C539.716 63.8183 541.749 66.1046 547.147 66.1046C552.863 66.1046 555.721 62.9292 555.721 56.7689C555.721 55.6257 555.911 54.7366 556.419 53.784C556.737 53.1489 557.181 52.5138 556.546 52.1963C555.975 51.9423 555.657 52.5138 555.53 52.7679C553.371 56.4514 550.005 58.9917 544.924 58.9917C536.224 58.9917 530.317 51.4977 530.317 42.4795ZM546.829 51.6247C552.164 51.6247 555.721 47.4332 555.721 42.4795C555.721 37.5259 552.164 33.3344 546.829 33.3344C541.114 33.3344 538.446 37.5259 538.446 42.4795C538.446 47.4332 541.114 51.6247 546.829 51.6247ZM565.653 26.4755H574.29L581.784 48.1318C582.229 49.4654 582.292 50.6721 582.292 51.9423C582.292 52.3868 582.356 53.0219 583.054 53.0219C583.753 53.0219 583.816 52.4503 583.816 51.9423C583.816 50.7356 583.944 49.4654 584.388 48.1318L591.564 26.4755H600.202L585.976 63.8818C583.689 69.8516 580.514 72.2014 574.671 72.2014H568.575V65.0885H571.369C576.196 65.0885 577.148 65.0885 578.037 62.4846L578.736 60.4524L565.653 26.4755Z" fill="#2F4A66" fill-opacity="0.7"/>
</svg>
