<svg width="85" height="85" viewBox="0 0 85 85" fill="none" xmlns="http://www.w3.org/2000/svg">
<path fill-rule="evenodd" clip-rule="evenodd" d="M42.4736 84.6672C65.6696 84.6672 84.4736 65.8632 84.4736 42.6672C84.4736 19.4713 65.6696 0.667236 42.4736 0.667236C19.2777 0.667236 0.473633 19.4713 0.473633 42.6672C0.473633 65.8632 19.2777 84.6672 42.4736 84.6672ZM45.1581 17.8361L25.5521 41.633C24.3075 43.1436 25.6219 45.3858 27.548 45.0377L36.6606 43.3909C38.2051 43.1117 39.4995 44.5625 39.0468 46.0653L33.2527 65.2989C32.6046 67.4504 35.3305 68.9812 36.8302 67.3079L58.8386 42.7535C60.1008 41.3452 59.0063 39.1166 57.1201 39.2546L47.2036 39.9802C45.805 40.0825 44.7004 38.8125 44.9956 37.4415L48.8349 19.6151C49.2986 17.4618 46.5587 16.1362 45.1581 17.8361Z" fill="#00FF84"/>
</svg>
