<svg width="223" height="144" viewBox="0 0 223 144" fill="none" xmlns="http://www.w3.org/2000/svg">
<path d="M16.2284 119.444C25.1219 120.468 31.3205 122.732 31.3205 131.356C31.3205 137.609 25.9304 143.107 15.7972 143.107C5.23275 143.107 0.273926 136.315 0.273926 129.308H7.38876C7.49656 132.219 8.84406 137.07 15.7972 137.07C22.1035 137.07 23.99 133.89 23.99 131.788C23.99 129.2 22.3191 127.314 15.7972 126.451C5.01715 125.05 1.56753 121.546 1.56753 115.078C1.56753 109.149 6.90365 104.298 15.905 104.298C25.7687 104.298 29.8113 110.227 29.9191 116.372H22.9659C22.9659 113.893 21.295 110.335 15.7972 110.335C10.2455 110.335 8.84406 113.138 8.84406 114.755C8.84406 116.21 9.54477 118.69 16.2284 119.444Z" fill="white"/>
<path d="M46.5216 113.785C55.4151 113.785 60.7513 120.361 60.7513 128.446C60.7513 136.531 55.4151 143.107 46.5216 143.107C37.6281 143.107 32.2919 136.531 32.2919 128.446C32.2919 120.361 37.6281 113.785 46.5216 113.785ZM46.5216 136.854C51.2109 136.854 53.852 133.081 53.852 128.446C53.852 123.81 51.2109 120.037 46.5216 120.037C41.8323 120.037 39.1912 123.81 39.1912 128.446C39.1912 133.081 41.8323 136.854 46.5216 136.854Z" fill="white"/>
<path d="M72.8342 143.107C66.6895 143.107 62.5931 139.118 62.5931 131.033V114.216H69.4924V128.661C69.4924 135.075 71.1633 136.854 74.7746 136.854C78.7632 136.854 82.4284 132.38 82.4284 125.805V114.216H89.3277V142.675H82.4284V140.897C82.4284 139.172 82.8057 138.148 83.2908 137.016C83.5064 136.531 83.8298 135.776 83.1291 135.614C82.6979 135.507 82.5362 135.83 82.3206 136.261C80.9192 139.064 77.793 143.107 72.8342 143.107Z" fill="white"/>
<path d="M99.6757 120.307C99.9991 120.361 100.269 119.929 100.322 119.768C102.047 115.833 103.61 113.785 110.564 113.785V120.792C102.532 120.253 100.215 123.11 100.215 130.332V142.675H93.3154V114.216H100.215V115.779C100.215 117.019 99.8913 118.097 99.4062 119.067C99.1906 119.552 99.0288 120.199 99.6757 120.307Z" fill="white"/>
<path d="M109.818 128.446C109.818 119.983 115.369 113.785 124.209 113.785C132.186 113.785 136.93 119.175 137.415 124.996H130.623C130.192 122.301 128.09 120.037 124.209 120.037C119.466 120.037 116.717 123.487 116.717 128.446C116.717 133.405 119.466 136.854 124.209 136.854C128.09 136.854 130.192 134.59 130.623 131.895H137.415C136.93 137.717 132.24 143.107 124.209 143.107C115.531 143.107 109.818 136.908 109.818 128.446Z" fill="white"/>
<path d="M166.169 128.068C166.169 128.823 166.115 129.362 166.007 130.171H145.31C145.795 134.483 148.598 137.07 152.91 137.07C156.198 137.07 157.869 135.291 158.677 132.758H165.684C164.444 138.633 160.456 143.107 152.856 143.107C143.639 143.107 138.572 136.908 138.572 128.446C138.572 119.552 144.07 113.785 152.748 113.785C159.324 113.785 166.169 117.72 166.169 128.068ZM145.579 125.427H159.27C159 121.978 156.952 119.39 152.964 119.39C148.274 119.39 146.28 122.032 145.579 125.427Z" fill="white"/>
<path d="M179.587 109.904C176.677 109.904 176.623 110.12 176.623 113.246V114.216H184.385V120.253H176.623V142.675H169.724V120.253H165.412V114.216H169.724V112.599C169.724 105.754 172.419 103.867 178.132 103.867H184.385V109.904H179.587Z" fill="white"/>
<path d="M195.605 143.107C189.46 143.107 185.364 139.118 185.364 131.033V114.216H192.263V128.661C192.263 135.075 193.934 136.854 197.545 136.854C201.534 136.854 205.199 132.38 205.199 125.805V114.216H212.098V142.675H205.199V140.897C205.199 139.172 205.576 138.148 206.061 137.016C206.277 136.531 206.6 135.776 205.9 135.614C205.468 135.507 205.307 135.83 205.091 136.261C203.69 139.064 200.563 143.107 195.605 143.107Z" fill="white"/>
<path d="M216.086 103.867H222.985V142.675H216.086V103.867Z" fill="white"/>
<path fill-rule="evenodd" clip-rule="evenodd" d="M111.874 84.6671C135.07 84.6671 153.874 65.8631 153.874 42.6671C153.874 19.4712 135.07 0.667114 111.874 0.667114C88.6781 0.667114 69.874 19.4712 69.874 42.6671C69.874 65.8631 88.6781 84.6671 111.874 84.6671ZM114.559 17.836L94.9525 41.6329C93.7079 43.1435 95.0223 45.3857 96.9483 45.0376L106.061 43.3907C107.605 43.1116 108.9 44.5624 108.447 46.0652L102.653 65.2988C102.005 67.4502 104.731 68.981 106.231 67.3078L128.239 42.7534C129.501 41.3451 128.407 39.1164 126.521 39.2545L116.604 39.9801C115.205 40.0824 114.101 38.8124 114.396 37.4414L118.235 19.615C118.699 17.4617 115.959 16.136 114.559 17.836Z" fill="#00FF84"/>
</svg>
