<svg width="224" height="144" viewBox="0 0 224 144" fill="none" xmlns="http://www.w3.org/2000/svg">
<path fill-rule="evenodd" clip-rule="evenodd" d="M112.074 84.7998C135.27 84.7998 154.074 65.9958 154.074 42.7998C154.074 19.6038 135.27 0.799805 112.074 0.799805C88.8783 0.799805 70.0742 19.6038 70.0742 42.7998C70.0742 65.9958 88.8783 84.7998 112.074 84.7998ZM114.759 17.9687L95.1527 41.7656C93.9081 43.2762 95.2225 45.5184 97.1485 45.1703L106.261 43.5234C107.806 43.2443 109.1 44.6951 108.647 46.1979L102.853 65.4315C102.205 67.5829 104.931 69.1137 106.431 67.4405L128.439 42.8861C129.701 41.4778 128.607 39.2491 126.721 39.3871L116.804 40.1127C115.406 40.2151 114.301 38.945 114.596 37.5741L118.435 19.7476C118.899 17.5944 116.159 16.2687 114.759 17.9687Z" fill="#19213D"/>
<path d="M16.4286 119.577C25.3221 120.601 31.5207 122.865 31.5207 131.489C31.5207 137.742 26.1306 143.239 15.9974 143.239C5.43294 143.239 0.474121 136.448 0.474121 129.441H7.58895C7.69675 132.352 9.04426 137.203 15.9974 137.203C22.3037 137.203 24.1902 134.022 24.1902 131.92C24.1902 129.333 22.5193 127.447 15.9974 126.584C5.21734 125.183 1.76773 121.679 1.76773 115.211C1.76773 109.282 7.10385 104.431 16.1052 104.431C25.9689 104.431 30.0115 110.36 30.1193 116.505H23.1661C23.1661 114.025 21.4952 110.468 15.9974 110.468C10.4457 110.468 9.04426 113.271 9.04426 114.888C9.04426 116.343 9.74496 118.823 16.4286 119.577Z" fill="#19213D"/>
<path d="M46.7218 113.918C55.6153 113.918 60.9515 120.493 60.9515 128.579C60.9515 136.664 55.6153 143.239 46.7218 143.239C37.8283 143.239 32.4921 136.664 32.4921 128.579C32.4921 120.493 37.8283 113.918 46.7218 113.918ZM46.7218 136.987C51.4111 136.987 54.0522 133.214 54.0522 128.579C54.0522 123.943 51.4111 120.17 46.7218 120.17C42.0325 120.17 39.3914 123.943 39.3914 128.579C39.3914 133.214 42.0325 136.987 46.7218 136.987Z" fill="#19213D"/>
<path d="M73.0344 143.239C66.8897 143.239 62.7933 139.251 62.7933 131.166V114.349H69.6926V128.794C69.6926 135.208 71.3635 136.987 74.9748 136.987C78.9634 136.987 82.6286 132.513 82.6286 125.937V114.349H89.5278V142.808H82.6286V141.029C82.6286 139.305 83.0059 138.281 83.491 137.149C83.7066 136.664 84.03 135.909 83.3293 135.747C82.8981 135.639 82.7364 135.963 82.5208 136.394C81.1194 139.197 77.9932 143.239 73.0344 143.239Z" fill="#19213D"/>
<path d="M99.8758 120.44C100.199 120.493 100.469 120.062 100.523 119.901C102.247 115.966 103.811 113.918 110.764 113.918V120.925C102.733 120.386 100.415 123.242 100.415 130.465V142.808H93.5156V114.349H100.415V115.912C100.415 117.152 100.091 118.23 99.6064 119.2C99.3908 119.685 99.229 120.332 99.8758 120.44Z" fill="#19213D"/>
<path d="M110.018 128.579C110.018 120.116 115.57 113.918 124.409 113.918C132.387 113.918 137.13 119.308 137.615 125.129H130.823C130.392 122.434 128.29 120.17 124.409 120.17C119.666 120.17 116.917 123.62 116.917 128.579C116.917 133.537 119.666 136.987 124.409 136.987C128.29 136.987 130.392 134.723 130.823 132.028H137.615C137.13 137.849 132.44 143.239 124.409 143.239C115.731 143.239 110.018 137.041 110.018 128.579Z" fill="#19213D"/>
<path d="M166.369 128.201C166.369 128.956 166.315 129.495 166.208 130.303H145.51C145.995 134.615 148.798 137.203 153.11 137.203C156.398 137.203 158.069 135.424 158.877 132.891H165.884C164.645 138.766 160.656 143.239 153.056 143.239C143.839 143.239 138.772 137.041 138.772 128.579C138.772 119.685 144.27 113.918 152.948 113.918C159.524 113.918 166.369 117.852 166.369 128.201ZM145.779 125.56H159.47C159.201 122.11 157.152 119.523 153.164 119.523C148.474 119.523 146.48 122.164 145.779 125.56Z" fill="#19213D"/>
<path d="M179.788 110.037C176.877 110.037 176.823 110.252 176.823 113.379V114.349H184.585V120.386H176.823V142.808H169.924V120.386H165.612V114.349H169.924V112.732C169.924 105.887 172.619 104 178.332 104H184.585V110.037H179.788Z" fill="#19213D"/>
<path d="M195.805 143.239C189.66 143.239 185.564 139.251 185.564 131.166V114.349H192.463V128.794C192.463 135.208 194.134 136.987 197.745 136.987C201.734 136.987 205.399 132.513 205.399 125.937V114.349H212.298V142.808H205.399V141.029C205.399 139.305 205.776 138.281 206.261 137.149C206.477 136.664 206.8 135.909 206.1 135.747C205.669 135.639 205.507 135.963 205.291 136.394C203.89 139.197 200.764 143.239 195.805 143.239Z" fill="#19213D"/>
<path d="M216.286 104H223.185V142.808H216.286V104Z" fill="#19213D"/>
</svg>
