<svg width="617" height="81" viewBox="0 0 617 81" fill="none" xmlns="http://www.w3.org/2000/svg">
<ellipse cx="39.6373" cy="39.3788" rx="39.1672" ry="39.1859" fill="#00FF84"/>
<path d="M23.8569 38.4139L42.1406 16.2114C43.4467 14.6254 46.0018 15.8622 45.5693 17.8712L41.989 34.5033C41.7137 35.7823 42.7438 36.9673 44.0481 36.8718L53.2958 36.1948C55.0547 36.0661 56.0754 38.1454 54.8983 39.4593L34.3744 62.3686C32.9758 63.9297 30.4338 62.5015 31.0382 60.4941L36.4414 42.5492C36.8636 41.1471 35.6565 39.7935 34.2162 40.054L25.7182 41.5905C23.922 41.9152 22.6963 39.8233 23.8569 38.4139Z" fill="#2B2B2B"/>
<path d="M134.812 32.6357C145.291 33.8424 152.594 36.5098 152.594 46.6711C152.594 54.038 146.243 60.5159 134.304 60.5159C121.856 60.5159 116.013 52.5138 116.013 44.2578H124.397C124.524 47.6872 126.111 53.403 134.304 53.403C141.734 53.403 143.957 49.656 143.957 47.1791C143.957 44.1307 141.988 41.908 134.304 40.8918C121.602 39.2406 117.538 35.1126 117.538 27.4916C117.538 20.5057 123.825 14.7899 134.431 14.7899C146.053 14.7899 150.816 21.7758 150.943 29.0158H142.75C142.75 26.0944 140.782 21.9029 134.304 21.9029C127.762 21.9029 126.111 25.2053 126.111 27.1105C126.111 28.8253 126.937 31.7466 134.812 32.6357ZM171.14 25.9674C181.619 25.9674 187.906 33.7154 187.906 43.2416C187.906 52.7679 181.619 60.5159 171.14 60.5159C160.661 60.5159 154.374 52.7679 154.374 43.2416C154.374 33.7154 160.661 25.9674 171.14 25.9674ZM171.14 53.1489C176.665 53.1489 179.777 48.7033 179.777 43.2416C179.777 37.7799 176.665 33.3343 171.14 33.3343C165.615 33.3343 162.503 37.7799 162.503 43.2416C162.503 48.7033 165.615 53.1489 171.14 53.1489ZM202.778 60.5159C195.538 60.5159 190.712 55.8163 190.712 46.29V26.4755H198.841V43.4957C198.841 51.0531 200.809 53.1489 205.064 53.1489C209.764 53.1489 214.083 47.8777 214.083 40.1297V26.4755H222.212V60.0078H214.083V57.912C214.083 55.8798 214.527 54.6731 215.099 53.3394C215.353 52.7679 215.734 51.8788 214.908 51.6882C214.4 51.5612 214.21 51.9423 213.956 52.4503C212.304 55.7528 208.621 60.5159 202.778 60.5159ZM235.039 33.6519C235.42 33.7154 235.738 33.2073 235.801 33.0168C237.834 28.3807 239.675 25.9674 247.868 25.9674V34.2235C238.405 33.5884 235.674 36.9543 235.674 45.4644V60.0078H227.545V26.4755H235.674V28.3172C235.674 29.7779 235.293 31.048 234.722 32.1912C234.468 32.7628 234.277 33.5249 235.039 33.6519ZM247.624 43.2416C247.624 33.2708 254.166 25.9674 264.581 25.9674C273.98 25.9674 279.569 32.3182 280.141 39.1771H272.139C271.631 36.0017 269.154 33.3343 264.581 33.3343C258.992 33.3343 255.753 37.3989 255.753 43.2416C255.753 49.0844 258.992 53.1489 264.581 53.1489C269.154 53.1489 271.631 50.4816 272.139 47.3062H280.141C279.569 54.1651 274.044 60.5159 264.581 60.5159C254.356 60.5159 247.624 53.2124 247.624 43.2416ZM314.656 42.7971C314.656 43.6862 314.592 44.3213 314.465 45.2739H290.078C290.65 50.3546 293.952 53.403 299.033 53.403C302.907 53.403 304.876 51.3072 305.828 48.3223H314.084C312.624 55.2447 307.924 60.5159 298.969 60.5159C288.109 60.5159 282.14 53.2124 282.14 43.2416C282.14 32.7628 288.618 25.9674 298.842 25.9674C306.59 25.9674 314.656 30.6035 314.656 42.7971ZM290.396 39.6852H306.527C306.209 35.6206 303.796 32.5722 299.096 32.5722C293.571 32.5722 291.221 35.6841 290.396 39.6852ZM331.101 21.3948C327.672 21.3948 327.608 21.6488 327.608 25.3323V26.4755H336.753V33.5884H327.608V60.0078H319.479V33.5884H314.398V26.4755H319.479V24.5702C319.479 16.5046 322.654 14.2819 329.386 14.2819H336.753V21.3948H331.101ZM350.609 60.5159C343.369 60.5159 338.542 55.8163 338.542 46.29V26.4755H346.671V43.4957C346.671 51.0531 348.64 53.1489 352.895 53.1489C357.594 53.1489 361.913 47.8777 361.913 40.1297V26.4755H370.042V60.0078H361.913V57.912C361.913 55.8798 362.358 54.6731 362.929 53.3394C363.183 52.7679 363.564 51.8788 362.739 51.6882C362.231 51.5612 362.04 51.9423 361.786 52.4503C360.135 55.7528 356.451 60.5159 350.609 60.5159ZM375.376 14.2819H383.505V60.0078H375.376V14.2819Z" fill="#00FF84"/>
<path d="M435.334 22.919H412.471V34.0964H431.27V41.2094H412.471V52.3868H435.334V60.0078H403.834V15.298H435.334V22.919ZM459.582 25.9674C466.822 25.9674 471.648 30.667 471.648 40.1932V60.0078H463.519V42.9876C463.519 35.4301 461.55 33.3343 457.295 33.3343C452.596 33.3343 448.277 38.6055 448.277 46.3535V60.0078H440.148V26.4755H448.277V28.5712C448.277 30.6035 447.896 31.8101 447.261 33.1438C447.007 33.7154 446.626 34.6045 447.452 34.795C447.96 34.922 448.15 34.541 448.404 34.0329C449.928 30.667 453.739 25.9674 459.582 25.9674ZM506.946 42.7971C506.946 43.6862 506.882 44.3213 506.755 45.2739H482.368C482.94 50.3546 486.242 53.403 491.323 53.403C495.197 53.403 497.166 51.3072 498.118 48.3223H506.374C504.914 55.2447 500.214 60.5159 491.259 60.5159C480.399 60.5159 474.43 53.2124 474.43 43.2416C474.43 32.7628 480.908 25.9674 491.132 25.9674C498.88 25.9674 506.946 30.6035 506.946 42.7971ZM482.686 39.6852H498.817C498.499 35.6206 496.086 32.5722 491.386 32.5722C485.861 32.5722 483.511 35.6841 482.686 39.6852ZM517.231 33.6519C517.612 33.7154 517.929 33.2073 517.993 33.0168C520.025 28.3807 521.867 25.9674 530.059 25.9674V34.2235C520.597 33.5884 517.866 36.9543 517.866 45.4644V60.0078H509.737V26.4755H517.866V28.3172C517.866 29.7779 517.485 31.048 516.913 32.1912C516.659 32.7628 516.469 33.5249 517.231 33.6519ZM530.312 42.4795C530.312 33.4614 536.218 25.9674 544.919 25.9674C550.127 25.9674 553.365 28.5712 555.525 32.0642C555.588 32.1912 555.969 33.0168 556.541 32.7628C557.176 32.5087 556.731 31.6831 556.414 31.048C555.906 30.0954 555.715 29.2063 555.715 27.9996V26.4755H563.844V56.4513C563.844 67.1842 557.557 72.7095 547.269 72.7095C536.726 72.7095 531.9 67.0572 531.328 60.7699H539.33C539.711 63.8183 541.743 66.1046 547.142 66.1046C552.857 66.1046 555.715 62.9292 555.715 56.7689C555.715 55.6257 555.906 54.7366 556.414 53.784C556.731 53.1489 557.176 52.5138 556.541 52.1963C555.969 51.9423 555.652 52.5138 555.525 52.7679C553.365 56.4513 550 58.9917 544.919 58.9917C536.218 58.9917 530.312 51.4977 530.312 42.4795ZM546.824 51.6247C552.159 51.6247 555.715 47.4332 555.715 42.4795C555.715 37.5259 552.159 33.3343 546.824 33.3343C541.108 33.3343 538.441 37.5259 538.441 42.4795C538.441 47.4332 541.108 51.6247 546.824 51.6247ZM565.648 26.4755H574.285L581.779 48.1318C582.224 49.4654 582.287 50.6721 582.287 51.9423C582.287 52.3868 582.351 53.0219 583.049 53.0219C583.748 53.0219 583.811 52.4503 583.811 51.9423C583.811 50.7356 583.938 49.4654 584.383 48.1318L591.559 26.4755H600.196L585.971 63.8818C583.684 69.8516 580.509 72.2014 574.666 72.2014H568.569V65.0885H571.364C576.19 65.0885 577.143 65.0885 578.032 62.4846L578.731 60.4524L565.648 26.4755Z" fill="#00FF84" fill-opacity="0.7"/>
</svg>
