<svg width="307" height="61" viewBox="0 0 307 61" fill="none" xmlns="http://www.w3.org/2000/svg">
<path d="M100.223 25.5772C109.117 26.6013 115.315 28.8651 115.315 37.4891C115.315 43.7416 109.925 49.2394 99.7918 49.2394C89.2274 49.2394 84.2686 42.4479 84.2686 35.4409H91.3834C91.4912 38.3515 92.8387 43.2025 99.7918 43.2025C106.098 43.2025 107.985 40.0224 107.985 37.9203C107.985 35.3331 106.314 33.4466 99.7918 32.5842C89.0118 31.1828 85.5622 27.6793 85.5622 21.2112C85.5622 15.2822 90.8983 10.4312 99.8996 10.4312C109.763 10.4312 113.806 16.3602 113.914 22.5049H106.961C106.961 20.0254 105.29 16.468 99.7918 16.468C94.2401 16.468 92.8387 19.2708 92.8387 20.8878C92.8387 22.3432 93.5394 24.8226 100.223 25.5772Z" fill="white"/>
<path d="M130.516 19.9176C139.41 19.9176 144.746 26.4935 144.746 34.5785C144.746 42.6635 139.41 49.2394 130.516 49.2394C121.623 49.2394 116.287 42.6635 116.287 34.5785C116.287 26.4935 121.623 19.9176 130.516 19.9176ZM130.516 42.9869C135.206 42.9869 137.847 39.2139 137.847 34.5785C137.847 29.9431 135.206 26.1701 130.516 26.1701C125.827 26.1701 123.186 29.9431 123.186 34.5785C123.186 39.2139 125.827 42.9869 130.516 42.9869Z" fill="white"/>
<path d="M156.829 49.2394C150.684 49.2394 146.588 45.2508 146.588 37.1657V20.3488H153.487V34.7941C153.487 41.2082 155.158 42.9869 158.769 42.9869C162.758 42.9869 166.423 38.5132 166.423 31.9374V20.3488H173.322V48.8082H166.423V47.0295C166.423 45.3047 166.8 44.2806 167.285 43.1486C167.501 42.6635 167.824 41.9089 167.124 41.7472C166.693 41.6394 166.531 41.9628 166.315 42.394C164.914 45.1969 161.788 49.2394 156.829 49.2394Z" fill="white"/>
<path d="M183.67 26.4396C183.994 26.4935 184.263 26.0623 184.317 25.9006C186.042 21.9659 187.605 19.9176 194.558 19.9176V26.9247C186.527 26.3857 184.209 29.2424 184.209 36.465V48.8082H177.31V20.3488H184.209V21.912C184.209 23.1517 183.886 24.2297 183.401 25.1999C183.185 25.685 183.023 26.3318 183.67 26.4396Z" fill="white"/>
<path d="M193.812 34.5785C193.812 26.1162 199.364 19.9176 208.204 19.9176C216.181 19.9176 220.924 25.3077 221.409 31.1289H214.618C214.187 28.4339 212.085 26.1701 208.204 26.1701C203.461 26.1701 200.712 29.6197 200.712 34.5785C200.712 39.5373 203.461 42.9869 208.204 42.9869C212.085 42.9869 214.187 40.7231 214.618 38.0281H221.409C220.924 43.8494 216.235 49.2394 208.204 49.2394C199.526 49.2394 193.812 43.0408 193.812 34.5785Z" fill="white"/>
<path d="M250.164 34.2012C250.164 34.9558 250.11 35.4948 250.002 36.3033H229.304C229.79 40.6153 232.592 43.2025 236.904 43.2025C240.192 43.2025 241.863 41.4238 242.672 38.8905H249.679C248.439 44.7657 244.45 49.2394 236.85 49.2394C227.634 49.2394 222.567 43.0408 222.567 34.5785C222.567 25.685 228.065 19.9176 236.743 19.9176C243.318 19.9176 250.164 23.8524 250.164 34.2012ZM229.574 31.5601H243.265C242.995 28.1105 240.947 25.5233 236.958 25.5233C232.269 25.5233 230.275 28.1644 229.574 31.5601Z" fill="white"/>
<path d="M263.582 16.0368C260.671 16.0368 260.618 16.2524 260.618 19.3786V20.3488H268.379V26.3857H260.618V48.8082H253.718V26.3857H249.406V20.3488H253.718V18.7318C253.718 11.8865 256.413 10 262.127 10H268.379V16.0368H263.582Z" fill="white"/>
<path d="M279.599 49.2394C273.455 49.2394 269.358 45.2508 269.358 37.1657V20.3488H276.257V34.7941C276.257 41.2082 277.928 42.9869 281.54 42.9869C285.528 42.9869 289.193 38.5132 289.193 31.9374V20.3488H296.093V48.8082H289.193V47.0295C289.193 45.3047 289.571 44.2806 290.056 43.1486C290.272 42.6635 290.595 41.9089 289.894 41.7472C289.463 41.6394 289.301 41.9628 289.086 42.394C287.684 45.1969 284.558 49.2394 279.599 49.2394Z" fill="white"/>
<path d="M300.08 10H306.98V48.8082H300.08V10Z" fill="white"/>
<path fill-rule="evenodd" clip-rule="evenodd" d="M29.8734 59.6C46.2211 59.6 59.4734 46.3477 59.4734 30C59.4734 13.6524 46.2211 0.400024 29.8734 0.400024C13.5258 0.400024 0.273438 13.6524 0.273438 30C0.273438 46.3477 13.5258 59.6 29.8734 59.6ZM31.7656 12.5L17.948 29.2712C17.0708 30.3358 17.9972 31.916 19.3546 31.6706L25.7768 30.51C26.8653 30.3133 27.7776 31.3357 27.4585 32.3949L23.3751 45.95C22.9183 47.4662 24.8394 48.5451 25.8964 47.3658L41.407 30.0608C42.2966 29.0683 41.5252 27.4977 40.1959 27.5949L33.2071 28.1063C32.2215 28.1784 31.4429 27.2833 31.651 26.3172L34.3568 13.7537C34.6836 12.2362 32.7526 11.3019 31.7656 12.5Z" fill="#00FF84"/>
</svg>
