<svg xmlns="http://www.w3.org/2000/svg" xmlns:xlink="http://www.w3.org/1999/xlink" width="500" zoomAndPan="magnify" viewBox="0 0 375 374.999991" height="500" preserveAspectRatio="xMidYMid meet" version="1.0"><rect x="-37.5" width="450" fill="#ffffff" y="-37.499999" height="449.999989" fill-opacity="1"/><rect x="-37.5" width="450" fill="#112532" y="-37.499999" height="449.999989" fill-opacity="1"/><path fill="#ad9024" d="M 347.621094 281.332031 C 277.242188 232.402344 231.976562 205.441406 319.097656 224.121094 C 234.664062 195.59375 287.363281 195.273438 372.851562 188.0625 C 287.363281 180.855469 234.664062 180.535156 319.097656 152.011719 C 231.976562 170.691406 277.242188 143.730469 347.621094 94.800781 C 270.441406 132.121094 224.777344 158.367188 284.179688 91.957031 C 217.769531 151.355469 244.011719 105.683594 281.332031 28.507812 C 232.402344 98.878906 205.441406 144.152344 224.121094 57.03125 C 195.59375 141.457031 195.277344 88.765625 188.0625 3.277344 C 180.855469 88.765625 180.535156 141.457031 152.011719 57.03125 C 170.691406 144.148438 143.730469 98.882812 94.800781 28.503906 C 132.121094 105.679688 158.367188 151.351562 91.957031 91.953125 C 151.355469 158.363281 105.683594 132.117188 28.507812 94.796875 C 98.882812 143.726562 144.152344 170.6875 57.035156 152.007812 C 141.457031 180.535156 88.765625 180.855469 3.277344 188.0625 C 88.765625 195.273438 141.457031 195.59375 57.03125 224.121094 C 144.148438 205.441406 98.878906 232.402344 28.503906 281.332031 C 105.679688 244.007812 151.351562 217.769531 91.953125 284.179688 C 158.363281 224.777344 132.117188 270.441406 94.796875 347.621094 C 143.726562 277.242188 170.6875 231.976562 152.007812 319.097656 C 180.535156 234.664062 180.851562 287.363281 188.058594 372.851562 C 195.273438 287.363281 195.589844 234.664062 224.121094 319.097656 C 205.4375 231.976562 232.398438 277.242188 281.328125 347.621094 C 244.003906 270.453125 217.765625 224.777344 284.175781 284.179688 C 224.777344 217.769531 270.453125 244.007812 347.621094 281.332031 Z M 188.0625 247.945312 C 154.996094 247.945312 128.183594 221.136719 128.183594 188.0625 C 128.183594 154.996094 154.996094 128.183594 188.0625 128.183594 C 221.136719 128.183594 247.945312 154.996094 247.945312 188.0625 C 247.945312 221.136719 221.136719 247.945312 188.0625 247.945312 Z M 188.0625 247.945312 " fill-opacity="1" fill-rule="nonzero"/></svg>