<svg width="1295" height="600" viewBox="0 0 1295 600" fill="none" xmlns="http://www.w3.org/2000/svg">
<path d="M314 50C366.795 50 418.234 66.7137 460.946 97.7458C503.658 128.778 535.45 172.535 551.764 222.746C568.079 272.957 568.079 327.043 551.764 377.254C535.45 427.465 503.658 471.222 460.946 502.254C418.234 533.286 366.795 550 314 550C261.205 550 209.766 533.286 167.054 502.254C124.342 471.222 92.5503 427.465 76.2359 377.254C59.9214 327.043 59.9214 272.957 76.2359 222.746L314 300L314 50Z" fill="#633EBB"/>
<path d="M167.054 502.254C132.986 477.503 105.723 444.547 87.7932 406.445C69.8637 368.343 61.8492 326.329 64.4933 284.302C67.1374 242.276 80.3545 201.598 102.918 166.043C125.482 130.489 156.661 101.21 193.562 80.9232L314 300L167.054 502.254Z" fill="#F2B360"/>
<path d="M193.562 80.9234C230.463 60.6368 271.89 50 314 50L314 300L193.562 80.9234Z" fill="#F13C59"/>
<rect x="730" y="146" width="50" height="40" fill="#633EBB"/>
<rect x="730" y="280" width="50" height="40" fill="#F2B360"/>
<rect x="730" y="414" width="50" height="40" fill="#F13C59"/>
<path d="M805.864 174.264C803.336 174.264 801.248 173.432 799.6 171.768C797.952 170.088 797.128 168.032 797.128 165.6C797.128 163.168 797.952 161.12 799.6 159.456C801.248 157.776 803.336 156.936 805.864 156.936C807.4 156.936 808.808 157.304 810.088 158.04C811.368 158.76 812.36 159.736 813.064 160.968L811.936 161.616C811.376 160.576 810.552 159.744 809.464 159.12C808.376 158.48 807.176 158.16 805.864 158.16C803.688 158.16 801.896 158.88 800.488 160.32C799.096 161.744 798.4 163.504 798.4 165.6C798.4 167.696 799.096 169.464 800.488 170.904C801.896 172.328 803.688 173.04 805.864 173.04C807.176 173.04 808.384 172.72 809.488 172.08C810.592 171.44 811.424 170.584 811.984 169.512L813.112 170.16C812.424 171.408 811.432 172.408 810.136 173.16C808.84 173.896 807.416 174.264 805.864 174.264ZM821.25 174.264C819.49 174.264 817.994 173.664 816.762 172.464C815.546 171.248 814.938 169.76 814.938 168C814.938 166.24 815.546 164.76 816.762 163.56C817.994 162.344 819.49 161.736 821.25 161.736C822.994 161.736 824.474 162.344 825.69 163.56C826.922 164.76 827.538 166.24 827.538 168C827.538 169.76 826.922 171.248 825.69 172.464C824.474 173.664 822.994 174.264 821.25 174.264ZM817.626 171.624C818.618 172.616 819.826 173.112 821.25 173.112C822.674 173.112 823.874 172.616 824.85 171.624C825.826 170.632 826.314 169.424 826.314 168C826.314 166.576 825.826 165.368 824.85 164.376C823.874 163.384 822.674 162.888 821.25 162.888C819.826 162.888 818.618 163.384 817.626 164.376C816.65 165.368 816.162 166.576 816.162 168C816.162 169.424 816.65 170.632 817.626 171.624ZM843.242 161.736C844.554 161.736 845.61 162.144 846.41 162.96C847.21 163.776 847.61 164.92 847.61 166.392V174H846.41V166.392C846.41 165.272 846.114 164.408 845.522 163.8C844.946 163.192 844.178 162.888 843.218 162.888C842.146 162.888 841.274 163.256 840.602 163.992C839.946 164.728 839.618 165.832 839.618 167.304V174H838.418V166.392C838.418 165.272 838.138 164.408 837.578 163.8C837.034 163.192 836.29 162.888 835.346 162.888C834.29 162.888 833.402 163.264 832.682 164.016C831.978 164.752 831.626 165.848 831.626 167.304V174H830.426V162H831.626V164.064C832.458 162.512 833.746 161.736 835.49 161.736C836.37 161.736 837.138 161.952 837.794 162.384C838.45 162.8 838.93 163.4 839.234 164.184C839.65 163.368 840.21 162.76 840.914 162.36C841.634 161.944 842.41 161.736 843.242 161.736ZM863.82 161.736C865.132 161.736 866.188 162.144 866.988 162.96C867.788 163.776 868.188 164.92 868.188 166.392V174H866.988V166.392C866.988 165.272 866.692 164.408 866.1 163.8C865.524 163.192 864.756 162.888 863.796 162.888C862.724 162.888 861.852 163.256 861.18 163.992C860.524 164.728 860.196 165.832 860.196 167.304V174H858.996V166.392C858.996 165.272 858.716 164.408 858.156 163.8C857.612 163.192 856.868 162.888 855.924 162.888C854.868 162.888 853.98 163.264 853.26 164.016C852.556 164.752 852.204 165.848 852.204 167.304V174H851.004V162H852.204V164.064C853.036 162.512 854.324 161.736 856.068 161.736C856.948 161.736 857.716 161.952 858.372 162.384C859.028 162.8 859.508 163.4 859.812 164.184C860.228 163.368 860.788 162.76 861.492 162.36C862.212 161.944 862.988 161.736 863.82 161.736ZM880.222 162H881.422V174H880.222V171.72C879.358 173.416 877.926 174.264 875.926 174.264C874.502 174.264 873.366 173.832 872.518 172.968C871.686 172.088 871.27 170.92 871.27 169.464V162H872.494V169.464C872.494 170.584 872.798 171.472 873.406 172.128C874.03 172.784 874.902 173.112 876.022 173.112C877.254 173.112 878.262 172.704 879.046 171.888C879.83 171.072 880.222 169.888 880.222 168.336V162ZM890.625 161.736C892.049 161.736 893.177 162.176 894.009 163.056C894.857 163.92 895.281 165.08 895.281 166.536V174H894.057V166.536C894.057 165.416 893.745 164.528 893.121 163.872C892.513 163.216 891.649 162.888 890.529 162.888C889.297 162.888 888.289 163.296 887.505 164.112C886.721 164.928 886.329 166.112 886.329 167.664V174H885.129V162H886.329V164.28C887.193 162.584 888.625 161.736 890.625 161.736ZM899.948 158.832C899.756 159.008 899.532 159.096 899.276 159.096C899.02 159.096 898.796 159.008 898.604 158.832C898.412 158.64 898.316 158.408 898.316 158.136C898.316 157.88 898.412 157.664 898.604 157.488C898.796 157.296 899.02 157.2 899.276 157.2C899.532 157.2 899.756 157.296 899.948 157.488C900.14 157.664 900.236 157.88 900.236 158.136C900.236 158.408 900.14 158.64 899.948 158.832ZM898.676 174V162H899.876V174H898.676ZM909.719 163.176H906.143V170.976C906.143 171.664 906.271 172.16 906.527 172.464C906.783 172.768 907.175 172.944 907.703 172.992C908.231 173.024 908.903 173 909.719 172.92V174C908.103 174.24 906.895 174.128 906.095 173.664C905.311 173.2 904.919 172.304 904.919 170.976V163.176H902.279V162H904.919V159L906.143 158.64V162H909.719V163.176ZM921.616 162H922.912L917.728 175.104C917.264 176.288 916.608 177.216 915.76 177.888C914.912 178.576 913.984 178.88 912.976 178.8V177.672C913.744 177.736 914.432 177.512 915.04 177C915.664 176.504 916.168 175.792 916.552 174.864L916.816 174.216L911.296 162H912.592L917.44 172.68L921.616 162Z" fill="black"/>
<path d="M803.224 308.264C801.672 308.264 800.352 307.912 799.264 307.208C798.192 306.488 797.464 305.52 797.08 304.304L798.184 303.656C798.488 304.696 799.064 305.52 799.912 306.128C800.776 306.736 801.88 307.04 803.224 307.04C804.584 307.04 805.624 306.728 806.344 306.104C807.08 305.48 807.448 304.672 807.448 303.68C807.448 302.752 807.096 302.04 806.392 301.544C805.688 301.048 804.592 300.56 803.104 300.08C802.56 299.904 802.16 299.776 801.904 299.696C801.664 299.6 801.312 299.464 800.848 299.288C800.384 299.096 800.04 298.928 799.816 298.784C799.592 298.64 799.32 298.448 799 298.208C798.696 297.968 798.472 297.728 798.328 297.488C798.184 297.232 798.056 296.936 797.944 296.6C797.832 296.248 797.776 295.864 797.776 295.448C797.776 294.088 798.256 293 799.216 292.184C800.192 291.352 801.408 290.936 802.864 290.936C804.176 290.936 805.296 291.264 806.224 291.92C807.152 292.576 807.832 293.424 808.264 294.464L807.184 295.064C806.384 293.128 804.944 292.16 802.864 292.16C801.712 292.16 800.792 292.464 800.104 293.072C799.416 293.68 799.072 294.456 799.072 295.4C799.072 296.312 799.392 296.992 800.032 297.44C800.672 297.888 801.72 298.352 803.176 298.832C804.104 299.136 804.824 299.4 805.336 299.624C805.864 299.832 806.424 300.128 807.016 300.512C807.624 300.88 808.064 301.328 808.336 301.856C808.608 302.368 808.744 302.968 808.744 303.656C808.744 305.048 808.24 306.168 807.232 307.016C806.224 307.848 804.888 308.264 803.224 308.264ZM812.829 298.352C813.549 296.672 814.885 295.832 816.837 295.832V296.984C815.701 296.984 814.749 297.352 813.981 298.088C813.213 298.808 812.829 299.888 812.829 301.328V308H811.629V296H812.829V298.352ZM824.039 308.264C822.231 308.264 820.727 307.664 819.527 306.464C818.327 305.264 817.727 303.776 817.727 302C817.727 300.224 818.327 298.736 819.527 297.536C820.727 296.336 822.231 295.736 824.039 295.736C825.207 295.736 826.263 296.016 827.207 296.576C828.151 297.12 828.839 297.864 829.271 298.808L828.287 299.384C827.935 298.616 827.375 298.008 826.607 297.56C825.855 297.112 824.999 296.888 824.039 296.888C822.599 296.888 821.391 297.384 820.415 298.376C819.439 299.352 818.951 300.56 818.951 302C818.951 303.44 819.439 304.656 820.415 305.648C821.391 306.624 822.599 307.112 824.039 307.112C824.999 307.112 825.855 306.888 826.607 306.44C827.375 305.992 827.959 305.384 828.359 304.616L829.367 305.216C828.887 306.144 828.167 306.888 827.207 307.448C826.263 307.992 825.207 308.264 824.039 308.264ZM837.66 292.088C835.276 291.896 834.084 292.984 834.084 295.352V296H837.66V297.176H834.084V308H832.86V297.176H830.796V296H832.86V295.352C832.86 293.848 833.268 292.712 834.084 291.944C834.916 291.16 836.108 290.824 837.66 290.936V292.088ZM848.16 296H849.36V308H848.16V305.72C847.296 307.416 845.864 308.264 843.864 308.264C842.44 308.264 841.304 307.832 840.456 306.968C839.624 306.088 839.208 304.92 839.208 303.464V296H840.432V303.464C840.432 304.584 840.736 305.472 841.344 306.128C841.968 306.784 842.84 307.112 843.96 307.112C845.192 307.112 846.2 306.704 846.984 305.888C847.768 305.072 848.16 303.888 848.16 302.336V296ZM853.067 308V290.48H854.267V308H853.067ZM873.916 292.4H865.876V299.12H873.628V300.32H865.876V308H864.604V291.2H873.916V292.4ZM882.282 308.264C880.522 308.264 879.026 307.664 877.794 306.464C876.578 305.248 875.97 303.76 875.97 302C875.97 300.24 876.578 298.76 877.794 297.56C879.026 296.344 880.522 295.736 882.282 295.736C884.026 295.736 885.506 296.344 886.722 297.56C887.954 298.76 888.57 300.24 888.57 302C888.57 303.76 887.954 305.248 886.722 306.464C885.506 307.664 884.026 308.264 882.282 308.264ZM878.658 305.624C879.65 306.616 880.858 307.112 882.282 307.112C883.706 307.112 884.906 306.616 885.882 305.624C886.858 304.632 887.346 303.424 887.346 302C887.346 300.576 886.858 299.368 885.882 298.376C884.906 297.384 883.706 296.888 882.282 296.888C880.858 296.888 879.65 297.384 878.658 298.376C877.682 299.368 877.194 300.576 877.194 302C877.194 303.424 877.682 304.632 878.658 305.624ZM900.097 296H901.297V308H900.097V305.72C899.233 307.416 897.801 308.264 895.801 308.264C894.377 308.264 893.241 307.832 892.393 306.968C891.561 306.088 891.145 304.92 891.145 303.464V296H892.369V303.464C892.369 304.584 892.673 305.472 893.281 306.128C893.905 306.784 894.777 307.112 895.897 307.112C897.129 307.112 898.137 306.704 898.921 305.888C899.705 305.072 900.097 303.888 900.097 302.336V296ZM910.5 295.736C911.924 295.736 913.052 296.176 913.884 297.056C914.732 297.92 915.156 299.08 915.156 300.536V308H913.932V300.536C913.932 299.416 913.62 298.528 912.996 297.872C912.388 297.216 911.524 296.888 910.404 296.888C909.172 296.888 908.164 297.296 907.38 298.112C906.596 298.928 906.204 300.112 906.204 301.664V308H905.004V296H906.204V298.28C907.068 296.584 908.5 295.736 910.5 295.736ZM929.135 291.2H930.335V308H929.135V305.216C928.639 306.16 927.935 306.904 927.023 307.448C926.127 307.992 925.111 308.264 923.975 308.264C922.247 308.264 920.775 307.664 919.559 306.464C918.359 305.248 917.759 303.76 917.759 302C917.759 300.24 918.359 298.76 919.559 297.56C920.775 296.344 922.247 295.736 923.975 295.736C925.111 295.736 926.127 296.008 927.023 296.552C927.935 297.096 928.639 297.84 929.135 298.784V291.2ZM920.423 305.624C921.415 306.616 922.623 307.112 924.047 307.112C925.471 307.112 926.671 306.616 927.647 305.624C928.639 304.632 929.135 303.424 929.135 302C929.135 300.576 928.639 299.368 927.647 298.376C926.671 297.384 925.471 296.888 924.047 296.888C922.623 296.888 921.415 297.384 920.423 298.376C919.447 299.368 918.959 300.576 918.959 302C918.959 303.424 919.447 304.632 920.423 305.624ZM939.42 295.736C941.18 295.736 942.604 296.36 943.692 297.608C944.796 298.856 945.348 300.336 945.348 302.048C945.348 302.112 945.34 302.208 945.324 302.336C945.324 302.464 945.324 302.56 945.324 302.624H934.452C934.596 303.968 935.132 305.056 936.06 305.888C937.004 306.704 938.164 307.112 939.54 307.112C940.5 307.112 941.34 306.912 942.06 306.512C942.78 306.112 943.324 305.584 943.692 304.928L944.748 305.552C944.252 306.384 943.548 307.048 942.636 307.544C941.724 308.024 940.684 308.264 939.516 308.264C937.676 308.264 936.164 307.68 934.98 306.512C933.796 305.328 933.204 303.824 933.204 302C933.204 300.208 933.78 298.72 934.932 297.536C936.1 296.336 937.596 295.736 939.42 295.736ZM939.42 296.888C938.06 296.888 936.924 297.312 936.012 298.16C935.1 299.008 934.58 300.104 934.452 301.448H944.1C943.972 300.024 943.46 298.912 942.564 298.112C941.684 297.296 940.636 296.888 939.42 296.888ZM949.353 298.352C950.073 296.672 951.409 295.832 953.361 295.832V296.984C952.225 296.984 951.273 297.352 950.505 298.088C949.737 298.808 949.353 299.888 949.353 301.328V308H948.153V296H949.353V298.352ZM956.141 299.144C956.141 299.736 956.389 300.2 956.885 300.536C957.381 300.872 957.989 301.128 958.709 301.304C959.429 301.464 960.141 301.648 960.845 301.856C961.565 302.064 962.173 302.416 962.669 302.912C963.165 303.392 963.413 304.04 963.413 304.856C963.413 305.848 963.013 306.664 962.213 307.304C961.429 307.944 960.397 308.264 959.117 308.264C957.965 308.264 956.989 308.024 956.189 307.544C955.405 307.048 954.861 306.4 954.557 305.6L955.589 305C955.813 305.656 956.229 306.176 956.837 306.56C957.461 306.928 958.221 307.112 959.117 307.112C960.013 307.112 960.749 306.92 961.325 306.536C961.917 306.136 962.213 305.576 962.213 304.856C962.213 304.264 961.965 303.792 961.469 303.44C960.973 303.088 960.365 302.832 959.645 302.672C958.925 302.496 958.205 302.304 957.485 302.096C956.781 301.888 956.181 301.544 955.685 301.064C955.189 300.584 954.941 299.944 954.941 299.144C954.941 298.184 955.317 297.376 956.069 296.72C956.837 296.064 957.821 295.736 959.021 295.736C959.981 295.736 960.813 295.952 961.517 296.384C962.237 296.816 962.765 297.4 963.101 298.136L962.093 298.712C961.853 298.12 961.453 297.672 960.893 297.368C960.333 297.048 959.709 296.888 959.021 296.888C958.205 296.888 957.517 297.096 956.957 297.512C956.413 297.912 956.141 298.456 956.141 299.144ZM983.275 296H984.499V308H983.275V305.288C982.763 306.216 982.059 306.944 981.163 307.472C980.267 308 979.251 308.264 978.115 308.264C976.403 308.264 974.939 307.664 973.723 306.464C972.507 305.248 971.899 303.76 971.899 302C971.899 300.24 972.507 298.76 973.723 297.56C974.939 296.344 976.403 295.736 978.115 295.736C979.251 295.736 980.267 296 981.163 296.528C982.059 297.056 982.763 297.784 983.275 298.712V296ZM974.587 305.624C975.579 306.616 976.787 307.112 978.211 307.112C979.635 307.112 980.835 306.616 981.811 305.624C982.787 304.632 983.275 303.424 983.275 302C983.275 300.576 982.787 299.368 981.811 298.376C980.835 297.384 979.635 296.888 978.211 296.888C976.787 296.888 975.579 297.384 974.587 298.376C973.611 299.368 973.123 300.576 973.123 302C973.123 303.424 973.611 304.632 974.587 305.624ZM993.68 295.736C995.104 295.736 996.232 296.176 997.064 297.056C997.912 297.92 998.336 299.08 998.336 300.536V308H997.112V300.536C997.112 299.416 996.8 298.528 996.176 297.872C995.568 297.216 994.704 296.888 993.584 296.888C992.352 296.888 991.344 297.296 990.56 298.112C989.776 298.928 989.384 300.112 989.384 301.664V308H988.184V296H989.384V298.28C990.248 296.584 991.68 295.736 993.68 295.736ZM1012.31 291.2H1013.51V308H1012.31V305.216C1011.82 306.16 1011.11 306.904 1010.2 307.448C1009.31 307.992 1008.29 308.264 1007.15 308.264C1005.43 308.264 1003.95 307.664 1002.74 306.464C1001.54 305.248 1000.94 303.76 1000.94 302C1000.94 300.24 1001.54 298.76 1002.74 297.56C1003.95 296.344 1005.43 295.736 1007.15 295.736C1008.29 295.736 1009.31 296.008 1010.2 296.552C1011.11 297.096 1011.82 297.84 1012.31 298.784V291.2ZM1003.6 305.624C1004.59 306.616 1005.8 307.112 1007.23 307.112C1008.65 307.112 1009.85 306.616 1010.83 305.624C1011.82 304.632 1012.31 303.424 1012.31 302C1012.31 300.576 1011.82 299.368 1010.83 298.376C1009.85 297.384 1008.65 296.888 1007.23 296.888C1005.8 296.888 1004.59 297.384 1003.6 298.376C1002.63 299.368 1002.14 300.576 1002.14 302C1002.14 303.424 1002.63 304.632 1003.6 305.624ZM1023.84 291.2H1025.11V308H1023.84V291.2ZM1034.53 295.736C1035.96 295.736 1037.08 296.176 1037.92 297.056C1038.76 297.92 1039.19 299.08 1039.19 300.536V308H1037.96V300.536C1037.96 299.416 1037.65 298.528 1037.03 297.872C1036.42 297.216 1035.56 296.888 1034.44 296.888C1033.2 296.888 1032.2 297.296 1031.41 298.112C1030.63 298.928 1030.24 300.112 1030.24 301.664V308H1029.04V296H1030.24V298.28C1031.1 296.584 1032.53 295.736 1034.53 295.736ZM1051.27 296H1052.55L1047.48 308H1046.02L1040.93 296H1042.23L1046.74 306.752L1051.27 296ZM1059.65 295.736C1061.41 295.736 1062.84 296.36 1063.93 297.608C1065.03 298.856 1065.58 300.336 1065.58 302.048C1065.58 302.112 1065.57 302.208 1065.56 302.336C1065.56 302.464 1065.56 302.56 1065.56 302.624H1054.69C1054.83 303.968 1055.37 305.056 1056.29 305.888C1057.24 306.704 1058.4 307.112 1059.77 307.112C1060.73 307.112 1061.57 306.912 1062.29 306.512C1063.01 306.112 1063.56 305.584 1063.93 304.928L1064.98 305.552C1064.49 306.384 1063.78 307.048 1062.87 307.544C1061.96 308.024 1060.92 308.264 1059.75 308.264C1057.91 308.264 1056.4 307.68 1055.21 306.512C1054.03 305.328 1053.44 303.824 1053.44 302C1053.44 300.208 1054.01 298.72 1055.17 297.536C1056.33 296.336 1057.83 295.736 1059.65 295.736ZM1059.65 296.888C1058.29 296.888 1057.16 297.312 1056.25 298.16C1055.33 299.008 1054.81 300.104 1054.69 301.448H1064.33C1064.21 300.024 1063.69 298.912 1062.8 298.112C1061.92 297.296 1060.87 296.888 1059.65 296.888ZM1068.73 299.144C1068.73 299.736 1068.98 300.2 1069.48 300.536C1069.97 300.872 1070.58 301.128 1071.3 301.304C1072.02 301.464 1072.73 301.648 1073.44 301.856C1074.16 302.064 1074.77 302.416 1075.26 302.912C1075.76 303.392 1076.01 304.04 1076.01 304.856C1076.01 305.848 1075.61 306.664 1074.81 307.304C1074.02 307.944 1072.99 308.264 1071.71 308.264C1070.56 308.264 1069.58 308.024 1068.78 307.544C1068 307.048 1067.45 306.4 1067.15 305.6L1068.18 305C1068.41 305.656 1068.82 306.176 1069.43 306.56C1070.05 306.928 1070.81 307.112 1071.71 307.112C1072.61 307.112 1073.34 306.92 1073.92 306.536C1074.51 306.136 1074.81 305.576 1074.81 304.856C1074.81 304.264 1074.56 303.792 1074.06 303.44C1073.57 303.088 1072.96 302.832 1072.24 302.672C1071.52 302.496 1070.8 302.304 1070.08 302.096C1069.37 301.888 1068.77 301.544 1068.28 301.064C1067.78 300.584 1067.53 299.944 1067.53 299.144C1067.53 298.184 1067.91 297.376 1068.66 296.72C1069.43 296.064 1070.41 295.736 1071.61 295.736C1072.57 295.736 1073.41 295.952 1074.11 296.384C1074.83 296.816 1075.36 297.4 1075.69 298.136L1074.69 298.712C1074.45 298.12 1074.05 297.672 1073.49 297.368C1072.93 297.048 1072.3 296.888 1071.61 296.888C1070.8 296.888 1070.11 297.096 1069.55 297.512C1069.01 297.912 1068.73 298.456 1068.73 299.144ZM1084.59 297.176H1081.01V304.976C1081.01 305.664 1081.14 306.16 1081.39 306.464C1081.65 306.768 1082.04 306.944 1082.57 306.992C1083.1 307.024 1083.77 307 1084.59 306.92V308C1082.97 308.24 1081.76 308.128 1080.96 307.664C1080.18 307.2 1079.79 306.304 1079.79 304.976V297.176H1077.15V296H1079.79V293L1081.01 292.64V296H1084.59V297.176ZM1092.23 308.264C1090.47 308.264 1088.98 307.664 1087.75 306.464C1086.53 305.248 1085.92 303.76 1085.92 302C1085.92 300.24 1086.53 298.76 1087.75 297.56C1088.98 296.344 1090.47 295.736 1092.23 295.736C1093.98 295.736 1095.46 296.344 1096.67 297.56C1097.91 298.76 1098.52 300.24 1098.52 302C1098.52 303.76 1097.91 305.248 1096.67 306.464C1095.46 307.664 1093.98 308.264 1092.23 308.264ZM1088.61 305.624C1089.6 306.616 1090.81 307.112 1092.23 307.112C1093.66 307.112 1094.86 306.616 1095.83 305.624C1096.81 304.632 1097.3 303.424 1097.3 302C1097.3 300.576 1096.81 299.368 1095.83 298.376C1094.86 297.384 1093.66 296.888 1092.23 296.888C1090.81 296.888 1089.6 297.384 1088.61 298.376C1087.63 299.368 1087.15 300.576 1087.15 302C1087.15 303.424 1087.63 304.632 1088.61 305.624ZM1102.61 298.352C1103.33 296.672 1104.67 295.832 1106.62 295.832V296.984C1105.48 296.984 1104.53 297.352 1103.76 298.088C1102.99 298.808 1102.61 299.888 1102.61 301.328V308H1101.41V296H1102.61V298.352ZM1109.4 299.144C1109.4 299.736 1109.65 300.2 1110.14 300.536C1110.64 300.872 1111.25 301.128 1111.97 301.304C1112.69 301.464 1113.4 301.648 1114.1 301.856C1114.82 302.064 1115.43 302.416 1115.93 302.912C1116.42 303.392 1116.67 304.04 1116.67 304.856C1116.67 305.848 1116.27 306.664 1115.47 307.304C1114.69 307.944 1113.65 308.264 1112.37 308.264C1111.22 308.264 1110.25 308.024 1109.45 307.544C1108.66 307.048 1108.12 306.4 1107.81 305.6L1108.85 305C1109.07 305.656 1109.49 306.176 1110.09 306.56C1110.72 306.928 1111.48 307.112 1112.37 307.112C1113.27 307.112 1114.01 306.92 1114.58 306.536C1115.17 306.136 1115.47 305.576 1115.47 304.856C1115.47 304.264 1115.22 303.792 1114.73 303.44C1114.23 303.088 1113.62 302.832 1112.9 302.672C1112.18 302.496 1111.46 302.304 1110.74 302.096C1110.04 301.888 1109.44 301.544 1108.94 301.064C1108.45 300.584 1108.2 299.944 1108.2 299.144C1108.2 298.184 1108.57 297.376 1109.33 296.72C1110.09 296.064 1111.08 295.736 1112.28 295.736C1113.24 295.736 1114.07 295.952 1114.77 296.384C1115.49 296.816 1116.02 297.4 1116.36 298.136L1115.35 298.712C1115.11 298.12 1114.71 297.672 1114.15 297.368C1113.59 297.048 1112.97 296.888 1112.28 296.888C1111.46 296.888 1110.77 297.096 1110.21 297.512C1109.67 297.912 1109.4 298.456 1109.4 299.144Z" fill="black"/>
<path d="M803.224 442.264C801.672 442.264 800.352 441.912 799.264 441.208C798.192 440.488 797.464 439.52 797.08 438.304L798.184 437.656C798.488 438.696 799.064 439.52 799.912 440.128C800.776 440.736 801.88 441.04 803.224 441.04C804.584 441.04 805.624 440.728 806.344 440.104C807.08 439.48 807.448 438.672 807.448 437.68C807.448 436.752 807.096 436.04 806.392 435.544C805.688 435.048 804.592 434.56 803.104 434.08C802.56 433.904 802.16 433.776 801.904 433.696C801.664 433.6 801.312 433.464 800.848 433.288C800.384 433.096 800.04 432.928 799.816 432.784C799.592 432.64 799.32 432.448 799 432.208C798.696 431.968 798.472 431.728 798.328 431.488C798.184 431.232 798.056 430.936 797.944 430.6C797.832 430.248 797.776 429.864 797.776 429.448C797.776 428.088 798.256 427 799.216 426.184C800.192 425.352 801.408 424.936 802.864 424.936C804.176 424.936 805.296 425.264 806.224 425.92C807.152 426.576 807.832 427.424 808.264 428.464L807.184 429.064C806.384 427.128 804.944 426.16 802.864 426.16C801.712 426.16 800.792 426.464 800.104 427.072C799.416 427.68 799.072 428.456 799.072 429.4C799.072 430.312 799.392 430.992 800.032 431.44C800.672 431.888 801.72 432.352 803.176 432.832C804.104 433.136 804.824 433.4 805.336 433.624C805.864 433.832 806.424 434.128 807.016 434.512C807.624 434.88 808.064 435.328 808.336 435.856C808.608 436.368 808.744 436.968 808.744 437.656C808.744 439.048 808.24 440.168 807.232 441.016C806.224 441.848 804.888 442.264 803.224 442.264ZM812.829 432.352C813.549 430.672 814.885 429.832 816.837 429.832V430.984C815.701 430.984 814.749 431.352 813.981 432.088C813.213 432.808 812.829 433.888 812.829 435.328V442H811.629V430H812.829V432.352ZM824.039 442.264C822.231 442.264 820.727 441.664 819.527 440.464C818.327 439.264 817.727 437.776 817.727 436C817.727 434.224 818.327 432.736 819.527 431.536C820.727 430.336 822.231 429.736 824.039 429.736C825.207 429.736 826.263 430.016 827.207 430.576C828.151 431.12 828.839 431.864 829.271 432.808L828.287 433.384C827.935 432.616 827.375 432.008 826.607 431.56C825.855 431.112 824.999 430.888 824.039 430.888C822.599 430.888 821.391 431.384 820.415 432.376C819.439 433.352 818.951 434.56 818.951 436C818.951 437.44 819.439 438.656 820.415 439.648C821.391 440.624 822.599 441.112 824.039 441.112C824.999 441.112 825.855 440.888 826.607 440.44C827.375 439.992 827.959 439.384 828.359 438.616L829.367 439.216C828.887 440.144 828.167 440.888 827.207 441.448C826.263 441.992 825.207 442.264 824.039 442.264ZM837.66 426.088C835.276 425.896 834.084 426.984 834.084 429.352V430H837.66V431.176H834.084V442H832.86V431.176H830.796V430H832.86V429.352C832.86 427.848 833.268 426.712 834.084 425.944C834.916 425.16 836.108 424.824 837.66 424.936V426.088ZM848.16 430H849.36V442H848.16V439.72C847.296 441.416 845.864 442.264 843.864 442.264C842.44 442.264 841.304 441.832 840.456 440.968C839.624 440.088 839.208 438.92 839.208 437.464V430H840.432V437.464C840.432 438.584 840.736 439.472 841.344 440.128C841.968 440.784 842.84 441.112 843.96 441.112C845.192 441.112 846.2 440.704 846.984 439.888C847.768 439.072 848.16 437.888 848.16 436.336V430ZM853.067 442V424.48H854.267V442H853.067ZM873.916 426.4H865.876V433.12H873.628V434.32H865.876V442H864.604V425.2H873.916V426.4ZM882.282 442.264C880.522 442.264 879.026 441.664 877.794 440.464C876.578 439.248 875.97 437.76 875.97 436C875.97 434.24 876.578 432.76 877.794 431.56C879.026 430.344 880.522 429.736 882.282 429.736C884.026 429.736 885.506 430.344 886.722 431.56C887.954 432.76 888.57 434.24 888.57 436C888.57 437.76 887.954 439.248 886.722 440.464C885.506 441.664 884.026 442.264 882.282 442.264ZM878.658 439.624C879.65 440.616 880.858 441.112 882.282 441.112C883.706 441.112 884.906 440.616 885.882 439.624C886.858 438.632 887.346 437.424 887.346 436C887.346 434.576 886.858 433.368 885.882 432.376C884.906 431.384 883.706 430.888 882.282 430.888C880.858 430.888 879.65 431.384 878.658 432.376C877.682 433.368 877.194 434.576 877.194 436C877.194 437.424 877.682 438.632 878.658 439.624ZM900.097 430H901.297V442H900.097V439.72C899.233 441.416 897.801 442.264 895.801 442.264C894.377 442.264 893.241 441.832 892.393 440.968C891.561 440.088 891.145 438.92 891.145 437.464V430H892.369V437.464C892.369 438.584 892.673 439.472 893.281 440.128C893.905 440.784 894.777 441.112 895.897 441.112C897.129 441.112 898.137 440.704 898.921 439.888C899.705 439.072 900.097 437.888 900.097 436.336V430ZM910.5 429.736C911.924 429.736 913.052 430.176 913.884 431.056C914.732 431.92 915.156 433.08 915.156 434.536V442H913.932V434.536C913.932 433.416 913.62 432.528 912.996 431.872C912.388 431.216 911.524 430.888 910.404 430.888C909.172 430.888 908.164 431.296 907.38 432.112C906.596 432.928 906.204 434.112 906.204 435.664V442H905.004V430H906.204V432.28C907.068 430.584 908.5 429.736 910.5 429.736ZM929.135 425.2H930.335V442H929.135V439.216C928.639 440.16 927.935 440.904 927.023 441.448C926.127 441.992 925.111 442.264 923.975 442.264C922.247 442.264 920.775 441.664 919.559 440.464C918.359 439.248 917.759 437.76 917.759 436C917.759 434.24 918.359 432.76 919.559 431.56C920.775 430.344 922.247 429.736 923.975 429.736C925.111 429.736 926.127 430.008 927.023 430.552C927.935 431.096 928.639 431.84 929.135 432.784V425.2ZM920.423 439.624C921.415 440.616 922.623 441.112 924.047 441.112C925.471 441.112 926.671 440.616 927.647 439.624C928.639 438.632 929.135 437.424 929.135 436C929.135 434.576 928.639 433.368 927.647 432.376C926.671 431.384 925.471 430.888 924.047 430.888C922.623 430.888 921.415 431.384 920.423 432.376C919.447 433.368 918.959 434.576 918.959 436C918.959 437.424 919.447 438.632 920.423 439.624ZM944.58 430H945.804V442H944.58V439.288C944.068 440.216 943.364 440.944 942.468 441.472C941.572 442 940.556 442.264 939.42 442.264C937.708 442.264 936.244 441.664 935.028 440.464C933.812 439.248 933.204 437.76 933.204 436C933.204 434.24 933.812 432.76 935.028 431.56C936.244 430.344 937.708 429.736 939.42 429.736C940.556 429.736 941.572 430 942.468 430.528C943.364 431.056 944.068 431.784 944.58 432.712V430ZM935.892 439.624C936.884 440.616 938.092 441.112 939.516 441.112C940.94 441.112 942.14 440.616 943.116 439.624C944.092 438.632 944.58 437.424 944.58 436C944.58 434.576 944.092 433.368 943.116 432.376C942.14 431.384 940.94 430.888 939.516 430.888C938.092 430.888 936.884 431.384 935.892 432.376C934.916 433.368 934.428 434.576 934.428 436C934.428 437.424 934.916 438.632 935.892 439.624ZM955.633 431.176H952.057V438.976C952.057 439.664 952.185 440.16 952.441 440.464C952.697 440.768 953.089 440.944 953.617 440.992C954.145 441.024 954.817 441 955.633 440.92V442C954.017 442.24 952.809 442.128 952.009 441.664C951.225 441.2 950.833 440.304 950.833 438.976V431.176H948.193V430H950.833V427L952.057 426.64V430H955.633V431.176ZM959.784 426.832C959.592 427.008 959.368 427.096 959.112 427.096C958.856 427.096 958.632 427.008 958.44 426.832C958.248 426.64 958.152 426.408 958.152 426.136C958.152 425.88 958.248 425.664 958.44 425.488C958.632 425.296 958.856 425.2 959.112 425.2C959.368 425.2 959.592 425.296 959.784 425.488C959.976 425.664 960.072 425.88 960.072 426.136C960.072 426.408 959.976 426.64 959.784 426.832ZM958.512 442V430H959.712V442H958.512ZM968.907 442.264C967.147 442.264 965.651 441.664 964.419 440.464C963.203 439.248 962.595 437.76 962.595 436C962.595 434.24 963.203 432.76 964.419 431.56C965.651 430.344 967.147 429.736 968.907 429.736C970.651 429.736 972.131 430.344 973.347 431.56C974.579 432.76 975.195 434.24 975.195 436C975.195 437.76 974.579 439.248 973.347 440.464C972.131 441.664 970.651 442.264 968.907 442.264ZM965.283 439.624C966.275 440.616 967.483 441.112 968.907 441.112C970.331 441.112 971.531 440.616 972.507 439.624C973.483 438.632 973.971 437.424 973.971 436C973.971 434.576 973.483 433.368 972.507 432.376C971.531 431.384 970.331 430.888 968.907 430.888C967.483 430.888 966.275 431.384 965.283 432.376C964.307 433.368 963.819 434.576 963.819 436C963.819 437.424 964.307 438.632 965.283 439.624ZM983.578 429.736C985.002 429.736 986.13 430.176 986.962 431.056C987.81 431.92 988.234 433.08 988.234 434.536V442H987.01V434.536C987.01 433.416 986.698 432.528 986.074 431.872C985.466 431.216 984.602 430.888 983.482 430.888C982.25 430.888 981.242 431.296 980.458 432.112C979.674 432.928 979.282 434.112 979.282 435.664V442H978.082V430H979.282V432.28C980.146 430.584 981.578 429.736 983.578 429.736Z" fill="black"/>
<path d="M1192.43 163.2C1194.08 163.2 1195.43 163.72 1196.49 164.76C1197.54 165.784 1198.07 167.112 1198.07 168.744C1198.07 170.36 1197.54 171.688 1196.49 172.728C1195.43 173.752 1194.08 174.264 1192.43 174.264C1190.78 174.264 1189.43 173.752 1188.38 172.728C1187.32 171.688 1186.79 170.36 1186.79 168.744C1186.79 167.48 1187.14 166.36 1187.82 165.384L1193.46 157.2H1194.9L1190.61 163.464C1191.22 163.288 1191.82 163.2 1192.43 163.2ZM1189.26 171.84C1190.06 172.64 1191.12 173.04 1192.43 173.04C1193.74 173.04 1194.8 172.64 1195.6 171.84C1196.4 171.04 1196.8 170.008 1196.8 168.744C1196.8 167.464 1196.4 166.424 1195.6 165.624C1194.8 164.824 1193.74 164.424 1192.43 164.424C1191.12 164.424 1190.06 164.824 1189.26 165.624C1188.48 166.424 1188.09 167.464 1188.09 168.744C1188.09 170.008 1188.48 171.04 1189.26 171.84ZM1211.08 171.912C1209.98 173.48 1208.43 174.264 1206.45 174.264C1204.47 174.264 1202.92 173.48 1201.82 171.912C1200.71 170.344 1200.16 168.24 1200.16 165.6C1200.16 162.96 1200.71 160.856 1201.82 159.288C1202.92 157.72 1204.47 156.936 1206.45 156.936C1208.43 156.936 1209.98 157.72 1211.08 159.288C1212.19 160.856 1212.74 162.96 1212.74 165.6C1212.74 168.24 1212.19 170.344 1211.08 171.912ZM1202.78 171.096C1203.66 172.392 1204.88 173.04 1206.45 173.04C1208.02 173.04 1209.24 172.392 1210.12 171.096C1211 169.784 1211.44 167.952 1211.44 165.6C1211.44 163.248 1211 161.424 1210.12 160.128C1209.24 158.816 1208.02 158.16 1206.45 158.16C1204.88 158.16 1203.66 158.816 1202.78 160.128C1201.9 161.424 1201.46 163.248 1201.46 165.6C1201.46 167.952 1201.9 169.784 1202.78 171.096ZM1218.72 164.088C1217.67 164.088 1216.79 163.744 1216.08 163.056C1215.4 162.368 1215.05 161.52 1215.05 160.512C1215.05 159.504 1215.4 158.656 1216.08 157.968C1216.79 157.28 1217.67 156.936 1218.72 156.936C1219.78 156.936 1220.65 157.28 1221.34 157.968C1222.04 158.656 1222.4 159.504 1222.4 160.512C1222.4 161.52 1222.05 162.368 1221.36 163.056C1220.68 163.744 1219.8 164.088 1218.72 164.088ZM1216.95 162.288C1217.41 162.752 1218 162.984 1218.72 162.984C1219.44 162.984 1220.04 162.752 1220.5 162.288C1220.98 161.808 1221.22 161.216 1221.22 160.512C1221.22 159.808 1220.98 159.224 1220.5 158.76C1220.04 158.28 1219.44 158.04 1218.72 158.04C1218 158.04 1217.41 158.28 1216.95 158.76C1216.48 159.224 1216.25 159.808 1216.25 160.512C1216.25 161.216 1216.48 161.808 1216.95 162.288ZM1215.96 171.84L1227.36 159.024L1228.18 159.48L1216.76 172.296L1215.96 171.84ZM1228.13 173.232C1227.44 173.92 1226.57 174.264 1225.52 174.264C1224.46 174.264 1223.58 173.92 1222.88 173.232C1222.19 172.544 1221.84 171.696 1221.84 170.688C1221.84 169.68 1222.19 168.832 1222.88 168.144C1223.58 167.456 1224.46 167.112 1225.52 167.112C1226.57 167.112 1227.44 167.456 1228.13 168.144C1228.84 168.832 1229.19 169.68 1229.19 170.688C1229.19 171.696 1228.84 172.544 1228.13 173.232ZM1223.74 172.464C1224.2 172.928 1224.8 173.16 1225.52 173.16C1226.24 173.16 1226.83 172.928 1227.29 172.464C1227.77 171.984 1228.01 171.392 1228.01 170.688C1228.01 169.984 1227.77 169.4 1227.29 168.936C1226.83 168.456 1226.24 168.216 1225.52 168.216C1224.8 168.216 1224.2 168.456 1223.74 168.936C1223.28 169.4 1223.04 169.984 1223.04 170.688C1223.04 171.392 1223.28 171.984 1223.74 172.464Z" fill="black"/>
<path d="M1192.96 298.184C1194.37 298.328 1195.53 298.832 1196.44 299.696C1197.35 300.56 1197.81 301.712 1197.81 303.152C1197.81 304.72 1197.27 305.968 1196.2 306.896C1195.13 307.808 1193.82 308.264 1192.26 308.264C1191.02 308.264 1189.91 307.984 1188.95 307.424C1187.99 306.864 1187.31 306.08 1186.91 305.072L1187.97 304.448C1188.27 305.28 1188.8 305.92 1189.55 306.368C1190.3 306.816 1191.21 307.04 1192.26 307.04C1193.51 307.04 1194.54 306.688 1195.34 305.984C1196.14 305.28 1196.54 304.336 1196.54 303.152C1196.54 301.968 1196.13 301.024 1195.31 300.32C1194.51 299.616 1193.48 299.264 1192.22 299.264V299.24L1192.19 299.264H1191.86L1191.3 298.424L1195.55 292.4H1187.34V291.2H1197.02V292.4L1192.96 298.184ZM1199.97 308V306.848L1206.14 300.512C1207.95 298.64 1208.85 297.056 1208.85 295.76C1208.85 294.64 1208.5 293.76 1207.79 293.12C1207.09 292.48 1206.21 292.16 1205.15 292.16C1203.28 292.16 1201.95 293.008 1201.15 294.704L1200.07 294.056C1200.56 293.048 1201.25 292.28 1202.13 291.752C1203.03 291.208 1204.03 290.936 1205.15 290.936C1206.51 290.936 1207.68 291.368 1208.66 292.232C1209.65 293.096 1210.15 294.272 1210.15 295.76C1210.15 296.72 1209.87 297.656 1209.31 298.568C1208.76 299.464 1207.99 300.416 1207 301.424L1201.79 306.776H1210.53V308H1199.97ZM1216.54 298.088C1215.49 298.088 1214.61 297.744 1213.9 297.056C1213.22 296.368 1212.87 295.52 1212.87 294.512C1212.87 293.504 1213.22 292.656 1213.9 291.968C1214.61 291.28 1215.49 290.936 1216.54 290.936C1217.6 290.936 1218.47 291.28 1219.16 291.968C1219.86 292.656 1220.22 293.504 1220.22 294.512C1220.22 295.52 1219.87 296.368 1219.18 297.056C1218.5 297.744 1217.62 298.088 1216.54 298.088ZM1214.77 296.288C1215.23 296.752 1215.82 296.984 1216.54 296.984C1217.26 296.984 1217.86 296.752 1218.32 296.288C1218.8 295.808 1219.04 295.216 1219.04 294.512C1219.04 293.808 1218.8 293.224 1218.32 292.76C1217.86 292.28 1217.26 292.04 1216.54 292.04C1215.82 292.04 1215.23 292.28 1214.77 292.76C1214.3 293.224 1214.07 293.808 1214.07 294.512C1214.07 295.216 1214.3 295.808 1214.77 296.288ZM1213.78 305.84L1225.18 293.024L1226 293.48L1214.58 306.296L1213.78 305.84ZM1225.95 307.232C1225.26 307.92 1224.39 308.264 1223.34 308.264C1222.28 308.264 1221.4 307.92 1220.7 307.232C1220.01 306.544 1219.66 305.696 1219.66 304.688C1219.66 303.68 1220.01 302.832 1220.7 302.144C1221.4 301.456 1222.28 301.112 1223.34 301.112C1224.39 301.112 1225.26 301.456 1225.95 302.144C1226.66 302.832 1227.01 303.68 1227.01 304.688C1227.01 305.696 1226.66 306.544 1225.95 307.232ZM1221.56 306.464C1222.02 306.928 1222.62 307.16 1223.34 307.16C1224.06 307.16 1224.65 306.928 1225.11 306.464C1225.59 305.984 1225.83 305.392 1225.83 304.688C1225.83 303.984 1225.59 303.4 1225.11 302.936C1224.65 302.456 1224.06 302.216 1223.34 302.216C1222.62 302.216 1222.02 302.456 1221.56 302.936C1221.1 303.4 1220.86 303.984 1220.86 304.688C1220.86 305.392 1221.1 305.984 1221.56 306.464Z" fill="black"/>
<path d="M1195.17 433.312C1196.1 433.68 1196.82 434.232 1197.35 434.968C1197.9 435.704 1198.17 436.552 1198.17 437.512C1198.17 439 1197.65 440.168 1196.61 441.016C1195.57 441.848 1194.23 442.264 1192.6 442.264C1190.97 442.264 1189.63 441.848 1188.59 441.016C1187.55 440.168 1187.03 439 1187.03 437.512C1187.03 436.552 1187.3 435.704 1187.82 434.968C1188.37 434.232 1189.1 433.68 1190.03 433.312C1189.28 432.944 1188.68 432.432 1188.23 431.776C1187.8 431.104 1187.58 430.336 1187.58 429.472C1187.58 428.048 1188.06 426.936 1189.02 426.136C1190 425.336 1191.19 424.936 1192.6 424.936C1194.01 424.936 1195.19 425.336 1196.15 426.136C1197.13 426.936 1197.62 428.048 1197.62 429.472C1197.62 430.336 1197.39 431.104 1196.94 431.776C1196.51 432.432 1195.92 432.944 1195.17 433.312ZM1188.86 429.472C1188.86 430.48 1189.21 431.28 1189.91 431.872C1190.62 432.464 1191.51 432.76 1192.6 432.76C1193.69 432.76 1194.58 432.464 1195.29 431.872C1195.99 431.28 1196.34 430.48 1196.34 429.472C1196.34 428.432 1195.99 427.624 1195.29 427.048C1194.6 426.456 1193.7 426.16 1192.6 426.16C1191.5 426.16 1190.59 426.456 1189.89 427.048C1189.2 427.624 1188.86 428.432 1188.86 429.472ZM1189.48 440.104C1190.25 440.728 1191.29 441.04 1192.6 441.04C1193.91 441.04 1194.95 440.728 1195.72 440.104C1196.49 439.48 1196.87 438.616 1196.87 437.512C1196.87 436.408 1196.49 435.552 1195.72 434.944C1194.95 434.32 1193.91 434.008 1192.6 434.008C1191.29 434.008 1190.25 434.32 1189.48 434.944C1188.71 435.552 1188.33 436.408 1188.33 437.512C1188.33 438.616 1188.71 439.48 1189.48 440.104ZM1203.91 432.088C1202.85 432.088 1201.97 431.744 1201.27 431.056C1200.58 430.368 1200.24 429.52 1200.24 428.512C1200.24 427.504 1200.58 426.656 1201.27 425.968C1201.97 425.28 1202.85 424.936 1203.91 424.936C1204.97 424.936 1205.84 425.28 1206.53 425.968C1207.23 426.656 1207.58 427.504 1207.58 428.512C1207.58 429.52 1207.24 430.368 1206.55 431.056C1205.86 431.744 1204.98 432.088 1203.91 432.088ZM1202.13 430.288C1202.6 430.752 1203.19 430.984 1203.91 430.984C1204.63 430.984 1205.22 430.752 1205.69 430.288C1206.17 429.808 1206.41 429.216 1206.41 428.512C1206.41 427.808 1206.17 427.224 1205.69 426.76C1205.22 426.28 1204.63 426.04 1203.91 426.04C1203.19 426.04 1202.6 426.28 1202.13 426.76C1201.67 427.224 1201.44 427.808 1201.44 428.512C1201.44 429.216 1201.67 429.808 1202.13 430.288ZM1201.15 439.84L1212.55 427.024L1213.37 427.48L1201.94 440.296L1201.15 439.84ZM1213.32 441.232C1212.63 441.92 1211.76 442.264 1210.7 442.264C1209.65 442.264 1208.77 441.92 1208.06 441.232C1207.37 440.544 1207.03 439.696 1207.03 438.688C1207.03 437.68 1207.37 436.832 1208.06 436.144C1208.77 435.456 1209.65 435.112 1210.7 435.112C1211.76 435.112 1212.63 435.456 1213.32 436.144C1214.02 436.832 1214.37 437.68 1214.37 438.688C1214.37 439.696 1214.02 440.544 1213.32 441.232ZM1208.93 440.464C1209.39 440.928 1209.98 441.16 1210.7 441.16C1211.42 441.16 1212.01 440.928 1212.48 440.464C1212.96 439.984 1213.2 439.392 1213.2 438.688C1213.2 437.984 1212.96 437.4 1212.48 436.936C1212.01 436.456 1211.42 436.216 1210.7 436.216C1209.98 436.216 1209.39 436.456 1208.93 436.936C1208.46 437.4 1208.23 437.984 1208.23 438.688C1208.23 439.392 1208.46 439.984 1208.93 440.464Z" fill="black"/>
</svg>
