<svg width="1000" height="1000" viewBox="0 0 1000 1000" fill="none" xmlns="http://www.w3.org/2000/svg">
<g clip-path="url(#clip0_317_19)">
<mask id="mask0_317_19" style="mask-type:luminance" maskUnits="userSpaceOnUse" x="0" y="0" width="1000" height="1000">
<path d="M1000 0H0V1000H1000V0Z" fill="white"/>
</mask>
<g mask="url(#mask0_317_19)">
<path d="M926.34 749.21C738.29 618.47 617.33 546.43 850.12 596.34C624.52 520.12 765.33 519.26 993.75 500C765.33 480.74 624.52 479.88 850.12 403.67C617.33 453.58 738.29 381.54 926.34 250.8C720.11 350.52 598.1 420.65 756.82 243.2C579.37 401.91 649.49 279.88 749.21 73.66C618.47 261.7 546.43 382.67 596.35 149.88C520.12 375.47 519.27 234.67 500 6.25C480.74 234.67 479.88 375.47 403.67 149.88C453.58 382.66 381.54 261.71 250.8 73.65C350.52 279.87 420.65 401.9 243.2 243.19C401.91 420.64 279.88 350.51 73.66 250.79C261.71 381.53 382.67 453.57 149.89 403.66C375.47 479.88 234.67 480.74 6.25 500C234.67 519.26 375.47 520.12 149.88 596.34C382.66 546.43 261.7 618.47 73.65 749.21C279.87 649.48 401.9 579.37 243.19 756.82C420.64 598.1 350.51 720.11 250.79 926.34C381.53 738.29 453.57 617.33 403.66 850.12C479.88 624.52 480.73 765.33 499.99 993.75C519.26 765.33 520.11 624.52 596.34 850.12C546.42 617.33 618.46 738.29 749.2 926.34C649.47 720.14 579.36 598.1 756.81 756.82C598.1 579.37 720.14 649.48 926.34 749.21ZM500 660C411.64 660 340 588.37 340 500C340 411.64 411.64 340 500 340C588.37 340 660 411.64 660 500C660 588.37 588.37 660 500 660Z" fill="#FED700"/>
</g>
</g>
<defs>
<clipPath id="clip0_317_19">
<rect width="1000" height="1000" fill="white"/>
</clipPath>
</defs>
</svg>
