<svg width="617" height="81" viewBox="0 0 617 81" fill="none" xmlns="http://www.w3.org/2000/svg">
<ellipse cx="39.5935" cy="39.3788" rx="39.1672" ry="39.1859" fill="#2B2B2B"/>
<path d="M23.8131 38.4139L42.0968 16.2114C43.4029 14.6254 45.958 15.8622 45.5255 17.8712L41.9452 34.5033C41.6699 35.7823 42.7 36.9673 44.0043 36.8718L53.252 36.1948C55.0109 36.066 56.0316 38.1454 54.8545 39.4593L34.3305 62.3685C32.932 63.9297 30.3899 62.5014 30.9943 60.4941L36.3976 42.5492C36.8198 41.1471 35.6127 39.7935 34.1724 40.0539L25.6744 41.5905C23.8782 41.9152 22.6525 39.8233 23.8131 38.4139Z" fill="#00FF84"/>
<path d="M134.768 32.6358C145.247 33.8424 152.55 36.5098 152.55 46.6711C152.55 54.038 146.2 60.5159 134.26 60.5159C121.813 60.5159 115.97 52.5138 115.97 44.2578H124.353C124.48 47.6872 126.068 53.403 134.26 53.403C141.691 53.403 143.913 49.656 143.913 47.1792C143.913 44.1308 141.945 41.908 134.26 40.8918C121.558 39.2406 117.494 35.1126 117.494 27.4916C117.494 20.5057 123.781 14.79 134.387 14.79C146.009 14.79 150.772 21.7759 150.899 29.0158H142.707C142.707 26.0944 140.738 21.9029 134.26 21.9029C127.719 21.9029 126.068 25.2053 126.068 27.1106C126.068 28.8253 126.893 31.7467 134.768 32.6358ZM171.096 25.9674C181.575 25.9674 187.863 33.7154 187.863 43.2416C187.863 52.7679 181.575 60.5159 171.096 60.5159C160.618 60.5159 154.33 52.7679 154.33 43.2416C154.33 33.7154 160.618 25.9674 171.096 25.9674ZM171.096 53.1489C176.622 53.1489 179.733 48.7033 179.733 43.2416C179.733 37.7799 176.622 33.3344 171.096 33.3344C165.571 33.3344 162.459 37.7799 162.459 43.2416C162.459 48.7033 165.571 53.1489 171.096 53.1489ZM202.734 60.5159C195.494 60.5159 190.668 55.8163 190.668 46.29V26.4755H198.797V43.4957C198.797 51.0532 200.766 53.1489 205.021 53.1489C209.72 53.1489 214.039 47.8777 214.039 40.1297V26.4755H222.168V60.0078H214.039V57.912C214.039 55.8798 214.483 54.6731 215.055 53.3394C215.309 52.7679 215.69 51.8788 214.864 51.6882C214.356 51.5612 214.166 51.9423 213.912 52.4503C212.261 55.7528 208.577 60.5159 202.734 60.5159ZM234.996 33.6519C235.377 33.7154 235.694 33.2073 235.758 33.0168C237.79 28.3807 239.632 25.9674 247.824 25.9674V34.2235C238.362 33.5884 235.631 36.9543 235.631 45.4644V60.0078H227.502V26.4755H235.631V28.3172C235.631 29.7779 235.25 31.0481 234.678 32.1912C234.424 32.7628 234.233 33.5249 234.996 33.6519ZM247.581 43.2416C247.581 33.2708 254.122 25.9674 264.537 25.9674C273.937 25.9674 279.525 32.3182 280.097 39.1771H272.095C271.587 36.0017 269.11 33.3344 264.537 33.3344C258.949 33.3344 255.71 37.3989 255.71 43.2416C255.71 49.0844 258.949 53.1489 264.537 53.1489C269.11 53.1489 271.587 50.4816 272.095 47.3062H280.097C279.525 54.1651 274 60.5159 264.537 60.5159C254.312 60.5159 247.581 53.2124 247.581 43.2416ZM314.612 42.7971C314.612 43.6862 314.549 44.3213 314.422 45.2739H290.034C290.606 50.3546 293.908 53.403 298.989 53.403C302.863 53.403 304.832 51.3072 305.784 48.3223H314.04C312.58 55.2447 307.88 60.5159 298.926 60.5159C288.066 60.5159 282.096 53.2124 282.096 43.2416C282.096 32.7628 288.574 25.9674 298.799 25.9674C306.547 25.9674 314.612 30.6035 314.612 42.7971ZM290.352 39.6852H306.483C306.165 35.6207 303.752 32.5723 299.053 32.5723C293.527 32.5723 291.178 35.6842 290.352 39.6852ZM331.057 21.3948C327.628 21.3948 327.564 21.6488 327.564 25.3323V26.4755H336.709V33.5884H327.564V60.0078H319.435V33.5884H314.355V26.4755H319.435V24.5702C319.435 16.5047 322.611 14.2819 329.342 14.2819H336.709V21.3948H331.057ZM350.565 60.5159C343.325 60.5159 338.498 55.8163 338.498 46.29V26.4755H346.627V43.4957C346.627 51.0532 348.596 53.1489 352.851 53.1489C357.551 53.1489 361.869 47.8777 361.869 40.1297V26.4755H369.998V60.0078H361.869V57.912C361.869 55.8798 362.314 54.6731 362.885 53.3394C363.139 52.7679 363.52 51.8788 362.695 51.6882C362.187 51.5612 361.996 51.9423 361.742 52.4503C360.091 55.7528 356.407 60.5159 350.565 60.5159ZM375.332 14.2819H383.461V60.0078H375.332V14.2819Z" fill="#2B2B2B"/>
<path d="M435.29 22.919H412.427V34.0965H431.226V41.2094H412.427V52.3868H435.29V60.0078H403.79V15.298H435.29V22.919ZM459.538 25.9674C466.778 25.9674 471.604 30.667 471.604 40.1932V60.0078H463.475V42.9876C463.475 35.4301 461.506 33.3344 457.251 33.3344C452.552 33.3344 448.233 38.6055 448.233 46.3535V60.0078H440.104V26.4755H448.233V28.5712C448.233 30.6035 447.852 31.8102 447.217 33.1438C446.963 33.7154 446.582 34.6045 447.408 34.795C447.916 34.9221 448.106 34.541 448.36 34.0329C449.884 30.667 453.695 25.9674 459.538 25.9674ZM506.902 42.7971C506.902 43.6862 506.838 44.3213 506.711 45.2739H482.324C482.896 50.3546 486.198 53.403 491.279 53.403C495.153 53.403 497.122 51.3072 498.074 48.3223H506.33C504.87 55.2447 500.17 60.5159 491.215 60.5159C480.355 60.5159 474.386 53.2124 474.386 43.2416C474.386 32.7628 480.864 25.9674 491.088 25.9674C498.836 25.9674 506.902 30.6035 506.902 42.7971ZM482.642 39.6852H498.773C498.455 35.6207 496.042 32.5723 491.342 32.5723C485.817 32.5723 483.467 35.6842 482.642 39.6852ZM517.187 33.6519C517.568 33.7154 517.885 33.2073 517.949 33.0168C519.981 28.3807 521.823 25.9674 530.015 25.9674V34.2235C520.553 33.5884 517.822 36.9543 517.822 45.4644V60.0078H509.693V26.4755H517.822V28.3172C517.822 29.7779 517.441 31.0481 516.869 32.1912C516.615 32.7628 516.425 33.5249 517.187 33.6519ZM530.268 42.4795C530.268 33.4614 536.174 25.9674 544.875 25.9674C550.083 25.9674 553.321 28.5712 555.481 32.0642C555.544 32.1912 555.925 33.0168 556.497 32.7628C557.132 32.5088 556.687 31.6831 556.37 31.0481C555.862 30.0954 555.671 29.2063 555.671 27.9997V26.4755H563.8V56.4514C563.8 67.1842 557.513 72.7095 547.225 72.7095C536.682 72.7095 531.856 67.0572 531.284 60.7699H539.286C539.667 63.8183 541.699 66.1046 547.098 66.1046C552.813 66.1046 555.671 62.9292 555.671 56.7689C555.671 55.6257 555.862 54.7366 556.37 53.784C556.687 53.1489 557.132 52.5138 556.497 52.1963C555.925 51.9423 555.608 52.5138 555.481 52.7679C553.321 56.4514 549.956 58.9917 544.875 58.9917C536.174 58.9917 530.268 51.4977 530.268 42.4795ZM546.78 51.6247C552.115 51.6247 555.671 47.4332 555.671 42.4795C555.671 37.5259 552.115 33.3344 546.78 33.3344C541.064 33.3344 538.397 37.5259 538.397 42.4795C538.397 47.4332 541.064 51.6247 546.78 51.6247ZM565.604 26.4755H574.241L581.735 48.1318C582.179 49.4654 582.243 50.6721 582.243 51.9423C582.243 52.3868 582.306 53.0219 583.005 53.0219C583.704 53.0219 583.767 52.4503 583.767 51.9423C583.767 50.7356 583.894 49.4654 584.339 48.1318L591.515 26.4755H600.152L585.926 63.8818C583.64 69.8516 580.465 72.2014 574.622 72.2014H568.525V65.0885H571.32C576.146 65.0885 577.099 65.0885 577.988 62.4846L578.687 60.4524L565.604 26.4755Z" fill="#2B2B2B" fill-opacity="0.7"/>
</svg>
