<svg width="100" height="100" viewBox="0 0 100 100" fill="none" xmlns="http://www.w3.org/2000/svg">
<g clip-path="url(#clip0_1_6)">
<path d="M92.634 74.921C73.829 61.847 61.733 54.643 85.012 59.634C62.452 52.012 76.533 51.926 99.375 50C76.533 48.074 62.452 47.988 85.012 40.367C61.733 45.358 73.829 38.154 92.634 25.08C72.011 35.052 59.81 42.065 75.682 24.32C57.937 40.191 64.949 27.988 74.921 7.366C61.847 26.17 54.643 38.267 59.635 14.988C52.012 37.547 51.927 23.467 50 0.625C48.074 23.467 47.988 37.547 40.367 14.988C45.358 38.266 38.154 26.171 25.08 7.365C35.052 27.987 42.065 40.19 24.32 24.319C40.191 42.064 27.988 35.051 7.366 25.079C26.171 38.153 38.267 45.357 14.989 40.366C37.547 47.988 23.467 48.074 0.625 50C23.467 51.926 37.547 52.012 14.988 59.634C38.266 54.643 26.17 61.847 7.365 74.921C27.987 64.948 40.19 57.937 24.319 75.682C42.064 59.81 35.051 72.011 25.079 92.634C38.153 73.829 45.357 61.733 40.366 85.012C47.988 62.452 48.073 76.533 49.999 99.375C51.926 76.533 52.011 62.452 59.634 85.012C54.642 61.733 61.846 73.829 74.92 92.634C64.947 72.014 57.936 59.81 75.681 75.682C59.81 57.937 72.014 64.948 92.634 74.921ZM50 66C41.164 66 34 58.837 34 50C34 41.164 41.164 34 50 34C58.837 34 66 41.164 66 50C66 58.837 58.837 66 50 66Z" fill="#14E899"/>
</g>
<defs>
<clipPath id="clip0_1_6">
<rect width="100" height="100" fill="white"/>
</clipPath>
</defs>
</svg>
