<svg xmlns="http://www.w3.org/2000/svg" xmlns:xlink="http://www.w3.org/1999/xlink" width="3000" zoomAndPan="magnify" viewBox="0 0 2250 749.999995" height="1000" preserveAspectRatio="xMidYMid meet" version="1.0"><defs><g/></defs><rect x="-225" width="2700" fill="#ffffff" y="-74.999999" height="899.999994" fill-opacity="1"/><rect x="-225" width="2700" fill="#ffffff" y="-74.999999" height="899.999994" fill-opacity="1"/><path fill="#00bf63" d="M 699.445312 565.699219 C 557.457031 466.984375 466.121094 412.589844 641.894531 450.273438 C 471.550781 392.722656 577.871094 392.074219 750.34375 377.53125 C 577.871094 362.988281 471.550781 362.339844 641.894531 304.796875 C 466.121094 342.480469 557.457031 288.085938 699.445312 189.371094 C 543.726562 264.664062 451.601562 317.617188 571.445312 183.632812 C 437.460938 303.46875 490.40625 211.328125 565.699219 55.617188 C 466.984375 197.601562 412.589844 288.941406 450.28125 113.167969 C 392.722656 283.503906 392.082031 177.191406 377.53125 4.71875 C 362.988281 177.191406 362.339844 283.503906 304.796875 113.167969 C 342.480469 288.933594 288.085938 197.605469 189.371094 55.609375 C 264.664062 211.320312 317.617188 303.460938 183.632812 183.625 C 303.46875 317.609375 211.328125 264.65625 55.617188 189.363281 C 197.605469 288.078125 288.941406 342.472656 113.175781 304.789062 C 283.503906 362.339844 177.191406 362.988281 4.71875 377.53125 C 177.191406 392.074219 283.503906 392.722656 113.167969 450.273438 C 288.933594 412.589844 197.601562 466.984375 55.609375 565.699219 C 211.320312 490.398438 303.460938 437.460938 183.625 571.445312 C 317.609375 451.601562 264.65625 543.726562 189.363281 699.445312 C 288.078125 557.457031 342.472656 466.121094 304.789062 641.894531 C 362.339844 471.550781 362.980469 577.871094 377.523438 750.34375 C 392.074219 577.871094 392.714844 471.550781 450.273438 641.894531 C 412.582031 466.121094 466.976562 557.457031 565.691406 699.445312 C 490.390625 543.75 437.453125 451.601562 571.4375 571.445312 C 451.601562 437.460938 543.75 490.398438 699.445312 565.699219 Z M 377.53125 498.339844 C 310.8125 498.339844 256.722656 444.257812 256.722656 377.53125 C 256.722656 310.8125 310.8125 256.722656 377.53125 256.722656 C 444.257812 256.722656 498.339844 310.8125 498.339844 377.53125 C 498.339844 444.257812 444.257812 498.339844 377.53125 498.339844 Z M 377.53125 498.339844 " fill-opacity="1" fill-rule="nonzero"/><g fill="#112532" fill-opacity="1"><g transform="translate(799.423151, 508.882502)"><g><path d="M 120.082031 4.386719 C 175.535156 4.386719 211.839844 -25.929688 211.839844 -72.210938 C 211.839844 -120.480469 168.753906 -136.042969 119.285156 -152.398438 C 79.390625 -165.5625 51.066406 -175.9375 51.066406 -209.449219 C 51.066406 -240.566406 75.402344 -263.304688 114.097656 -263.304688 C 153.992188 -263.304688 175.535156 -240.167969 185.910156 -215.03125 L 203.863281 -225.007812 C 190.296875 -257.320312 159.976562 -283.652344 114.097656 -283.652344 C 66.625 -283.652344 29.523438 -254.527344 29.523438 -208.648438 C 29.523438 -159.976562 71.410156 -146.8125 118.089844 -131.652344 C 160.777344 -118.089844 190.296875 -105.320312 190.296875 -71.8125 C 190.296875 -39.894531 166.761719 -15.957031 120.082031 -15.957031 C 74.203125 -15.957031 45.878906 -38.699219 36.304688 -72.210938 L 17.953125 -61.4375 C 30.71875 -21.941406 67.820312 4.386719 120.082031 4.386719 Z M 120.082031 4.386719 "/></g></g></g><g fill="#112532" fill-opacity="1"><g transform="translate(1028.41857, 508.882502)"><g><path d="M 211.042969 0 L 235.378906 0 L 165.960938 -117.289062 C 201.46875 -126.867188 227.398438 -158.78125 227.398438 -196.679688 C 227.398438 -242.160156 190.296875 -279.261719 144.816406 -279.261719 L 34.707031 -279.261719 L 34.707031 0 L 55.851562 0 L 55.851562 -114.496094 L 144.019531 -114.496094 Z M 55.851562 -259.316406 L 144.816406 -259.316406 C 178.726562 -259.316406 206.253906 -231.390625 206.253906 -196.679688 C 206.253906 -162.371094 178.726562 -134.445312 144.816406 -134.445312 L 55.851562 -134.445312 Z M 55.851562 -259.316406 "/></g></g></g><g fill="#112532" fill-opacity="1"><g transform="translate(1272.972963, 508.882502)"><g><path d="M 163.96875 4.386719 C 216.230469 4.386719 261.710938 -22.738281 284.449219 -63.832031 L 265.699219 -74.601562 C 247.347656 -39.496094 208.25 -15.957031 163.96875 -15.957031 C 90.5625 -15.957031 39.894531 -71.011719 39.894531 -139.632812 C 39.894531 -208.25 90.5625 -263.304688 163.96875 -263.304688 C 207.851562 -263.304688 246.550781 -240.167969 264.902344 -205.855469 L 283.652344 -216.628906 C 260.511719 -257.320312 215.433594 -283.652344 163.96875 -283.652344 C 78.992188 -283.652344 18.75 -219.421875 18.75 -139.632812 C 18.75 -59.84375 78.992188 4.386719 163.96875 4.386719 Z M 163.96875 4.386719 "/></g></g></g><g fill="#112532" fill-opacity="1"><g transform="translate(1572.582018, 508.882502)"><g><path d="M 189.5 -259.316406 L 189.5 -279.261719 L 34.707031 -279.261719 L 34.707031 0 L 55.851562 0 L 55.851562 -127.664062 L 184.710938 -127.664062 L 184.710938 -147.609375 L 55.851562 -147.609375 L 55.851562 -259.316406 Z M 189.5 -259.316406 "/></g></g></g><g fill="#112532" fill-opacity="1"><g transform="translate(1779.236491, 508.882502)"><g><path d="M 132.847656 4.386719 C 194.289062 4.386719 235.378906 -34.308594 235.378906 -93.355469 L 235.378906 -279.261719 L 214.234375 -279.261719 L 214.234375 -93.355469 C 214.234375 -47.875 185.910156 -15.957031 132.847656 -15.957031 C 80.1875 -15.957031 51.863281 -47.875 51.863281 -93.355469 L 51.863281 -279.261719 L 30.71875 -279.261719 L 30.71875 -93.355469 C 30.71875 -34.308594 71.410156 4.386719 132.847656 4.386719 Z M 132.847656 4.386719 "/></g></g></g><g fill="#112532" fill-opacity="1"><g transform="translate(2045.33404, 508.882502)"><g><path d="M 55.851562 -19.949219 L 55.851562 -279.261719 L 34.707031 -279.261719 L 34.707031 0 L 187.503906 0 L 187.503906 -19.949219 Z M 55.851562 -19.949219 "/></g></g></g></svg>