<svg xmlns="http://www.w3.org/2000/svg" xmlns:xlink="http://www.w3.org/1999/xlink" width="3000" zoomAndPan="magnify" viewBox="0 0 2250 749.999995" height="1000" preserveAspectRatio="xMidYMid meet" version="1.0"><defs><g/></defs><rect x="-225" width="2700" fill="#ffffff" y="-74.999999" height="899.999994" fill-opacity="1"/><rect x="-225" width="2700" fill="#112532" y="-74.999999" height="899.999994" fill-opacity="1"/><path fill="#ad9024" d="M 699.617188 565.839844 C 557.59375 467.097656 466.238281 412.691406 642.054688 450.386719 C 471.667969 392.820312 578.015625 392.171875 750.53125 377.625 C 578.015625 363.078125 471.667969 362.429688 642.054688 304.871094 C 466.238281 342.566406 557.59375 288.15625 699.617188 189.417969 C 543.863281 264.730469 451.714844 317.695312 571.589844 183.675781 C 437.570312 303.542969 490.527344 211.378906 565.839844 55.632812 C 467.097656 197.648438 412.691406 289.011719 450.394531 113.195312 C 392.820312 283.574219 392.179688 177.234375 377.625 4.71875 C 363.078125 177.234375 362.429688 283.574219 304.871094 113.195312 C 342.566406 289.003906 288.15625 197.65625 189.417969 55.625 C 264.730469 211.371094 317.695312 303.535156 183.675781 183.667969 C 303.542969 317.6875 211.378906 264.722656 55.632812 189.410156 C 197.65625 288.152344 289.011719 342.558594 113.203125 304.863281 C 283.574219 362.429688 177.234375 363.078125 4.71875 377.625 C 177.234375 392.171875 283.574219 392.820312 113.195312 450.386719 C 289.003906 412.691406 197.648438 467.097656 55.625 565.839844 C 211.371094 490.519531 303.535156 437.570312 183.667969 571.589844 C 317.6875 451.714844 264.722656 543.863281 189.410156 699.617188 C 288.152344 557.59375 342.558594 466.238281 304.863281 642.054688 C 362.429688 471.667969 363.070312 578.015625 377.617188 750.53125 C 392.171875 578.015625 392.8125 471.667969 450.386719 642.054688 C 412.683594 466.238281 467.09375 557.59375 565.832031 699.617188 C 490.511719 543.886719 437.5625 451.714844 571.582031 571.589844 C 451.714844 437.570312 543.886719 490.519531 699.617188 565.839844 Z M 377.625 498.464844 C 310.890625 498.464844 256.785156 444.367188 256.785156 377.625 C 256.785156 310.890625 310.890625 256.785156 377.625 256.785156 C 444.367188 256.785156 498.464844 310.890625 498.464844 377.625 C 498.464844 444.367188 444.367188 498.464844 377.625 498.464844 Z M 377.625 498.464844 " fill-opacity="1" fill-rule="nonzero"/><g fill="#ffffff" fill-opacity="1"><g transform="translate(799.423151, 508.882495)"><g><path d="M 120.082031 4.386719 C 175.535156 4.386719 211.839844 -25.929688 211.839844 -72.210938 C 211.839844 -120.480469 168.753906 -136.042969 119.285156 -152.398438 C 79.390625 -165.5625 51.066406 -175.9375 51.066406 -209.449219 C 51.066406 -240.566406 75.402344 -263.304688 114.097656 -263.304688 C 153.992188 -263.304688 175.535156 -240.167969 185.910156 -215.03125 L 203.863281 -225.007812 C 190.296875 -257.320312 159.976562 -283.652344 114.097656 -283.652344 C 66.625 -283.652344 29.523438 -254.527344 29.523438 -208.648438 C 29.523438 -159.976562 71.410156 -146.8125 118.089844 -131.652344 C 160.777344 -118.089844 190.296875 -105.320312 190.296875 -71.8125 C 190.296875 -39.894531 166.761719 -15.957031 120.082031 -15.957031 C 74.203125 -15.957031 45.878906 -38.699219 36.304688 -72.210938 L 17.953125 -61.4375 C 30.71875 -21.941406 67.820312 4.386719 120.082031 4.386719 Z M 120.082031 4.386719 "/></g></g></g><g fill="#ffffff" fill-opacity="1"><g transform="translate(1028.41857, 508.882495)"><g><path d="M 211.042969 0 L 235.378906 0 L 165.960938 -117.289062 C 201.46875 -126.867188 227.398438 -158.78125 227.398438 -196.679688 C 227.398438 -242.160156 190.296875 -279.261719 144.816406 -279.261719 L 34.707031 -279.261719 L 34.707031 0 L 55.851562 0 L 55.851562 -114.496094 L 144.019531 -114.496094 Z M 55.851562 -259.316406 L 144.816406 -259.316406 C 178.726562 -259.316406 206.253906 -231.390625 206.253906 -196.679688 C 206.253906 -162.371094 178.726562 -134.445312 144.816406 -134.445312 L 55.851562 -134.445312 Z M 55.851562 -259.316406 "/></g></g></g><g fill="#ffffff" fill-opacity="1"><g transform="translate(1272.972963, 508.882495)"><g><path d="M 163.96875 4.386719 C 216.230469 4.386719 261.710938 -22.738281 284.449219 -63.832031 L 265.699219 -74.601562 C 247.347656 -39.496094 208.25 -15.957031 163.96875 -15.957031 C 90.5625 -15.957031 39.894531 -71.011719 39.894531 -139.632812 C 39.894531 -208.25 90.5625 -263.304688 163.96875 -263.304688 C 207.851562 -263.304688 246.550781 -240.167969 264.902344 -205.855469 L 283.652344 -216.628906 C 260.511719 -257.320312 215.433594 -283.652344 163.96875 -283.652344 C 78.992188 -283.652344 18.75 -219.421875 18.75 -139.632812 C 18.75 -59.84375 78.992188 4.386719 163.96875 4.386719 Z M 163.96875 4.386719 "/></g></g></g><g fill="#ffffff" fill-opacity="1"><g transform="translate(1572.582018, 508.882495)"><g><path d="M 189.5 -259.316406 L 189.5 -279.261719 L 34.707031 -279.261719 L 34.707031 0 L 55.851562 0 L 55.851562 -127.664062 L 184.710938 -127.664062 L 184.710938 -147.609375 L 55.851562 -147.609375 L 55.851562 -259.316406 Z M 189.5 -259.316406 "/></g></g></g><g fill="#ffffff" fill-opacity="1"><g transform="translate(1779.236491, 508.882495)"><g><path d="M 132.847656 4.386719 C 194.289062 4.386719 235.378906 -34.308594 235.378906 -93.355469 L 235.378906 -279.261719 L 214.234375 -279.261719 L 214.234375 -93.355469 C 214.234375 -47.875 185.910156 -15.957031 132.847656 -15.957031 C 80.1875 -15.957031 51.863281 -47.875 51.863281 -93.355469 L 51.863281 -279.261719 L 30.71875 -279.261719 L 30.71875 -93.355469 C 30.71875 -34.308594 71.410156 4.386719 132.847656 4.386719 Z M 132.847656 4.386719 "/></g></g></g><g fill="#ffffff" fill-opacity="1"><g transform="translate(2045.33404, 508.882495)"><g><path d="M 55.851562 -19.949219 L 55.851562 -279.261719 L 34.707031 -279.261719 L 34.707031 0 L 187.503906 0 L 187.503906 -19.949219 Z M 55.851562 -19.949219 "/></g></g></g></svg>