<svg width="1295" height="600" viewBox="0 0 1295 600" fill="none" xmlns="http://www.w3.org/2000/svg">
<g filter="url(#filter0_d_28_2)">
<path d="M314 50C361.44 50 407.901 63.4982 447.957 88.918C488.012 114.338 520.008 150.63 540.207 193.555C560.406 236.48 567.975 284.267 562.029 331.333C556.083 378.4 536.868 422.803 506.628 459.356L314 300L314 50Z" fill="#633EBB"/>
</g>
<g filter="url(#filter1_d_28_2)">
<path d="M506.628 459.356C476.389 495.909 436.373 523.104 391.254 537.764C346.136 552.424 297.778 553.944 251.828 542.146C205.878 530.348 164.233 505.719 131.758 471.137C99.2828 436.554 77.3178 393.446 68.4283 346.846L314 300L506.628 459.356Z" fill="#BC6CCA"/>
</g>
<path d="M68.4282 346.845C58.5354 294.986 65.3143 241.325 87.7932 193.555C110.272 145.785 147.297 106.357 193.562 80.9234L314 300L68.4282 346.845Z" fill="#F2B360"/>
<path d="M193.562 80.9234C230.463 60.6368 271.89 50 314 50L314 300L193.562 80.9234Z" fill="#F13C59"/>
<rect x="730" y="105" width="50" height="40" fill="#633EBB"/>
<rect x="730" y="222" width="50" height="40" fill="#BC6CCA"/>
<rect x="730" y="339" width="50" height="40" fill="#F2B360"/>
<rect x="730" y="455" width="50" height="40" fill="#F13C59"/>
<path d="M805.864 132.264C803.336 132.264 801.248 131.432 799.6 129.768C797.952 128.088 797.128 126.032 797.128 123.6C797.128 121.168 797.952 119.12 799.6 117.456C801.248 115.776 803.336 114.936 805.864 114.936C807.4 114.936 808.808 115.304 810.088 116.04C811.368 116.76 812.36 117.736 813.064 118.968L811.936 119.616C811.376 118.576 810.552 117.744 809.464 117.12C808.376 116.48 807.176 116.16 805.864 116.16C803.688 116.16 801.896 116.88 800.488 118.32C799.096 119.744 798.4 121.504 798.4 123.6C798.4 125.696 799.096 127.464 800.488 128.904C801.896 130.328 803.688 131.04 805.864 131.04C807.176 131.04 808.384 130.72 809.488 130.08C810.592 129.44 811.424 128.584 811.984 127.512L813.112 128.16C812.424 129.408 811.432 130.408 810.136 131.16C808.84 131.896 807.416 132.264 805.864 132.264ZM821.25 132.264C819.49 132.264 817.994 131.664 816.762 130.464C815.546 129.248 814.938 127.76 814.938 126C814.938 124.24 815.546 122.76 816.762 121.56C817.994 120.344 819.49 119.736 821.25 119.736C822.994 119.736 824.474 120.344 825.69 121.56C826.922 122.76 827.538 124.24 827.538 126C827.538 127.76 826.922 129.248 825.69 130.464C824.474 131.664 822.994 132.264 821.25 132.264ZM817.626 129.624C818.618 130.616 819.826 131.112 821.25 131.112C822.674 131.112 823.874 130.616 824.85 129.624C825.826 128.632 826.314 127.424 826.314 126C826.314 124.576 825.826 123.368 824.85 122.376C823.874 121.384 822.674 120.888 821.25 120.888C819.826 120.888 818.618 121.384 817.626 122.376C816.65 123.368 816.162 124.576 816.162 126C816.162 127.424 816.65 128.632 817.626 129.624ZM843.242 119.736C844.554 119.736 845.61 120.144 846.41 120.96C847.21 121.776 847.61 122.92 847.61 124.392V132H846.41V124.392C846.41 123.272 846.114 122.408 845.522 121.8C844.946 121.192 844.178 120.888 843.218 120.888C842.146 120.888 841.274 121.256 840.602 121.992C839.946 122.728 839.618 123.832 839.618 125.304V132H838.418V124.392C838.418 123.272 838.138 122.408 837.578 121.8C837.034 121.192 836.29 120.888 835.346 120.888C834.29 120.888 833.402 121.264 832.682 122.016C831.978 122.752 831.626 123.848 831.626 125.304V132H830.426V120H831.626V122.064C832.458 120.512 833.746 119.736 835.49 119.736C836.37 119.736 837.138 119.952 837.794 120.384C838.45 120.8 838.93 121.4 839.234 122.184C839.65 121.368 840.21 120.76 840.914 120.36C841.634 119.944 842.41 119.736 843.242 119.736ZM863.82 119.736C865.132 119.736 866.188 120.144 866.988 120.96C867.788 121.776 868.188 122.92 868.188 124.392V132H866.988V124.392C866.988 123.272 866.692 122.408 866.1 121.8C865.524 121.192 864.756 120.888 863.796 120.888C862.724 120.888 861.852 121.256 861.18 121.992C860.524 122.728 860.196 123.832 860.196 125.304V132H858.996V124.392C858.996 123.272 858.716 122.408 858.156 121.8C857.612 121.192 856.868 120.888 855.924 120.888C854.868 120.888 853.98 121.264 853.26 122.016C852.556 122.752 852.204 123.848 852.204 125.304V132H851.004V120H852.204V122.064C853.036 120.512 854.324 119.736 856.068 119.736C856.948 119.736 857.716 119.952 858.372 120.384C859.028 120.8 859.508 121.4 859.812 122.184C860.228 121.368 860.788 120.76 861.492 120.36C862.212 119.944 862.988 119.736 863.82 119.736ZM880.222 120H881.422V132H880.222V129.72C879.358 131.416 877.926 132.264 875.926 132.264C874.502 132.264 873.366 131.832 872.518 130.968C871.686 130.088 871.27 128.92 871.27 127.464V120H872.494V127.464C872.494 128.584 872.798 129.472 873.406 130.128C874.03 130.784 874.902 131.112 876.022 131.112C877.254 131.112 878.262 130.704 879.046 129.888C879.83 129.072 880.222 127.888 880.222 126.336V120ZM890.625 119.736C892.049 119.736 893.177 120.176 894.009 121.056C894.857 121.92 895.281 123.08 895.281 124.536V132H894.057V124.536C894.057 123.416 893.745 122.528 893.121 121.872C892.513 121.216 891.649 120.888 890.529 120.888C889.297 120.888 888.289 121.296 887.505 122.112C886.721 122.928 886.329 124.112 886.329 125.664V132H885.129V120H886.329V122.28C887.193 120.584 888.625 119.736 890.625 119.736ZM899.948 116.832C899.756 117.008 899.532 117.096 899.276 117.096C899.02 117.096 898.796 117.008 898.604 116.832C898.412 116.64 898.316 116.408 898.316 116.136C898.316 115.88 898.412 115.664 898.604 115.488C898.796 115.296 899.02 115.2 899.276 115.2C899.532 115.2 899.756 115.296 899.948 115.488C900.14 115.664 900.236 115.88 900.236 116.136C900.236 116.408 900.14 116.64 899.948 116.832ZM898.676 132V120H899.876V132H898.676ZM909.719 121.176H906.143V128.976C906.143 129.664 906.271 130.16 906.527 130.464C906.783 130.768 907.175 130.944 907.703 130.992C908.231 131.024 908.903 131 909.719 130.92V132C908.103 132.24 906.895 132.128 906.095 131.664C905.311 131.2 904.919 130.304 904.919 128.976V121.176H902.279V120H904.919V117L906.143 116.64V120H909.719V121.176ZM921.616 120H922.912L917.728 133.104C917.264 134.288 916.608 135.216 915.76 135.888C914.912 136.576 913.984 136.88 912.976 136.8V135.672C913.744 135.736 914.432 135.512 915.04 135C915.664 134.504 916.168 133.792 916.552 132.864L916.816 132.216L911.296 120H912.592L917.44 130.68L921.616 120ZM933.697 134.4C931.937 130.88 931.057 127.28 931.057 123.6C931.057 119.92 931.937 116.32 933.697 112.8H934.921C933.161 116.32 932.281 119.92 932.281 123.6C932.281 127.28 933.161 130.88 934.921 134.4H933.697ZM943.675 115.2C945.179 115.2 946.427 115.696 947.419 116.688C948.411 117.68 948.907 118.92 948.907 120.408C948.907 121.896 948.411 123.136 947.419 124.128C946.427 125.104 945.179 125.592 943.675 125.592H939.235V132H937.963V115.2H943.675ZM943.675 124.392C944.827 124.392 945.771 124.016 946.507 123.264C947.259 122.512 947.635 121.56 947.635 120.408C947.635 119.24 947.259 118.28 946.507 117.528C945.771 116.776 944.827 116.4 943.675 116.4H939.235V124.392H943.675ZM952.775 122.352C953.495 120.672 954.831 119.832 956.783 119.832V120.984C955.647 120.984 954.695 121.352 953.927 122.088C953.159 122.808 952.775 123.888 952.775 125.328V132H951.575V120H952.775V122.352ZM963.985 132.264C962.225 132.264 960.729 131.664 959.497 130.464C958.281 129.248 957.673 127.76 957.673 126C957.673 124.24 958.281 122.76 959.497 121.56C960.729 120.344 962.225 119.736 963.985 119.736C965.729 119.736 967.209 120.344 968.425 121.56C969.657 122.76 970.273 124.24 970.273 126C970.273 127.76 969.657 129.248 968.425 130.464C967.209 131.664 965.729 132.264 963.985 132.264ZM960.361 129.624C961.353 130.616 962.561 131.112 963.985 131.112C965.409 131.112 966.609 130.616 967.585 129.624C968.561 128.632 969.049 127.424 969.049 126C969.049 124.576 968.561 123.368 967.585 122.376C966.609 121.384 965.409 120.888 963.985 120.888C962.561 120.888 961.353 121.384 960.361 122.376C959.385 123.368 958.897 124.576 958.897 126C958.897 127.424 959.385 128.632 960.361 129.624ZM978.657 132.264C976.897 132.264 975.401 131.664 974.169 130.464C972.953 129.248 972.345 127.76 972.345 126C972.345 124.24 972.953 122.76 974.169 121.56C975.401 120.344 976.897 119.736 978.657 119.736C980.401 119.736 981.881 120.344 983.097 121.56C984.329 122.76 984.945 124.24 984.945 126C984.945 127.76 984.329 129.248 983.097 130.464C981.881 131.664 980.401 132.264 978.657 132.264ZM975.033 129.624C976.025 130.616 977.233 131.112 978.657 131.112C980.081 131.112 981.281 130.616 982.257 129.624C983.233 128.632 983.721 127.424 983.721 126C983.721 124.576 983.233 123.368 982.257 122.376C981.281 121.384 980.081 120.888 978.657 120.888C977.233 120.888 976.025 121.384 975.033 122.376C974.057 123.368 973.569 124.576 973.569 126C973.569 127.424 974.057 128.632 975.033 129.624ZM993.028 116.088C990.644 115.896 989.452 116.984 989.452 119.352V120H993.028V121.176H989.452V132H988.228V121.176H986.164V120H988.228V119.352C988.228 117.848 988.636 116.712 989.452 115.944C990.284 115.16 991.476 114.824 993.028 114.936V116.088ZM994.893 125.16V124.008H1003.53V125.16H994.893ZM1012.95 132.264C1011.19 132.264 1009.69 131.664 1008.46 130.464C1007.24 129.248 1006.63 127.76 1006.63 126C1006.63 124.24 1007.24 122.76 1008.46 121.56C1009.69 120.344 1011.19 119.736 1012.95 119.736C1014.69 119.736 1016.17 120.344 1017.39 121.56C1018.62 122.76 1019.23 124.24 1019.23 126C1019.23 127.76 1018.62 129.248 1017.39 130.464C1016.17 131.664 1014.69 132.264 1012.95 132.264ZM1009.32 129.624C1010.31 130.616 1011.52 131.112 1012.95 131.112C1014.37 131.112 1015.57 130.616 1016.55 129.624C1017.52 128.632 1018.01 127.424 1018.01 126C1018.01 124.576 1017.52 123.368 1016.55 122.376C1015.57 121.384 1014.37 120.888 1012.95 120.888C1011.52 120.888 1010.31 121.384 1009.32 122.376C1008.35 123.368 1007.86 124.576 1007.86 126C1007.86 127.424 1008.35 128.632 1009.32 129.624ZM1027.32 116.088C1024.93 115.896 1023.74 116.984 1023.74 119.352V120H1027.32V121.176H1023.74V132H1022.52V121.176H1020.45V120H1022.52V119.352C1022.52 117.848 1022.92 116.712 1023.74 115.944C1024.57 115.16 1025.76 114.824 1027.32 114.936V116.088ZM1029.18 125.16V124.008H1037.82V125.16H1029.18ZM1046.88 132.264C1045.33 132.264 1044.01 131.912 1042.92 131.208C1041.85 130.488 1041.12 129.52 1040.74 128.304L1041.84 127.656C1042.14 128.696 1042.72 129.52 1043.57 130.128C1044.43 130.736 1045.54 131.04 1046.88 131.04C1048.24 131.04 1049.28 130.728 1050 130.104C1050.74 129.48 1051.1 128.672 1051.1 127.68C1051.1 126.752 1050.75 126.04 1050.05 125.544C1049.34 125.048 1048.25 124.56 1046.76 124.08C1046.22 123.904 1045.82 123.776 1045.56 123.696C1045.32 123.6 1044.97 123.464 1044.5 123.288C1044.04 123.096 1043.7 122.928 1043.47 122.784C1043.25 122.64 1042.98 122.448 1042.66 122.208C1042.35 121.968 1042.13 121.728 1041.98 121.488C1041.84 121.232 1041.71 120.936 1041.6 120.6C1041.49 120.248 1041.43 119.864 1041.43 119.448C1041.43 118.088 1041.91 117 1042.87 116.184C1043.85 115.352 1045.06 114.936 1046.52 114.936C1047.83 114.936 1048.95 115.264 1049.88 115.92C1050.81 116.576 1051.49 117.424 1051.92 118.464L1050.84 119.064C1050.04 117.128 1048.6 116.16 1046.52 116.16C1045.37 116.16 1044.45 116.464 1043.76 117.072C1043.07 117.68 1042.73 118.456 1042.73 119.4C1042.73 120.312 1043.05 120.992 1043.69 121.44C1044.33 121.888 1045.38 122.352 1046.83 122.832C1047.76 123.136 1048.48 123.4 1048.99 123.624C1049.52 123.832 1050.08 124.128 1050.67 124.512C1051.28 124.88 1051.72 125.328 1051.99 125.856C1052.26 126.368 1052.4 126.968 1052.4 127.656C1052.4 129.048 1051.9 130.168 1050.89 131.016C1049.88 131.848 1048.54 132.264 1046.88 132.264ZM1061.11 132.264C1059.35 132.264 1057.85 131.664 1056.62 130.464C1055.41 129.248 1054.8 127.76 1054.8 126C1054.8 124.24 1055.41 122.76 1056.62 121.56C1057.85 120.344 1059.35 119.736 1061.11 119.736C1062.85 119.736 1064.33 120.344 1065.55 121.56C1066.78 122.76 1067.4 124.24 1067.4 126C1067.4 127.76 1066.78 129.248 1065.55 130.464C1064.33 131.664 1062.85 132.264 1061.11 132.264ZM1057.49 129.624C1058.48 130.616 1059.69 131.112 1061.11 131.112C1062.53 131.112 1063.73 130.616 1064.71 129.624C1065.69 128.632 1066.17 127.424 1066.17 126C1066.17 124.576 1065.69 123.368 1064.71 122.376C1063.73 121.384 1062.53 120.888 1061.11 120.888C1059.69 120.888 1058.48 121.384 1057.49 122.376C1056.51 123.368 1056.02 124.576 1056.02 126C1056.02 127.424 1056.51 128.632 1057.49 129.624ZM1078.93 120H1080.13V132H1078.93V129.72C1078.06 131.416 1076.63 132.264 1074.63 132.264C1073.21 132.264 1072.07 131.832 1071.22 130.968C1070.39 130.088 1069.97 128.92 1069.97 127.464V120H1071.2V127.464C1071.2 128.584 1071.5 129.472 1072.11 130.128C1072.73 130.784 1073.61 131.112 1074.73 131.112C1075.96 131.112 1076.97 130.704 1077.75 129.888C1078.53 129.072 1078.93 127.888 1078.93 126.336V120ZM1085.03 122.352C1085.75 120.672 1087.09 119.832 1089.04 119.832V120.984C1087.9 120.984 1086.95 121.352 1086.18 122.088C1085.42 122.808 1085.03 123.888 1085.03 125.328V132H1083.83V120H1085.03V122.352ZM1096.24 132.264C1094.43 132.264 1092.93 131.664 1091.73 130.464C1090.53 129.264 1089.93 127.776 1089.93 126C1089.93 124.224 1090.53 122.736 1091.73 121.536C1092.93 120.336 1094.43 119.736 1096.24 119.736C1097.41 119.736 1098.47 120.016 1099.41 120.576C1100.35 121.12 1101.04 121.864 1101.47 122.808L1100.49 123.384C1100.14 122.616 1099.58 122.008 1098.81 121.56C1098.06 121.112 1097.2 120.888 1096.24 120.888C1094.8 120.888 1093.59 121.384 1092.62 122.376C1091.64 123.352 1091.15 124.56 1091.15 126C1091.15 127.44 1091.64 128.656 1092.62 129.648C1093.59 130.624 1094.8 131.112 1096.24 131.112C1097.2 131.112 1098.06 130.888 1098.81 130.44C1099.58 129.992 1100.16 129.384 1100.56 128.616L1101.57 129.216C1101.09 130.144 1100.37 130.888 1099.41 131.448C1098.47 131.992 1097.41 132.264 1096.24 132.264ZM1109.48 119.736C1111.24 119.736 1112.67 120.36 1113.75 121.608C1114.86 122.856 1115.41 124.336 1115.41 126.048C1115.41 126.112 1115.4 126.208 1115.39 126.336C1115.39 126.464 1115.39 126.56 1115.39 126.624H1104.51C1104.66 127.968 1105.19 129.056 1106.12 129.888C1107.07 130.704 1108.23 131.112 1109.6 131.112C1110.56 131.112 1111.4 130.912 1112.12 130.512C1112.84 130.112 1113.39 129.584 1113.75 128.928L1114.81 129.552C1114.31 130.384 1113.61 131.048 1112.7 131.544C1111.79 132.024 1110.75 132.264 1109.58 132.264C1107.74 132.264 1106.23 131.68 1105.04 130.512C1103.86 129.328 1103.27 127.824 1103.27 126C1103.27 124.208 1103.84 122.72 1104.99 121.536C1106.16 120.336 1107.66 119.736 1109.48 119.736ZM1109.48 120.888C1108.12 120.888 1106.99 121.312 1106.07 122.16C1105.16 123.008 1104.64 124.104 1104.51 125.448H1114.16C1114.03 124.024 1113.52 122.912 1112.63 122.112C1111.75 121.296 1110.7 120.888 1109.48 120.888ZM1118.55 134.4H1117.33C1119.09 130.88 1119.97 127.28 1119.97 123.6C1119.97 119.92 1119.09 116.32 1117.33 112.8H1118.55C1120.31 116.32 1121.19 119.92 1121.19 123.6C1121.19 127.28 1120.31 130.88 1118.55 134.4Z" fill="black"/>
<path d="M805.864 250.264C803.336 250.264 801.248 249.432 799.6 247.768C797.952 246.088 797.128 244.032 797.128 241.6C797.128 239.168 797.952 237.12 799.6 235.456C801.248 233.776 803.336 232.936 805.864 232.936C807.4 232.936 808.808 233.304 810.088 234.04C811.368 234.76 812.36 235.736 813.064 236.968L811.936 237.616C811.376 236.576 810.552 235.744 809.464 235.12C808.376 234.48 807.176 234.16 805.864 234.16C803.688 234.16 801.896 234.88 800.488 236.32C799.096 237.744 798.4 239.504 798.4 241.6C798.4 243.696 799.096 245.464 800.488 246.904C801.896 248.328 803.688 249.04 805.864 249.04C807.176 249.04 808.384 248.72 809.488 248.08C810.592 247.44 811.424 246.584 811.984 245.512L813.112 246.16C812.424 247.408 811.432 248.408 810.136 249.16C808.84 249.896 807.416 250.264 805.864 250.264ZM821.25 250.264C819.49 250.264 817.994 249.664 816.762 248.464C815.546 247.248 814.938 245.76 814.938 244C814.938 242.24 815.546 240.76 816.762 239.56C817.994 238.344 819.49 237.736 821.25 237.736C822.994 237.736 824.474 238.344 825.69 239.56C826.922 240.76 827.538 242.24 827.538 244C827.538 245.76 826.922 247.248 825.69 248.464C824.474 249.664 822.994 250.264 821.25 250.264ZM817.626 247.624C818.618 248.616 819.826 249.112 821.25 249.112C822.674 249.112 823.874 248.616 824.85 247.624C825.826 246.632 826.314 245.424 826.314 244C826.314 242.576 825.826 241.368 824.85 240.376C823.874 239.384 822.674 238.888 821.25 238.888C819.826 238.888 818.618 239.384 817.626 240.376C816.65 241.368 816.162 242.576 816.162 244C816.162 245.424 816.65 246.632 817.626 247.624ZM843.242 237.736C844.554 237.736 845.61 238.144 846.41 238.96C847.21 239.776 847.61 240.92 847.61 242.392V250H846.41V242.392C846.41 241.272 846.114 240.408 845.522 239.8C844.946 239.192 844.178 238.888 843.218 238.888C842.146 238.888 841.274 239.256 840.602 239.992C839.946 240.728 839.618 241.832 839.618 243.304V250H838.418V242.392C838.418 241.272 838.138 240.408 837.578 239.8C837.034 239.192 836.29 238.888 835.346 238.888C834.29 238.888 833.402 239.264 832.682 240.016C831.978 240.752 831.626 241.848 831.626 243.304V250H830.426V238H831.626V240.064C832.458 238.512 833.746 237.736 835.49 237.736C836.37 237.736 837.138 237.952 837.794 238.384C838.45 238.8 838.93 239.4 839.234 240.184C839.65 239.368 840.21 238.76 840.914 238.36C841.634 237.944 842.41 237.736 843.242 237.736ZM863.82 237.736C865.132 237.736 866.188 238.144 866.988 238.96C867.788 239.776 868.188 240.92 868.188 242.392V250H866.988V242.392C866.988 241.272 866.692 240.408 866.1 239.8C865.524 239.192 864.756 238.888 863.796 238.888C862.724 238.888 861.852 239.256 861.18 239.992C860.524 240.728 860.196 241.832 860.196 243.304V250H858.996V242.392C858.996 241.272 858.716 240.408 858.156 239.8C857.612 239.192 856.868 238.888 855.924 238.888C854.868 238.888 853.98 239.264 853.26 240.016C852.556 240.752 852.204 241.848 852.204 243.304V250H851.004V238H852.204V240.064C853.036 238.512 854.324 237.736 856.068 237.736C856.948 237.736 857.716 237.952 858.372 238.384C859.028 238.8 859.508 239.4 859.812 240.184C860.228 239.368 860.788 238.76 861.492 238.36C862.212 237.944 862.988 237.736 863.82 237.736ZM880.222 238H881.422V250H880.222V247.72C879.358 249.416 877.926 250.264 875.926 250.264C874.502 250.264 873.366 249.832 872.518 248.968C871.686 248.088 871.27 246.92 871.27 245.464V238H872.494V245.464C872.494 246.584 872.798 247.472 873.406 248.128C874.03 248.784 874.902 249.112 876.022 249.112C877.254 249.112 878.262 248.704 879.046 247.888C879.83 247.072 880.222 245.888 880.222 244.336V238ZM890.625 237.736C892.049 237.736 893.177 238.176 894.009 239.056C894.857 239.92 895.281 241.08 895.281 242.536V250H894.057V242.536C894.057 241.416 893.745 240.528 893.121 239.872C892.513 239.216 891.649 238.888 890.529 238.888C889.297 238.888 888.289 239.296 887.505 240.112C886.721 240.928 886.329 242.112 886.329 243.664V250H885.129V238H886.329V240.28C887.193 238.584 888.625 237.736 890.625 237.736ZM899.948 234.832C899.756 235.008 899.532 235.096 899.276 235.096C899.02 235.096 898.796 235.008 898.604 234.832C898.412 234.64 898.316 234.408 898.316 234.136C898.316 233.88 898.412 233.664 898.604 233.488C898.796 233.296 899.02 233.2 899.276 233.2C899.532 233.2 899.756 233.296 899.948 233.488C900.14 233.664 900.236 233.88 900.236 234.136C900.236 234.408 900.14 234.64 899.948 234.832ZM898.676 250V238H899.876V250H898.676ZM909.719 239.176H906.143V246.976C906.143 247.664 906.271 248.16 906.527 248.464C906.783 248.768 907.175 248.944 907.703 248.992C908.231 249.024 908.903 249 909.719 248.92V250C908.103 250.24 906.895 250.128 906.095 249.664C905.311 249.2 904.919 248.304 904.919 246.976V239.176H902.279V238H904.919V235L906.143 234.64V238H909.719V239.176ZM921.616 238H922.912L917.728 251.104C917.264 252.288 916.608 253.216 915.76 253.888C914.912 254.576 913.984 254.88 912.976 254.8V253.672C913.744 253.736 914.432 253.512 915.04 253C915.664 252.504 916.168 251.792 916.552 250.864L916.816 250.216L911.296 238H912.592L917.44 248.68L921.616 238ZM933.697 252.4C931.937 248.88 931.057 245.28 931.057 241.6C931.057 237.92 931.937 234.32 933.697 230.8H934.921C933.161 234.32 932.281 237.92 932.281 241.6C932.281 245.28 933.161 248.88 934.921 252.4H933.697ZM943.675 233.2C945.179 233.2 946.427 233.696 947.419 234.688C948.411 235.68 948.907 236.92 948.907 238.408C948.907 239.896 948.411 241.136 947.419 242.128C946.427 243.104 945.179 243.592 943.675 243.592H939.235V250H937.963V233.2H943.675ZM943.675 242.392C944.827 242.392 945.771 242.016 946.507 241.264C947.259 240.512 947.635 239.56 947.635 238.408C947.635 237.24 947.259 236.28 946.507 235.528C945.771 234.776 944.827 234.4 943.675 234.4H939.235V242.392H943.675ZM952.775 240.352C953.495 238.672 954.831 237.832 956.783 237.832V238.984C955.647 238.984 954.695 239.352 953.927 240.088C953.159 240.808 952.775 241.888 952.775 243.328V250H951.575V238H952.775V240.352ZM963.985 250.264C962.225 250.264 960.729 249.664 959.497 248.464C958.281 247.248 957.673 245.76 957.673 244C957.673 242.24 958.281 240.76 959.497 239.56C960.729 238.344 962.225 237.736 963.985 237.736C965.729 237.736 967.209 238.344 968.425 239.56C969.657 240.76 970.273 242.24 970.273 244C970.273 245.76 969.657 247.248 968.425 248.464C967.209 249.664 965.729 250.264 963.985 250.264ZM960.361 247.624C961.353 248.616 962.561 249.112 963.985 249.112C965.409 249.112 966.609 248.616 967.585 247.624C968.561 246.632 969.049 245.424 969.049 244C969.049 242.576 968.561 241.368 967.585 240.376C966.609 239.384 965.409 238.888 963.985 238.888C962.561 238.888 961.353 239.384 960.361 240.376C959.385 241.368 958.897 242.576 958.897 244C958.897 245.424 959.385 246.632 960.361 247.624ZM978.657 250.264C976.897 250.264 975.401 249.664 974.169 248.464C972.953 247.248 972.345 245.76 972.345 244C972.345 242.24 972.953 240.76 974.169 239.56C975.401 238.344 976.897 237.736 978.657 237.736C980.401 237.736 981.881 238.344 983.097 239.56C984.329 240.76 984.945 242.24 984.945 244C984.945 245.76 984.329 247.248 983.097 248.464C981.881 249.664 980.401 250.264 978.657 250.264ZM975.033 247.624C976.025 248.616 977.233 249.112 978.657 249.112C980.081 249.112 981.281 248.616 982.257 247.624C983.233 246.632 983.721 245.424 983.721 244C983.721 242.576 983.233 241.368 982.257 240.376C981.281 239.384 980.081 238.888 978.657 238.888C977.233 238.888 976.025 239.384 975.033 240.376C974.057 241.368 973.569 242.576 973.569 244C973.569 245.424 974.057 246.632 975.033 247.624ZM993.028 234.088C990.644 233.896 989.452 234.984 989.452 237.352V238H993.028V239.176H989.452V250H988.228V239.176H986.164V238H988.228V237.352C988.228 235.848 988.636 234.712 989.452 233.944C990.284 233.16 991.476 232.824 993.028 232.936V234.088ZM994.893 243.16V242.008H1003.53V243.16H994.893ZM1012.95 250.264C1011.19 250.264 1009.69 249.664 1008.46 248.464C1007.24 247.248 1006.63 245.76 1006.63 244C1006.63 242.24 1007.24 240.76 1008.46 239.56C1009.69 238.344 1011.19 237.736 1012.95 237.736C1014.69 237.736 1016.17 238.344 1017.39 239.56C1018.62 240.76 1019.23 242.24 1019.23 244C1019.23 245.76 1018.62 247.248 1017.39 248.464C1016.17 249.664 1014.69 250.264 1012.95 250.264ZM1009.32 247.624C1010.31 248.616 1011.52 249.112 1012.95 249.112C1014.37 249.112 1015.57 248.616 1016.55 247.624C1017.52 246.632 1018.01 245.424 1018.01 244C1018.01 242.576 1017.52 241.368 1016.55 240.376C1015.57 239.384 1014.37 238.888 1012.95 238.888C1011.52 238.888 1010.31 239.384 1009.32 240.376C1008.35 241.368 1007.86 242.576 1007.86 244C1007.86 245.424 1008.35 246.632 1009.32 247.624ZM1027.32 234.088C1024.93 233.896 1023.74 234.984 1023.74 237.352V238H1027.32V239.176H1023.74V250H1022.52V239.176H1020.45V238H1022.52V237.352C1022.52 235.848 1022.92 234.712 1023.74 233.944C1024.57 233.16 1025.76 232.824 1027.32 232.936V234.088ZM1029.18 243.16V242.008H1037.82V243.16H1029.18ZM1049.75 250.264C1047.23 250.264 1045.14 249.432 1043.49 247.768C1041.84 246.088 1041.02 244.032 1041.02 241.6C1041.02 239.168 1041.84 237.12 1043.49 235.456C1045.14 233.776 1047.23 232.936 1049.75 232.936C1051.29 232.936 1052.7 233.304 1053.98 234.04C1055.26 234.76 1056.25 235.736 1056.95 236.968L1055.83 237.616C1055.27 236.576 1054.44 235.744 1053.35 235.12C1052.27 234.48 1051.07 234.16 1049.75 234.16C1047.58 234.16 1045.79 234.88 1044.38 236.32C1042.99 237.744 1042.29 239.504 1042.29 241.6C1042.29 243.696 1042.99 245.464 1044.38 246.904C1045.79 248.328 1047.58 249.04 1049.75 249.04C1051.07 249.04 1052.27 248.72 1053.38 248.08C1054.48 247.44 1055.31 246.584 1055.87 245.512L1057 246.16C1056.31 247.408 1055.32 248.408 1054.03 249.16C1052.73 249.896 1051.31 250.264 1049.75 250.264ZM1065.14 250.264C1063.38 250.264 1061.88 249.664 1060.65 248.464C1059.44 247.248 1058.83 245.76 1058.83 244C1058.83 242.24 1059.44 240.76 1060.65 239.56C1061.88 238.344 1063.38 237.736 1065.14 237.736C1066.88 237.736 1068.36 238.344 1069.58 239.56C1070.81 240.76 1071.43 242.24 1071.43 244C1071.43 245.76 1070.81 247.248 1069.58 248.464C1068.36 249.664 1066.88 250.264 1065.14 250.264ZM1061.52 247.624C1062.51 248.616 1063.72 249.112 1065.14 249.112C1066.56 249.112 1067.76 248.616 1068.74 247.624C1069.72 246.632 1070.2 245.424 1070.2 244C1070.2 242.576 1069.72 241.368 1068.74 240.376C1067.76 239.384 1066.56 238.888 1065.14 238.888C1063.72 238.888 1062.51 239.384 1061.52 240.376C1060.54 241.368 1060.05 242.576 1060.05 244C1060.05 245.424 1060.54 246.632 1061.52 247.624ZM1079.81 237.736C1081.24 237.736 1082.36 238.176 1083.2 239.056C1084.04 239.92 1084.47 241.08 1084.47 242.536V250H1083.24V242.536C1083.24 241.416 1082.93 240.528 1082.31 239.872C1081.7 239.216 1080.84 238.888 1079.72 238.888C1078.48 238.888 1077.48 239.296 1076.69 240.112C1075.91 240.928 1075.52 242.112 1075.52 243.664V250H1074.32V238H1075.52V240.28C1076.38 238.584 1077.81 237.736 1079.81 237.736ZM1094.01 239.176H1090.43V246.976C1090.43 247.664 1090.56 248.16 1090.82 248.464C1091.07 248.768 1091.46 248.944 1091.99 248.992C1092.52 249.024 1093.19 249 1094.01 248.92V250C1092.39 250.24 1091.18 250.128 1090.38 249.664C1089.6 249.2 1089.21 248.304 1089.21 246.976V239.176H1086.57V238H1089.21V235L1090.43 234.64V238H1094.01V239.176ZM1098.09 240.352C1098.81 238.672 1100.14 237.832 1102.1 237.832V238.984C1100.96 238.984 1100.01 239.352 1099.24 240.088C1098.47 240.808 1098.09 241.888 1098.09 243.328V250H1096.89V238H1098.09V240.352ZM1109.3 250.264C1107.54 250.264 1106.04 249.664 1104.81 248.464C1103.59 247.248 1102.99 245.76 1102.99 244C1102.99 242.24 1103.59 240.76 1104.81 239.56C1106.04 238.344 1107.54 237.736 1109.3 237.736C1111.04 237.736 1112.52 238.344 1113.74 239.56C1114.97 240.76 1115.59 242.24 1115.59 244C1115.59 245.76 1114.97 247.248 1113.74 248.464C1112.52 249.664 1111.04 250.264 1109.3 250.264ZM1105.67 247.624C1106.67 248.616 1107.87 249.112 1109.3 249.112C1110.72 249.112 1111.92 248.616 1112.9 247.624C1113.87 246.632 1114.36 245.424 1114.36 244C1114.36 242.576 1113.87 241.368 1112.9 240.376C1111.92 239.384 1110.72 238.888 1109.3 238.888C1107.87 238.888 1106.67 239.384 1105.67 240.376C1104.7 241.368 1104.21 242.576 1104.21 244C1104.21 245.424 1104.7 246.632 1105.67 247.624ZM1118.47 250V232.48H1119.67V250H1118.47ZM1123.71 252.4H1122.48C1124.24 248.88 1125.12 245.28 1125.12 241.6C1125.12 237.92 1124.24 234.32 1122.48 230.8H1123.71C1125.47 234.32 1126.35 237.92 1126.35 241.6C1126.35 245.28 1125.47 248.88 1123.71 252.4Z" fill="black"/>
<path d="M803.224 367.264C801.672 367.264 800.352 366.912 799.264 366.208C798.192 365.488 797.464 364.52 797.08 363.304L798.184 362.656C798.488 363.696 799.064 364.52 799.912 365.128C800.776 365.736 801.88 366.04 803.224 366.04C804.584 366.04 805.624 365.728 806.344 365.104C807.08 364.48 807.448 363.672 807.448 362.68C807.448 361.752 807.096 361.04 806.392 360.544C805.688 360.048 804.592 359.56 803.104 359.08C802.56 358.904 802.16 358.776 801.904 358.696C801.664 358.6 801.312 358.464 800.848 358.288C800.384 358.096 800.04 357.928 799.816 357.784C799.592 357.64 799.32 357.448 799 357.208C798.696 356.968 798.472 356.728 798.328 356.488C798.184 356.232 798.056 355.936 797.944 355.6C797.832 355.248 797.776 354.864 797.776 354.448C797.776 353.088 798.256 352 799.216 351.184C800.192 350.352 801.408 349.936 802.864 349.936C804.176 349.936 805.296 350.264 806.224 350.92C807.152 351.576 807.832 352.424 808.264 353.464L807.184 354.064C806.384 352.128 804.944 351.16 802.864 351.16C801.712 351.16 800.792 351.464 800.104 352.072C799.416 352.68 799.072 353.456 799.072 354.4C799.072 355.312 799.392 355.992 800.032 356.44C800.672 356.888 801.72 357.352 803.176 357.832C804.104 358.136 804.824 358.4 805.336 358.624C805.864 358.832 806.424 359.128 807.016 359.512C807.624 359.88 808.064 360.328 808.336 360.856C808.608 361.368 808.744 361.968 808.744 362.656C808.744 364.048 808.24 365.168 807.232 366.016C806.224 366.848 804.888 367.264 803.224 367.264ZM812.829 357.352C813.549 355.672 814.885 354.832 816.837 354.832V355.984C815.701 355.984 814.749 356.352 813.981 357.088C813.213 357.808 812.829 358.888 812.829 360.328V367H811.629V355H812.829V357.352ZM824.039 367.264C822.231 367.264 820.727 366.664 819.527 365.464C818.327 364.264 817.727 362.776 817.727 361C817.727 359.224 818.327 357.736 819.527 356.536C820.727 355.336 822.231 354.736 824.039 354.736C825.207 354.736 826.263 355.016 827.207 355.576C828.151 356.12 828.839 356.864 829.271 357.808L828.287 358.384C827.935 357.616 827.375 357.008 826.607 356.56C825.855 356.112 824.999 355.888 824.039 355.888C822.599 355.888 821.391 356.384 820.415 357.376C819.439 358.352 818.951 359.56 818.951 361C818.951 362.44 819.439 363.656 820.415 364.648C821.391 365.624 822.599 366.112 824.039 366.112C824.999 366.112 825.855 365.888 826.607 365.44C827.375 364.992 827.959 364.384 828.359 363.616L829.367 364.216C828.887 365.144 828.167 365.888 827.207 366.448C826.263 366.992 825.207 367.264 824.039 367.264ZM837.66 351.088C835.276 350.896 834.084 351.984 834.084 354.352V355H837.66V356.176H834.084V367H832.86V356.176H830.796V355H832.86V354.352C832.86 352.848 833.268 351.712 834.084 350.944C834.916 350.16 836.108 349.824 837.66 349.936V351.088ZM848.16 355H849.36V367H848.16V364.72C847.296 366.416 845.864 367.264 843.864 367.264C842.44 367.264 841.304 366.832 840.456 365.968C839.624 365.088 839.208 363.92 839.208 362.464V355H840.432V362.464C840.432 363.584 840.736 364.472 841.344 365.128C841.968 365.784 842.84 366.112 843.96 366.112C845.192 366.112 846.2 365.704 846.984 364.888C847.768 364.072 848.16 362.888 848.16 361.336V355ZM853.067 367V349.48H854.267V367H853.067ZM873.916 351.4H865.876V358.12H873.628V359.32H865.876V367H864.604V350.2H873.916V351.4ZM882.282 367.264C880.522 367.264 879.026 366.664 877.794 365.464C876.578 364.248 875.97 362.76 875.97 361C875.97 359.24 876.578 357.76 877.794 356.56C879.026 355.344 880.522 354.736 882.282 354.736C884.026 354.736 885.506 355.344 886.722 356.56C887.954 357.76 888.57 359.24 888.57 361C888.57 362.76 887.954 364.248 886.722 365.464C885.506 366.664 884.026 367.264 882.282 367.264ZM878.658 364.624C879.65 365.616 880.858 366.112 882.282 366.112C883.706 366.112 884.906 365.616 885.882 364.624C886.858 363.632 887.346 362.424 887.346 361C887.346 359.576 886.858 358.368 885.882 357.376C884.906 356.384 883.706 355.888 882.282 355.888C880.858 355.888 879.65 356.384 878.658 357.376C877.682 358.368 877.194 359.576 877.194 361C877.194 362.424 877.682 363.632 878.658 364.624ZM900.097 355H901.297V367H900.097V364.72C899.233 366.416 897.801 367.264 895.801 367.264C894.377 367.264 893.241 366.832 892.393 365.968C891.561 365.088 891.145 363.92 891.145 362.464V355H892.369V362.464C892.369 363.584 892.673 364.472 893.281 365.128C893.905 365.784 894.777 366.112 895.897 366.112C897.129 366.112 898.137 365.704 898.921 364.888C899.705 364.072 900.097 362.888 900.097 361.336V355ZM910.5 354.736C911.924 354.736 913.052 355.176 913.884 356.056C914.732 356.92 915.156 358.08 915.156 359.536V367H913.932V359.536C913.932 358.416 913.62 357.528 912.996 356.872C912.388 356.216 911.524 355.888 910.404 355.888C909.172 355.888 908.164 356.296 907.38 357.112C906.596 357.928 906.204 359.112 906.204 360.664V367H905.004V355H906.204V357.28C907.068 355.584 908.5 354.736 910.5 354.736ZM929.135 350.2H930.335V367H929.135V364.216C928.639 365.16 927.935 365.904 927.023 366.448C926.127 366.992 925.111 367.264 923.975 367.264C922.247 367.264 920.775 366.664 919.559 365.464C918.359 364.248 917.759 362.76 917.759 361C917.759 359.24 918.359 357.76 919.559 356.56C920.775 355.344 922.247 354.736 923.975 354.736C925.111 354.736 926.127 355.008 927.023 355.552C927.935 356.096 928.639 356.84 929.135 357.784V350.2ZM920.423 364.624C921.415 365.616 922.623 366.112 924.047 366.112C925.471 366.112 926.671 365.616 927.647 364.624C928.639 363.632 929.135 362.424 929.135 361C929.135 359.576 928.639 358.368 927.647 357.376C926.671 356.384 925.471 355.888 924.047 355.888C922.623 355.888 921.415 356.384 920.423 357.376C919.447 358.368 918.959 359.576 918.959 361C918.959 362.424 919.447 363.632 920.423 364.624ZM939.42 354.736C941.18 354.736 942.604 355.36 943.692 356.608C944.796 357.856 945.348 359.336 945.348 361.048C945.348 361.112 945.34 361.208 945.324 361.336C945.324 361.464 945.324 361.56 945.324 361.624H934.452C934.596 362.968 935.132 364.056 936.06 364.888C937.004 365.704 938.164 366.112 939.54 366.112C940.5 366.112 941.34 365.912 942.06 365.512C942.78 365.112 943.324 364.584 943.692 363.928L944.748 364.552C944.252 365.384 943.548 366.048 942.636 366.544C941.724 367.024 940.684 367.264 939.516 367.264C937.676 367.264 936.164 366.68 934.98 365.512C933.796 364.328 933.204 362.824 933.204 361C933.204 359.208 933.78 357.72 934.932 356.536C936.1 355.336 937.596 354.736 939.42 354.736ZM939.42 355.888C938.06 355.888 936.924 356.312 936.012 357.16C935.1 358.008 934.58 359.104 934.452 360.448H944.1C943.972 359.024 943.46 357.912 942.564 357.112C941.684 356.296 940.636 355.888 939.42 355.888ZM949.353 357.352C950.073 355.672 951.409 354.832 953.361 354.832V355.984C952.225 355.984 951.273 356.352 950.505 357.088C949.737 357.808 949.353 358.888 949.353 360.328V367H948.153V355H949.353V357.352ZM956.141 358.144C956.141 358.736 956.389 359.2 956.885 359.536C957.381 359.872 957.989 360.128 958.709 360.304C959.429 360.464 960.141 360.648 960.845 360.856C961.565 361.064 962.173 361.416 962.669 361.912C963.165 362.392 963.413 363.04 963.413 363.856C963.413 364.848 963.013 365.664 962.213 366.304C961.429 366.944 960.397 367.264 959.117 367.264C957.965 367.264 956.989 367.024 956.189 366.544C955.405 366.048 954.861 365.4 954.557 364.6L955.589 364C955.813 364.656 956.229 365.176 956.837 365.56C957.461 365.928 958.221 366.112 959.117 366.112C960.013 366.112 960.749 365.92 961.325 365.536C961.917 365.136 962.213 364.576 962.213 363.856C962.213 363.264 961.965 362.792 961.469 362.44C960.973 362.088 960.365 361.832 959.645 361.672C958.925 361.496 958.205 361.304 957.485 361.096C956.781 360.888 956.181 360.544 955.685 360.064C955.189 359.584 954.941 358.944 954.941 358.144C954.941 357.184 955.317 356.376 956.069 355.72C956.837 355.064 957.821 354.736 959.021 354.736C959.981 354.736 960.813 354.952 961.517 355.384C962.237 355.816 962.765 356.4 963.101 357.136L962.093 357.712C961.853 357.12 961.453 356.672 960.893 356.368C960.333 356.048 959.709 355.888 959.021 355.888C958.205 355.888 957.517 356.096 956.957 356.512C956.413 356.912 956.141 357.456 956.141 358.144ZM983.275 355H984.499V367H983.275V364.288C982.763 365.216 982.059 365.944 981.163 366.472C980.267 367 979.251 367.264 978.115 367.264C976.403 367.264 974.939 366.664 973.723 365.464C972.507 364.248 971.899 362.76 971.899 361C971.899 359.24 972.507 357.76 973.723 356.56C974.939 355.344 976.403 354.736 978.115 354.736C979.251 354.736 980.267 355 981.163 355.528C982.059 356.056 982.763 356.784 983.275 357.712V355ZM974.587 364.624C975.579 365.616 976.787 366.112 978.211 366.112C979.635 366.112 980.835 365.616 981.811 364.624C982.787 363.632 983.275 362.424 983.275 361C983.275 359.576 982.787 358.368 981.811 357.376C980.835 356.384 979.635 355.888 978.211 355.888C976.787 355.888 975.579 356.384 974.587 357.376C973.611 358.368 973.123 359.576 973.123 361C973.123 362.424 973.611 363.632 974.587 364.624ZM993.68 354.736C995.104 354.736 996.232 355.176 997.064 356.056C997.912 356.92 998.336 358.08 998.336 359.536V367H997.112V359.536C997.112 358.416 996.8 357.528 996.176 356.872C995.568 356.216 994.704 355.888 993.584 355.888C992.352 355.888 991.344 356.296 990.56 357.112C989.776 357.928 989.384 359.112 989.384 360.664V367H988.184V355H989.384V357.28C990.248 355.584 991.68 354.736 993.68 354.736ZM1012.31 350.2H1013.51V367H1012.31V364.216C1011.82 365.16 1011.11 365.904 1010.2 366.448C1009.31 366.992 1008.29 367.264 1007.15 367.264C1005.43 367.264 1003.95 366.664 1002.74 365.464C1001.54 364.248 1000.94 362.76 1000.94 361C1000.94 359.24 1001.54 357.76 1002.74 356.56C1003.95 355.344 1005.43 354.736 1007.15 354.736C1008.29 354.736 1009.31 355.008 1010.2 355.552C1011.11 356.096 1011.82 356.84 1012.31 357.784V350.2ZM1003.6 364.624C1004.59 365.616 1005.8 366.112 1007.23 366.112C1008.65 366.112 1009.85 365.616 1010.83 364.624C1011.82 363.632 1012.31 362.424 1012.31 361C1012.31 359.576 1011.82 358.368 1010.83 357.376C1009.85 356.384 1008.65 355.888 1007.23 355.888C1005.8 355.888 1004.59 356.384 1003.6 357.376C1002.63 358.368 1002.14 359.576 1002.14 361C1002.14 362.424 1002.63 363.632 1003.6 364.624ZM1023.84 350.2H1025.11V367H1023.84V350.2ZM1034.53 354.736C1035.96 354.736 1037.08 355.176 1037.92 356.056C1038.76 356.92 1039.19 358.08 1039.19 359.536V367H1037.96V359.536C1037.96 358.416 1037.65 357.528 1037.03 356.872C1036.42 356.216 1035.56 355.888 1034.44 355.888C1033.2 355.888 1032.2 356.296 1031.41 357.112C1030.63 357.928 1030.24 359.112 1030.24 360.664V367H1029.04V355H1030.24V357.28C1031.1 355.584 1032.53 354.736 1034.53 354.736ZM1051.27 355H1052.55L1047.48 367H1046.02L1040.93 355H1042.23L1046.74 365.752L1051.27 355ZM1059.65 354.736C1061.41 354.736 1062.84 355.36 1063.93 356.608C1065.03 357.856 1065.58 359.336 1065.58 361.048C1065.58 361.112 1065.57 361.208 1065.56 361.336C1065.56 361.464 1065.56 361.56 1065.56 361.624H1054.69C1054.83 362.968 1055.37 364.056 1056.29 364.888C1057.24 365.704 1058.4 366.112 1059.77 366.112C1060.73 366.112 1061.57 365.912 1062.29 365.512C1063.01 365.112 1063.56 364.584 1063.93 363.928L1064.98 364.552C1064.49 365.384 1063.78 366.048 1062.87 366.544C1061.96 367.024 1060.92 367.264 1059.75 367.264C1057.91 367.264 1056.4 366.68 1055.21 365.512C1054.03 364.328 1053.44 362.824 1053.44 361C1053.44 359.208 1054.01 357.72 1055.17 356.536C1056.33 355.336 1057.83 354.736 1059.65 354.736ZM1059.65 355.888C1058.29 355.888 1057.16 356.312 1056.25 357.16C1055.33 358.008 1054.81 359.104 1054.69 360.448H1064.33C1064.21 359.024 1063.69 357.912 1062.8 357.112C1061.92 356.296 1060.87 355.888 1059.65 355.888ZM1068.73 358.144C1068.73 358.736 1068.98 359.2 1069.48 359.536C1069.97 359.872 1070.58 360.128 1071.3 360.304C1072.02 360.464 1072.73 360.648 1073.44 360.856C1074.16 361.064 1074.77 361.416 1075.26 361.912C1075.76 362.392 1076.01 363.04 1076.01 363.856C1076.01 364.848 1075.61 365.664 1074.81 366.304C1074.02 366.944 1072.99 367.264 1071.71 367.264C1070.56 367.264 1069.58 367.024 1068.78 366.544C1068 366.048 1067.45 365.4 1067.15 364.6L1068.18 364C1068.41 364.656 1068.82 365.176 1069.43 365.56C1070.05 365.928 1070.81 366.112 1071.71 366.112C1072.61 366.112 1073.34 365.92 1073.92 365.536C1074.51 365.136 1074.81 364.576 1074.81 363.856C1074.81 363.264 1074.56 362.792 1074.06 362.44C1073.57 362.088 1072.96 361.832 1072.24 361.672C1071.52 361.496 1070.8 361.304 1070.08 361.096C1069.37 360.888 1068.77 360.544 1068.28 360.064C1067.78 359.584 1067.53 358.944 1067.53 358.144C1067.53 357.184 1067.91 356.376 1068.66 355.72C1069.43 355.064 1070.41 354.736 1071.61 354.736C1072.57 354.736 1073.41 354.952 1074.11 355.384C1074.83 355.816 1075.36 356.4 1075.69 357.136L1074.69 357.712C1074.45 357.12 1074.05 356.672 1073.49 356.368C1072.93 356.048 1072.3 355.888 1071.61 355.888C1070.8 355.888 1070.11 356.096 1069.55 356.512C1069.01 356.912 1068.73 357.456 1068.73 358.144ZM1084.59 356.176H1081.01V363.976C1081.01 364.664 1081.14 365.16 1081.39 365.464C1081.65 365.768 1082.04 365.944 1082.57 365.992C1083.1 366.024 1083.77 366 1084.59 365.92V367C1082.97 367.24 1081.76 367.128 1080.96 366.664C1080.18 366.2 1079.79 365.304 1079.79 363.976V356.176H1077.15V355H1079.79V352L1081.01 351.64V355H1084.59V356.176ZM1092.23 367.264C1090.47 367.264 1088.98 366.664 1087.75 365.464C1086.53 364.248 1085.92 362.76 1085.92 361C1085.92 359.24 1086.53 357.76 1087.75 356.56C1088.98 355.344 1090.47 354.736 1092.23 354.736C1093.98 354.736 1095.46 355.344 1096.67 356.56C1097.91 357.76 1098.52 359.24 1098.52 361C1098.52 362.76 1097.91 364.248 1096.67 365.464C1095.46 366.664 1093.98 367.264 1092.23 367.264ZM1088.61 364.624C1089.6 365.616 1090.81 366.112 1092.23 366.112C1093.66 366.112 1094.86 365.616 1095.83 364.624C1096.81 363.632 1097.3 362.424 1097.3 361C1097.3 359.576 1096.81 358.368 1095.83 357.376C1094.86 356.384 1093.66 355.888 1092.23 355.888C1090.81 355.888 1089.6 356.384 1088.61 357.376C1087.63 358.368 1087.15 359.576 1087.15 361C1087.15 362.424 1087.63 363.632 1088.61 364.624ZM1102.61 357.352C1103.33 355.672 1104.67 354.832 1106.62 354.832V355.984C1105.48 355.984 1104.53 356.352 1103.76 357.088C1102.99 357.808 1102.61 358.888 1102.61 360.328V367H1101.41V355H1102.61V357.352ZM1109.4 358.144C1109.4 358.736 1109.65 359.2 1110.14 359.536C1110.64 359.872 1111.25 360.128 1111.97 360.304C1112.69 360.464 1113.4 360.648 1114.1 360.856C1114.82 361.064 1115.43 361.416 1115.93 361.912C1116.42 362.392 1116.67 363.04 1116.67 363.856C1116.67 364.848 1116.27 365.664 1115.47 366.304C1114.69 366.944 1113.65 367.264 1112.37 367.264C1111.22 367.264 1110.25 367.024 1109.45 366.544C1108.66 366.048 1108.12 365.4 1107.81 364.6L1108.85 364C1109.07 364.656 1109.49 365.176 1110.09 365.56C1110.72 365.928 1111.48 366.112 1112.37 366.112C1113.27 366.112 1114.01 365.92 1114.58 365.536C1115.17 365.136 1115.47 364.576 1115.47 363.856C1115.47 363.264 1115.22 362.792 1114.73 362.44C1114.23 362.088 1113.62 361.832 1112.9 361.672C1112.18 361.496 1111.46 361.304 1110.74 361.096C1110.04 360.888 1109.44 360.544 1108.94 360.064C1108.45 359.584 1108.2 358.944 1108.2 358.144C1108.2 357.184 1108.57 356.376 1109.33 355.72C1110.09 355.064 1111.08 354.736 1112.28 354.736C1113.24 354.736 1114.07 354.952 1114.77 355.384C1115.49 355.816 1116.02 356.4 1116.36 357.136L1115.35 357.712C1115.11 357.12 1114.71 356.672 1114.15 356.368C1113.59 356.048 1112.97 355.888 1112.28 355.888C1111.46 355.888 1110.77 356.096 1110.21 356.512C1109.67 356.912 1109.4 357.456 1109.4 358.144Z" fill="black"/>
<path d="M803.224 483.264C801.672 483.264 800.352 482.912 799.264 482.208C798.192 481.488 797.464 480.52 797.08 479.304L798.184 478.656C798.488 479.696 799.064 480.52 799.912 481.128C800.776 481.736 801.88 482.04 803.224 482.04C804.584 482.04 805.624 481.728 806.344 481.104C807.08 480.48 807.448 479.672 807.448 478.68C807.448 477.752 807.096 477.04 806.392 476.544C805.688 476.048 804.592 475.56 803.104 475.08C802.56 474.904 802.16 474.776 801.904 474.696C801.664 474.6 801.312 474.464 800.848 474.288C800.384 474.096 800.04 473.928 799.816 473.784C799.592 473.64 799.32 473.448 799 473.208C798.696 472.968 798.472 472.728 798.328 472.488C798.184 472.232 798.056 471.936 797.944 471.6C797.832 471.248 797.776 470.864 797.776 470.448C797.776 469.088 798.256 468 799.216 467.184C800.192 466.352 801.408 465.936 802.864 465.936C804.176 465.936 805.296 466.264 806.224 466.92C807.152 467.576 807.832 468.424 808.264 469.464L807.184 470.064C806.384 468.128 804.944 467.16 802.864 467.16C801.712 467.16 800.792 467.464 800.104 468.072C799.416 468.68 799.072 469.456 799.072 470.4C799.072 471.312 799.392 471.992 800.032 472.44C800.672 472.888 801.72 473.352 803.176 473.832C804.104 474.136 804.824 474.4 805.336 474.624C805.864 474.832 806.424 475.128 807.016 475.512C807.624 475.88 808.064 476.328 808.336 476.856C808.608 477.368 808.744 477.968 808.744 478.656C808.744 480.048 808.24 481.168 807.232 482.016C806.224 482.848 804.888 483.264 803.224 483.264ZM812.829 473.352C813.549 471.672 814.885 470.832 816.837 470.832V471.984C815.701 471.984 814.749 472.352 813.981 473.088C813.213 473.808 812.829 474.888 812.829 476.328V483H811.629V471H812.829V473.352ZM824.039 483.264C822.231 483.264 820.727 482.664 819.527 481.464C818.327 480.264 817.727 478.776 817.727 477C817.727 475.224 818.327 473.736 819.527 472.536C820.727 471.336 822.231 470.736 824.039 470.736C825.207 470.736 826.263 471.016 827.207 471.576C828.151 472.12 828.839 472.864 829.271 473.808L828.287 474.384C827.935 473.616 827.375 473.008 826.607 472.56C825.855 472.112 824.999 471.888 824.039 471.888C822.599 471.888 821.391 472.384 820.415 473.376C819.439 474.352 818.951 475.56 818.951 477C818.951 478.44 819.439 479.656 820.415 480.648C821.391 481.624 822.599 482.112 824.039 482.112C824.999 482.112 825.855 481.888 826.607 481.44C827.375 480.992 827.959 480.384 828.359 479.616L829.367 480.216C828.887 481.144 828.167 481.888 827.207 482.448C826.263 482.992 825.207 483.264 824.039 483.264ZM837.66 467.088C835.276 466.896 834.084 467.984 834.084 470.352V471H837.66V472.176H834.084V483H832.86V472.176H830.796V471H832.86V470.352C832.86 468.848 833.268 467.712 834.084 466.944C834.916 466.16 836.108 465.824 837.66 465.936V467.088ZM848.16 471H849.36V483H848.16V480.72C847.296 482.416 845.864 483.264 843.864 483.264C842.44 483.264 841.304 482.832 840.456 481.968C839.624 481.088 839.208 479.92 839.208 478.464V471H840.432V478.464C840.432 479.584 840.736 480.472 841.344 481.128C841.968 481.784 842.84 482.112 843.96 482.112C845.192 482.112 846.2 481.704 846.984 480.888C847.768 480.072 848.16 478.888 848.16 477.336V471ZM853.067 483V465.48H854.267V483H853.067ZM873.916 467.4H865.876V474.12H873.628V475.32H865.876V483H864.604V466.2H873.916V467.4ZM882.282 483.264C880.522 483.264 879.026 482.664 877.794 481.464C876.578 480.248 875.97 478.76 875.97 477C875.97 475.24 876.578 473.76 877.794 472.56C879.026 471.344 880.522 470.736 882.282 470.736C884.026 470.736 885.506 471.344 886.722 472.56C887.954 473.76 888.57 475.24 888.57 477C888.57 478.76 887.954 480.248 886.722 481.464C885.506 482.664 884.026 483.264 882.282 483.264ZM878.658 480.624C879.65 481.616 880.858 482.112 882.282 482.112C883.706 482.112 884.906 481.616 885.882 480.624C886.858 479.632 887.346 478.424 887.346 477C887.346 475.576 886.858 474.368 885.882 473.376C884.906 472.384 883.706 471.888 882.282 471.888C880.858 471.888 879.65 472.384 878.658 473.376C877.682 474.368 877.194 475.576 877.194 477C877.194 478.424 877.682 479.632 878.658 480.624ZM900.097 471H901.297V483H900.097V480.72C899.233 482.416 897.801 483.264 895.801 483.264C894.377 483.264 893.241 482.832 892.393 481.968C891.561 481.088 891.145 479.92 891.145 478.464V471H892.369V478.464C892.369 479.584 892.673 480.472 893.281 481.128C893.905 481.784 894.777 482.112 895.897 482.112C897.129 482.112 898.137 481.704 898.921 480.888C899.705 480.072 900.097 478.888 900.097 477.336V471ZM910.5 470.736C911.924 470.736 913.052 471.176 913.884 472.056C914.732 472.92 915.156 474.08 915.156 475.536V483H913.932V475.536C913.932 474.416 913.62 473.528 912.996 472.872C912.388 472.216 911.524 471.888 910.404 471.888C909.172 471.888 908.164 472.296 907.38 473.112C906.596 473.928 906.204 475.112 906.204 476.664V483H905.004V471H906.204V473.28C907.068 471.584 908.5 470.736 910.5 470.736ZM929.135 466.2H930.335V483H929.135V480.216C928.639 481.16 927.935 481.904 927.023 482.448C926.127 482.992 925.111 483.264 923.975 483.264C922.247 483.264 920.775 482.664 919.559 481.464C918.359 480.248 917.759 478.76 917.759 477C917.759 475.24 918.359 473.76 919.559 472.56C920.775 471.344 922.247 470.736 923.975 470.736C925.111 470.736 926.127 471.008 927.023 471.552C927.935 472.096 928.639 472.84 929.135 473.784V466.2ZM920.423 480.624C921.415 481.616 922.623 482.112 924.047 482.112C925.471 482.112 926.671 481.616 927.647 480.624C928.639 479.632 929.135 478.424 929.135 477C929.135 475.576 928.639 474.368 927.647 473.376C926.671 472.384 925.471 471.888 924.047 471.888C922.623 471.888 921.415 472.384 920.423 473.376C919.447 474.368 918.959 475.576 918.959 477C918.959 478.424 919.447 479.632 920.423 480.624ZM944.58 471H945.804V483H944.58V480.288C944.068 481.216 943.364 481.944 942.468 482.472C941.572 483 940.556 483.264 939.42 483.264C937.708 483.264 936.244 482.664 935.028 481.464C933.812 480.248 933.204 478.76 933.204 477C933.204 475.24 933.812 473.76 935.028 472.56C936.244 471.344 937.708 470.736 939.42 470.736C940.556 470.736 941.572 471 942.468 471.528C943.364 472.056 944.068 472.784 944.58 473.712V471ZM935.892 480.624C936.884 481.616 938.092 482.112 939.516 482.112C940.94 482.112 942.14 481.616 943.116 480.624C944.092 479.632 944.58 478.424 944.58 477C944.58 475.576 944.092 474.368 943.116 473.376C942.14 472.384 940.94 471.888 939.516 471.888C938.092 471.888 936.884 472.384 935.892 473.376C934.916 474.368 934.428 475.576 934.428 477C934.428 478.424 934.916 479.632 935.892 480.624ZM955.633 472.176H952.057V479.976C952.057 480.664 952.185 481.16 952.441 481.464C952.697 481.768 953.089 481.944 953.617 481.992C954.145 482.024 954.817 482 955.633 481.92V483C954.017 483.24 952.809 483.128 952.009 482.664C951.225 482.2 950.833 481.304 950.833 479.976V472.176H948.193V471H950.833V468L952.057 467.64V471H955.633V472.176ZM959.784 467.832C959.592 468.008 959.368 468.096 959.112 468.096C958.856 468.096 958.632 468.008 958.44 467.832C958.248 467.64 958.152 467.408 958.152 467.136C958.152 466.88 958.248 466.664 958.44 466.488C958.632 466.296 958.856 466.2 959.112 466.2C959.368 466.2 959.592 466.296 959.784 466.488C959.976 466.664 960.072 466.88 960.072 467.136C960.072 467.408 959.976 467.64 959.784 467.832ZM958.512 483V471H959.712V483H958.512ZM968.907 483.264C967.147 483.264 965.651 482.664 964.419 481.464C963.203 480.248 962.595 478.76 962.595 477C962.595 475.24 963.203 473.76 964.419 472.56C965.651 471.344 967.147 470.736 968.907 470.736C970.651 470.736 972.131 471.344 973.347 472.56C974.579 473.76 975.195 475.24 975.195 477C975.195 478.76 974.579 480.248 973.347 481.464C972.131 482.664 970.651 483.264 968.907 483.264ZM965.283 480.624C966.275 481.616 967.483 482.112 968.907 482.112C970.331 482.112 971.531 481.616 972.507 480.624C973.483 479.632 973.971 478.424 973.971 477C973.971 475.576 973.483 474.368 972.507 473.376C971.531 472.384 970.331 471.888 968.907 471.888C967.483 471.888 966.275 472.384 965.283 473.376C964.307 474.368 963.819 475.576 963.819 477C963.819 478.424 964.307 479.632 965.283 480.624ZM983.578 470.736C985.002 470.736 986.13 471.176 986.962 472.056C987.81 472.92 988.234 474.08 988.234 475.536V483H987.01V475.536C987.01 474.416 986.698 473.528 986.074 472.872C985.466 472.216 984.602 471.888 983.482 471.888C982.25 471.888 981.242 472.296 980.458 473.112C979.674 473.928 979.282 475.112 979.282 476.664V483H978.082V471H979.282V473.28C980.146 471.584 981.578 470.736 983.578 470.736Z" fill="black"/>
<path d="M1192.96 122.184C1194.37 122.328 1195.53 122.832 1196.44 123.696C1197.35 124.56 1197.81 125.712 1197.81 127.152C1197.81 128.72 1197.27 129.968 1196.2 130.896C1195.13 131.808 1193.82 132.264 1192.26 132.264C1191.02 132.264 1189.91 131.984 1188.95 131.424C1187.99 130.864 1187.31 130.08 1186.91 129.072L1187.97 128.448C1188.27 129.28 1188.8 129.92 1189.55 130.368C1190.3 130.816 1191.21 131.04 1192.26 131.04C1193.51 131.04 1194.54 130.688 1195.34 129.984C1196.14 129.28 1196.54 128.336 1196.54 127.152C1196.54 125.968 1196.13 125.024 1195.31 124.32C1194.51 123.616 1193.48 123.264 1192.22 123.264V123.24L1192.19 123.264H1191.86L1191.3 122.424L1195.55 116.4H1187.34V115.2H1197.02V116.4L1192.96 122.184ZM1205.37 121.2C1207.02 121.2 1208.37 121.72 1209.43 122.76C1210.48 123.784 1211.01 125.112 1211.01 126.744C1211.01 128.36 1210.48 129.688 1209.43 130.728C1208.37 131.752 1207.02 132.264 1205.37 132.264C1203.72 132.264 1202.37 131.752 1201.31 130.728C1200.26 129.688 1199.73 128.36 1199.73 126.744C1199.73 125.48 1200.07 124.36 1200.76 123.384L1206.4 115.2H1207.84L1203.55 121.464C1204.15 121.288 1204.76 121.2 1205.37 121.2ZM1202.2 129.84C1203 130.64 1204.06 131.04 1205.37 131.04C1206.68 131.04 1207.74 130.64 1208.54 129.84C1209.34 129.04 1209.74 128.008 1209.74 126.744C1209.74 125.464 1209.34 124.424 1208.54 123.624C1207.74 122.824 1206.68 122.424 1205.37 122.424C1204.06 122.424 1203 122.824 1202.2 123.624C1201.42 124.424 1201.03 125.464 1201.03 126.744C1201.03 128.008 1201.42 129.04 1202.2 129.84ZM1216.29 122.088C1215.23 122.088 1214.35 121.744 1213.65 121.056C1212.96 120.368 1212.61 119.52 1212.61 118.512C1212.61 117.504 1212.96 116.656 1213.65 115.968C1214.35 115.28 1215.23 114.936 1216.29 114.936C1217.34 114.936 1218.21 115.28 1218.9 115.968C1219.61 116.656 1219.96 117.504 1219.96 118.512C1219.96 119.52 1219.61 120.368 1218.93 121.056C1218.24 121.744 1217.36 122.088 1216.29 122.088ZM1214.51 120.288C1214.97 120.752 1215.57 120.984 1216.29 120.984C1217.01 120.984 1217.6 120.752 1218.06 120.288C1218.54 119.808 1218.78 119.216 1218.78 118.512C1218.78 117.808 1218.54 117.224 1218.06 116.76C1217.6 116.28 1217.01 116.04 1216.29 116.04C1215.57 116.04 1214.97 116.28 1214.51 116.76C1214.05 117.224 1213.81 117.808 1213.81 118.512C1213.81 119.216 1214.05 119.808 1214.51 120.288ZM1213.53 129.84L1224.93 117.024L1225.74 117.48L1214.32 130.296L1213.53 129.84ZM1225.69 131.232C1225.01 131.92 1224.13 132.264 1223.08 132.264C1222.02 132.264 1221.14 131.92 1220.44 131.232C1219.75 130.544 1219.41 129.696 1219.41 128.688C1219.41 127.68 1219.75 126.832 1220.44 126.144C1221.14 125.456 1222.02 125.112 1223.08 125.112C1224.13 125.112 1225.01 125.456 1225.69 126.144C1226.4 126.832 1226.75 127.68 1226.75 128.688C1226.75 129.696 1226.4 130.544 1225.69 131.232ZM1221.3 130.464C1221.77 130.928 1222.36 131.16 1223.08 131.16C1223.8 131.16 1224.39 130.928 1224.85 130.464C1225.33 129.984 1225.57 129.392 1225.57 128.688C1225.57 127.984 1225.33 127.4 1224.85 126.936C1224.39 126.456 1223.8 126.216 1223.08 126.216C1222.36 126.216 1221.77 126.456 1221.3 126.936C1220.84 127.4 1220.61 127.984 1220.61 128.688C1220.61 129.392 1220.84 129.984 1221.3 130.464Z" fill="black"/>
<path d="M1192.96 240.184C1194.37 240.328 1195.53 240.832 1196.44 241.696C1197.35 242.56 1197.81 243.712 1197.81 245.152C1197.81 246.72 1197.27 247.968 1196.2 248.896C1195.13 249.808 1193.82 250.264 1192.26 250.264C1191.02 250.264 1189.91 249.984 1188.95 249.424C1187.99 248.864 1187.31 248.08 1186.91 247.072L1187.97 246.448C1188.27 247.28 1188.8 247.92 1189.55 248.368C1190.3 248.816 1191.21 249.04 1192.26 249.04C1193.51 249.04 1194.54 248.688 1195.34 247.984C1196.14 247.28 1196.54 246.336 1196.54 245.152C1196.54 243.968 1196.13 243.024 1195.31 242.32C1194.51 241.616 1193.48 241.264 1192.22 241.264V241.24L1192.19 241.264H1191.86L1191.3 240.424L1195.55 234.4H1187.34V233.2H1197.02V234.4L1192.96 240.184ZM1205.37 239.2C1207.02 239.2 1208.37 239.72 1209.43 240.76C1210.48 241.784 1211.01 243.112 1211.01 244.744C1211.01 246.36 1210.48 247.688 1209.43 248.728C1208.37 249.752 1207.02 250.264 1205.37 250.264C1203.72 250.264 1202.37 249.752 1201.31 248.728C1200.26 247.688 1199.73 246.36 1199.73 244.744C1199.73 243.48 1200.07 242.36 1200.76 241.384L1206.4 233.2H1207.84L1203.55 239.464C1204.15 239.288 1204.76 239.2 1205.37 239.2ZM1202.2 247.84C1203 248.64 1204.06 249.04 1205.37 249.04C1206.68 249.04 1207.74 248.64 1208.54 247.84C1209.34 247.04 1209.74 246.008 1209.74 244.744C1209.74 243.464 1209.34 242.424 1208.54 241.624C1207.74 240.824 1206.68 240.424 1205.37 240.424C1204.06 240.424 1203 240.824 1202.2 241.624C1201.42 242.424 1201.03 243.464 1201.03 244.744C1201.03 246.008 1201.42 247.04 1202.2 247.84ZM1216.29 240.088C1215.23 240.088 1214.35 239.744 1213.65 239.056C1212.96 238.368 1212.61 237.52 1212.61 236.512C1212.61 235.504 1212.96 234.656 1213.65 233.968C1214.35 233.28 1215.23 232.936 1216.29 232.936C1217.34 232.936 1218.21 233.28 1218.9 233.968C1219.61 234.656 1219.96 235.504 1219.96 236.512C1219.96 237.52 1219.61 238.368 1218.93 239.056C1218.24 239.744 1217.36 240.088 1216.29 240.088ZM1214.51 238.288C1214.97 238.752 1215.57 238.984 1216.29 238.984C1217.01 238.984 1217.6 238.752 1218.06 238.288C1218.54 237.808 1218.78 237.216 1218.78 236.512C1218.78 235.808 1218.54 235.224 1218.06 234.76C1217.6 234.28 1217.01 234.04 1216.29 234.04C1215.57 234.04 1214.97 234.28 1214.51 234.76C1214.05 235.224 1213.81 235.808 1213.81 236.512C1213.81 237.216 1214.05 237.808 1214.51 238.288ZM1213.53 247.84L1224.93 235.024L1225.74 235.48L1214.32 248.296L1213.53 247.84ZM1225.69 249.232C1225.01 249.92 1224.13 250.264 1223.08 250.264C1222.02 250.264 1221.14 249.92 1220.44 249.232C1219.75 248.544 1219.41 247.696 1219.41 246.688C1219.41 245.68 1219.75 244.832 1220.44 244.144C1221.14 243.456 1222.02 243.112 1223.08 243.112C1224.13 243.112 1225.01 243.456 1225.69 244.144C1226.4 244.832 1226.75 245.68 1226.75 246.688C1226.75 247.696 1226.4 248.544 1225.69 249.232ZM1221.3 248.464C1221.77 248.928 1222.36 249.16 1223.08 249.16C1223.8 249.16 1224.39 248.928 1224.85 248.464C1225.33 247.984 1225.57 247.392 1225.57 246.688C1225.57 245.984 1225.33 245.4 1224.85 244.936C1224.39 244.456 1223.8 244.216 1223.08 244.216C1222.36 244.216 1221.77 244.456 1221.3 244.936C1220.84 245.4 1220.61 245.984 1220.61 246.688C1220.61 247.392 1220.84 247.984 1221.3 248.464Z" fill="black"/>
<path d="M1187.03 367V365.848L1193.2 359.512C1195.01 357.64 1195.91 356.056 1195.91 354.76C1195.91 353.64 1195.56 352.76 1194.86 352.12C1194.15 351.48 1193.27 351.16 1192.22 351.16C1190.34 351.16 1189.01 352.008 1188.21 353.704L1187.13 353.056C1187.62 352.048 1188.31 351.28 1189.19 350.752C1190.09 350.208 1191.1 349.936 1192.22 349.936C1193.58 349.936 1194.74 350.368 1195.72 351.232C1196.71 352.096 1197.21 353.272 1197.21 354.76C1197.21 355.72 1196.93 356.656 1196.37 357.568C1195.82 358.464 1195.06 359.416 1194.06 360.424L1188.86 365.776H1197.59V367H1187.03ZM1210.61 364.912C1209.51 366.48 1207.97 367.264 1205.98 367.264C1204 367.264 1202.45 366.48 1201.35 364.912C1200.25 363.344 1199.69 361.24 1199.69 358.6C1199.69 355.96 1200.25 353.856 1201.35 352.288C1202.45 350.72 1204 349.936 1205.98 349.936C1207.97 349.936 1209.51 350.72 1210.61 352.288C1211.72 353.856 1212.27 355.96 1212.27 358.6C1212.27 361.24 1211.72 363.344 1210.61 364.912ZM1202.31 364.096C1203.19 365.392 1204.41 366.04 1205.98 366.04C1207.55 366.04 1208.77 365.392 1209.65 364.096C1210.53 362.784 1210.97 360.952 1210.97 358.6C1210.97 356.248 1210.53 354.424 1209.65 353.128C1208.77 351.816 1207.55 351.16 1205.98 351.16C1204.41 351.16 1203.19 351.816 1202.31 353.128C1201.43 354.424 1200.99 356.248 1200.99 358.6C1200.99 360.952 1201.43 362.784 1202.31 364.096ZM1218.25 357.088C1217.2 357.088 1216.32 356.744 1215.61 356.056C1214.93 355.368 1214.58 354.52 1214.58 353.512C1214.58 352.504 1214.93 351.656 1215.61 350.968C1216.32 350.28 1217.2 349.936 1218.25 349.936C1219.31 349.936 1220.18 350.28 1220.87 350.968C1221.57 351.656 1221.93 352.504 1221.93 353.512C1221.93 354.52 1221.58 355.368 1220.89 356.056C1220.21 356.744 1219.33 357.088 1218.25 357.088ZM1216.48 355.288C1216.94 355.752 1217.53 355.984 1218.25 355.984C1218.97 355.984 1219.57 355.752 1220.03 355.288C1220.51 354.808 1220.75 354.216 1220.75 353.512C1220.75 352.808 1220.51 352.224 1220.03 351.76C1219.57 351.28 1218.97 351.04 1218.25 351.04C1217.53 351.04 1216.94 351.28 1216.48 351.76C1216.01 352.224 1215.78 352.808 1215.78 353.512C1215.78 354.216 1216.01 354.808 1216.48 355.288ZM1215.49 364.84L1226.89 352.024L1227.71 352.48L1216.29 365.296L1215.49 364.84ZM1227.66 366.232C1226.97 366.92 1226.1 367.264 1225.05 367.264C1223.99 367.264 1223.11 366.92 1222.41 366.232C1221.72 365.544 1221.37 364.696 1221.37 363.688C1221.37 362.68 1221.72 361.832 1222.41 361.144C1223.11 360.456 1223.99 360.112 1225.05 360.112C1226.1 360.112 1226.97 360.456 1227.66 361.144C1228.37 361.832 1228.72 362.68 1228.72 363.688C1228.72 364.696 1228.37 365.544 1227.66 366.232ZM1223.27 365.464C1223.73 365.928 1224.33 366.16 1225.05 366.16C1225.77 366.16 1226.36 365.928 1226.82 365.464C1227.3 364.984 1227.54 364.392 1227.54 363.688C1227.54 362.984 1227.3 362.4 1226.82 361.936C1226.36 361.456 1225.77 361.216 1225.05 361.216C1224.33 361.216 1223.73 361.456 1223.27 361.936C1222.81 362.4 1222.57 362.984 1222.57 363.688C1222.57 364.392 1222.81 364.984 1223.27 365.464Z" fill="black"/>
<path d="M1195.17 474.312C1196.1 474.68 1196.82 475.232 1197.35 475.968C1197.9 476.704 1198.17 477.552 1198.17 478.512C1198.17 480 1197.65 481.168 1196.61 482.016C1195.57 482.848 1194.23 483.264 1192.6 483.264C1190.97 483.264 1189.63 482.848 1188.59 482.016C1187.55 481.168 1187.03 480 1187.03 478.512C1187.03 477.552 1187.3 476.704 1187.82 475.968C1188.37 475.232 1189.1 474.68 1190.03 474.312C1189.28 473.944 1188.68 473.432 1188.23 472.776C1187.8 472.104 1187.58 471.336 1187.58 470.472C1187.58 469.048 1188.06 467.936 1189.02 467.136C1190 466.336 1191.19 465.936 1192.6 465.936C1194.01 465.936 1195.19 466.336 1196.15 467.136C1197.13 467.936 1197.62 469.048 1197.62 470.472C1197.62 471.336 1197.39 472.104 1196.94 472.776C1196.51 473.432 1195.92 473.944 1195.17 474.312ZM1188.86 470.472C1188.86 471.48 1189.21 472.28 1189.91 472.872C1190.62 473.464 1191.51 473.76 1192.6 473.76C1193.69 473.76 1194.58 473.464 1195.29 472.872C1195.99 472.28 1196.34 471.48 1196.34 470.472C1196.34 469.432 1195.99 468.624 1195.29 468.048C1194.6 467.456 1193.7 467.16 1192.6 467.16C1191.5 467.16 1190.59 467.456 1189.89 468.048C1189.2 468.624 1188.86 469.432 1188.86 470.472ZM1189.48 481.104C1190.25 481.728 1191.29 482.04 1192.6 482.04C1193.91 482.04 1194.95 481.728 1195.72 481.104C1196.49 480.48 1196.87 479.616 1196.87 478.512C1196.87 477.408 1196.49 476.552 1195.72 475.944C1194.95 475.32 1193.91 475.008 1192.6 475.008C1191.29 475.008 1190.25 475.32 1189.48 475.944C1188.71 476.552 1188.33 477.408 1188.33 478.512C1188.33 479.616 1188.71 480.48 1189.48 481.104ZM1203.91 473.088C1202.85 473.088 1201.97 472.744 1201.27 472.056C1200.58 471.368 1200.24 470.52 1200.24 469.512C1200.24 468.504 1200.58 467.656 1201.27 466.968C1201.97 466.28 1202.85 465.936 1203.91 465.936C1204.97 465.936 1205.84 466.28 1206.53 466.968C1207.23 467.656 1207.58 468.504 1207.58 469.512C1207.58 470.52 1207.24 471.368 1206.55 472.056C1205.86 472.744 1204.98 473.088 1203.91 473.088ZM1202.13 471.288C1202.6 471.752 1203.19 471.984 1203.91 471.984C1204.63 471.984 1205.22 471.752 1205.69 471.288C1206.17 470.808 1206.41 470.216 1206.41 469.512C1206.41 468.808 1206.17 468.224 1205.69 467.76C1205.22 467.28 1204.63 467.04 1203.91 467.04C1203.19 467.04 1202.6 467.28 1202.13 467.76C1201.67 468.224 1201.44 468.808 1201.44 469.512C1201.44 470.216 1201.67 470.808 1202.13 471.288ZM1201.15 480.84L1212.55 468.024L1213.37 468.48L1201.94 481.296L1201.15 480.84ZM1213.32 482.232C1212.63 482.92 1211.76 483.264 1210.7 483.264C1209.65 483.264 1208.77 482.92 1208.06 482.232C1207.37 481.544 1207.03 480.696 1207.03 479.688C1207.03 478.68 1207.37 477.832 1208.06 477.144C1208.77 476.456 1209.65 476.112 1210.7 476.112C1211.76 476.112 1212.63 476.456 1213.32 477.144C1214.02 477.832 1214.37 478.68 1214.37 479.688C1214.37 480.696 1214.02 481.544 1213.32 482.232ZM1208.93 481.464C1209.39 481.928 1209.98 482.16 1210.7 482.16C1211.42 482.16 1212.01 481.928 1212.48 481.464C1212.96 480.984 1213.2 480.392 1213.2 479.688C1213.2 478.984 1212.96 478.4 1212.48 477.936C1212.01 477.456 1211.42 477.216 1210.7 477.216C1209.98 477.216 1209.39 477.456 1208.93 477.936C1208.46 478.4 1208.23 478.984 1208.23 479.688C1208.23 480.392 1208.46 480.984 1208.93 481.464Z" fill="black"/>
<defs>
<filter id="filter0_d_28_2" x="314" y="50" width="262" height="421.356" filterUnits="userSpaceOnUse" color-interpolation-filters="sRGB">
<feFlood flood-opacity="0" result="BackgroundImageFix"/>
<feColorMatrix in="SourceAlpha" type="matrix" values="0 0 0 0 0 0 0 0 0 0 0 0 0 0 0 0 0 0 127 0" result="hardAlpha"/>
<feOffset dx="8" dy="8"/>
<feGaussianBlur stdDeviation="2"/>
<feComposite in2="hardAlpha" operator="out"/>
<feColorMatrix type="matrix" values="0 0 0 0 0 0 0 0 0 0 0 0 0 0 0 0 0 0 0.25 0"/>
<feBlend mode="normal" in2="BackgroundImageFix" result="effect1_dropShadow_28_2"/>
<feBlend mode="normal" in="SourceGraphic" in2="effect1_dropShadow_28_2" result="shape"/>
</filter>
<filter id="filter1_d_28_2" x="68.4283" y="300" width="450.2" height="262" filterUnits="userSpaceOnUse" color-interpolation-filters="sRGB">
<feFlood flood-opacity="0" result="BackgroundImageFix"/>
<feColorMatrix in="SourceAlpha" type="matrix" values="0 0 0 0 0 0 0 0 0 0 0 0 0 0 0 0 0 0 127 0" result="hardAlpha"/>
<feOffset dx="8" dy="8"/>
<feGaussianBlur stdDeviation="2"/>
<feComposite in2="hardAlpha" operator="out"/>
<feColorMatrix type="matrix" values="0 0 0 0 0 0 0 0 0 0 0 0 0 0 0 0 0 0 0.25 0"/>
<feBlend mode="normal" in2="BackgroundImageFix" result="effect1_dropShadow_28_2"/>
<feBlend mode="normal" in="SourceGraphic" in2="effect1_dropShadow_28_2" result="shape"/>
</filter>
</defs>
</svg>
