<svg width="307" height="61" viewBox="0 0 307 61" fill="none" xmlns="http://www.w3.org/2000/svg">
<path d="M99.9496 25.5772C108.843 26.6013 115.042 28.8651 115.042 37.4891C115.042 43.7416 109.652 49.2394 99.5184 49.2394C88.9539 49.2394 83.9951 42.4479 83.9951 35.4409H91.1099C91.2177 38.3515 92.5653 43.2025 99.5184 43.2025C105.825 43.2025 107.711 40.0224 107.711 37.9203C107.711 35.3331 106.04 33.4466 99.5184 32.5842C88.7383 31.1828 85.2887 27.6793 85.2887 21.2112C85.2887 15.2822 90.6248 10.4312 99.6262 10.4312C109.49 10.4312 113.532 16.3602 113.64 22.5049H106.687C106.687 20.0254 105.016 16.468 99.5184 16.468C93.9667 16.468 92.5653 19.2708 92.5653 20.8878C92.5653 22.3432 93.266 24.8226 99.9496 25.5772Z" fill="white"/>
<path d="M130.243 19.9176C139.136 19.9176 144.472 26.4935 144.472 34.5785C144.472 42.6635 139.136 49.2394 130.243 49.2394C121.349 49.2394 116.013 42.6635 116.013 34.5785C116.013 26.4935 121.349 19.9176 130.243 19.9176ZM130.243 42.9869C134.932 42.9869 137.573 39.2139 137.573 34.5785C137.573 29.9431 134.932 26.1701 130.243 26.1701C125.553 26.1701 122.912 29.9431 122.912 34.5785C122.912 39.2139 125.553 42.9869 130.243 42.9869Z" fill="white"/>
<path d="M156.555 49.2394C150.411 49.2394 146.314 45.2508 146.314 37.1657V20.3488H153.214V34.7941C153.214 41.2082 154.884 42.9869 158.496 42.9869C162.484 42.9869 166.15 38.5132 166.15 31.9374V20.3488H173.049V48.8082H166.15V47.0295C166.15 45.3047 166.527 44.2806 167.012 43.1486C167.228 42.6635 167.551 41.9089 166.85 41.7472C166.419 41.6394 166.257 41.9628 166.042 42.394C164.64 45.1969 161.514 49.2394 156.555 49.2394Z" fill="white"/>
<path d="M183.397 26.4396C183.72 26.4935 183.99 26.0623 184.044 25.9006C185.768 21.9659 187.332 19.9176 194.285 19.9176V26.9247C186.254 26.3857 183.936 29.2424 183.936 36.465V48.8082H177.037V20.3488H183.936V21.912C183.936 23.1517 183.612 24.2297 183.127 25.1999C182.912 25.685 182.75 26.3318 183.397 26.4396Z" fill="white"/>
<path d="M193.539 34.5785C193.539 26.1162 199.091 19.9176 207.93 19.9176C215.908 19.9176 220.651 25.3077 221.136 31.1289H214.344C213.913 28.4339 211.811 26.1701 207.93 26.1701C203.187 26.1701 200.438 29.6197 200.438 34.5785C200.438 39.5373 203.187 42.9869 207.93 42.9869C211.811 42.9869 213.913 40.7231 214.344 38.0281H221.136C220.651 43.8494 215.961 49.2394 207.93 49.2394C199.252 49.2394 193.539 43.0408 193.539 34.5785Z" fill="white"/>
<path d="M249.89 34.2012C249.89 34.9558 249.836 35.4948 249.729 36.3033H229.031C229.516 40.6153 232.319 43.2025 236.631 43.2025C239.919 43.2025 241.59 41.4238 242.398 38.8905H249.405C248.166 44.7657 244.177 49.2394 236.577 49.2394C227.36 49.2394 222.293 43.0408 222.293 34.5785C222.293 25.685 227.791 19.9176 236.469 19.9176C243.045 19.9176 249.89 23.8524 249.89 34.2012ZM229.3 31.5601H242.991C242.722 28.1105 240.673 25.5233 236.685 25.5233C231.995 25.5233 230.001 28.1644 229.3 31.5601Z" fill="white"/>
<path d="M263.309 16.0368C260.398 16.0368 260.344 16.2524 260.344 19.3786V20.3488H268.106V26.3857H260.344V48.8082H253.445V26.3857H249.133V20.3488H253.445V18.7318C253.445 11.8865 256.14 10 261.853 10H268.106V16.0368H263.309Z" fill="white"/>
<path d="M279.326 49.2394C273.181 49.2394 269.085 45.2508 269.085 37.1657V20.3488H275.984V34.7941C275.984 41.2082 277.655 42.9869 281.266 42.9869C285.255 42.9869 288.92 38.5132 288.92 31.9374V20.3488H295.819V48.8082H288.92V47.0295C288.92 45.3047 289.297 44.2806 289.782 43.1486C289.998 42.6635 290.321 41.9089 289.621 41.7472C289.19 41.6394 289.028 41.9628 288.812 42.394C287.411 45.1969 284.285 49.2394 279.326 49.2394Z" fill="white"/>
<path d="M299.807 10H306.706V48.8082H299.807V10Z" fill="white"/>
<path fill-rule="evenodd" clip-rule="evenodd" d="M29.6 59.6C45.9476 59.6 59.2 46.3477 59.2 30C59.2 13.6524 45.9476 0.400024 29.6 0.400024C13.2524 0.400024 0 13.6524 0 30C0 46.3477 13.2524 59.6 29.6 59.6ZM31.4921 12.5L17.6745 29.2712C16.7974 30.3358 17.7237 31.916 19.0811 31.6706L25.5034 30.51C26.5919 30.3133 27.5041 31.3357 27.1851 32.3949L23.1016 45.95C22.6449 47.4662 24.566 48.5451 25.6229 47.3658L41.1336 30.0608C42.0232 29.0683 41.2518 27.4977 39.9225 27.5949L32.9337 28.1063C31.948 28.1784 31.1695 27.2833 31.3776 26.3172L34.0833 13.7537C34.4102 12.2362 32.4792 11.3019 31.4921 12.5Z" fill="white"/>
</svg>
