<svg width="308" height="61" viewBox="0 0 308 61" fill="none" xmlns="http://www.w3.org/2000/svg">
<path d="M100.496 25.5772C109.39 26.6013 115.588 28.8651 115.588 37.4891C115.588 43.7416 110.198 49.2394 100.065 49.2394C89.5003 49.2394 84.5415 42.4479 84.5415 35.4409H91.6563C91.7641 38.3515 93.1116 43.2025 100.065 43.2025C106.371 43.2025 108.258 40.0224 108.258 37.9203C108.258 35.3331 106.587 33.4466 100.065 32.5842C89.2847 31.1828 85.8351 27.6793 85.8351 21.2112C85.8351 15.2822 91.1712 10.4312 100.173 10.4312C110.036 10.4312 114.079 16.3602 114.187 22.5049H107.234C107.234 20.0254 105.563 16.468 100.065 16.468C94.513 16.468 93.1116 19.2708 93.1116 20.8878C93.1116 22.3432 93.8123 24.8226 100.496 25.5772Z" fill="white"/>
<path d="M130.789 19.9176C139.683 19.9176 145.019 26.4935 145.019 34.5785C145.019 42.6635 139.683 49.2394 130.789 49.2394C121.896 49.2394 116.56 42.6635 116.56 34.5785C116.56 26.4935 121.896 19.9176 130.789 19.9176ZM130.789 42.9869C135.478 42.9869 138.12 39.2139 138.12 34.5785C138.12 29.9431 135.478 26.1701 130.789 26.1701C126.1 26.1701 123.459 29.9431 123.459 34.5785C123.459 39.2139 126.1 42.9869 130.789 42.9869Z" fill="white"/>
<path d="M157.102 49.2394C150.957 49.2394 146.861 45.2508 146.861 37.1657V20.3488H153.76V34.7941C153.76 41.2082 155.431 42.9869 159.042 42.9869C163.031 42.9869 166.696 38.5132 166.696 31.9374V20.3488H173.595V48.8082H166.696V47.0295C166.696 45.3047 167.073 44.2806 167.558 43.1486C167.774 42.6635 168.097 41.9089 167.397 41.7472C166.965 41.6394 166.804 41.9628 166.588 42.394C165.187 45.1969 162.061 49.2394 157.102 49.2394Z" fill="white"/>
<path d="M183.943 26.4396C184.267 26.4935 184.536 26.0623 184.59 25.9006C186.315 21.9659 187.878 19.9176 194.831 19.9176V26.9247C186.8 26.3857 184.482 29.2424 184.482 36.465V48.8082H177.583V20.3488H184.482V21.912C184.482 23.1517 184.159 24.2297 183.674 25.1999C183.458 25.685 183.296 26.3318 183.943 26.4396Z" fill="white"/>
<path d="M194.085 34.5785C194.085 26.1162 199.637 19.9176 208.477 19.9176C216.454 19.9176 221.197 25.3077 221.682 31.1289H214.891C214.46 28.4339 212.357 26.1701 208.477 26.1701C203.733 26.1701 200.985 29.6197 200.985 34.5785C200.985 39.5373 203.733 42.9869 208.477 42.9869C212.357 42.9869 214.46 40.7231 214.891 38.0281H221.682C221.197 43.8494 216.508 49.2394 208.477 49.2394C199.799 49.2394 194.085 43.0408 194.085 34.5785Z" fill="white"/>
<path d="M250.437 34.2012C250.437 34.9558 250.383 35.4948 250.275 36.3033H229.577C230.062 40.6153 232.865 43.2025 237.177 43.2025C240.465 43.2025 242.136 41.4238 242.945 38.8905H249.952C248.712 44.7657 244.723 49.2394 237.123 49.2394C227.906 49.2394 222.84 43.0408 222.84 34.5785C222.84 25.685 228.338 19.9176 237.016 19.9176C243.591 19.9176 250.437 23.8524 250.437 34.2012ZM229.847 31.5601H243.538C243.268 28.1105 241.22 25.5233 237.231 25.5233C232.542 25.5233 230.548 28.1644 229.847 31.5601Z" fill="white"/>
<path d="M263.855 16.0368C260.944 16.0368 260.89 16.2524 260.89 19.3786V20.3488H268.652V26.3857H260.89V48.8082H253.991V26.3857H249.679V20.3488H253.991V18.7318C253.991 11.8865 256.686 10 262.4 10H268.652V16.0368H263.855Z" fill="white"/>
<path d="M279.872 49.2394C273.728 49.2394 269.631 45.2508 269.631 37.1657V20.3488H276.53V34.7941C276.53 41.2082 278.201 42.9869 281.813 42.9869C285.801 42.9869 289.466 38.5132 289.466 31.9374V20.3488H296.366V48.8082H289.466V47.0295C289.466 45.3047 289.844 44.2806 290.329 43.1486C290.544 42.6635 290.868 41.9089 290.167 41.7472C289.736 41.6394 289.574 41.9628 289.359 42.394C287.957 45.1969 284.831 49.2394 279.872 49.2394Z" fill="white"/>
<path d="M300.353 10H307.253V48.8082H300.353V10Z" fill="white"/>
<path fill-rule="evenodd" clip-rule="evenodd" d="M30.1464 59.6C46.494 59.6 59.7464 46.3477 59.7464 30C59.7464 13.6524 46.494 0.400024 30.1464 0.400024C13.7988 0.400024 0.546387 13.6524 0.546387 30C0.546387 46.3477 13.7988 59.6 30.1464 59.6ZM32.0385 12.5L18.2209 29.2712C17.3438 30.3358 18.2701 31.916 19.6275 31.6706L26.0498 30.51C27.1383 30.3133 28.0505 31.3357 27.7315 32.3949L23.648 45.95C23.1913 47.4662 25.1124 48.5451 26.1693 47.3658L41.68 30.0608C42.5696 29.0683 41.7981 27.4977 40.4689 27.5949L33.4801 28.1063C32.4944 28.1784 31.7159 27.2833 31.924 26.3172L34.6297 13.7537C34.9566 12.2362 33.0256 11.3019 32.0385 12.5Z" fill="#FFE500"/>
</svg>
