<svg width="617" height="81" viewBox="0 0 617 81" fill="none" xmlns="http://www.w3.org/2000/svg">
<ellipse cx="40.1264" cy="39.3788" rx="39.1672" ry="39.1859" fill="white"/>
<path d="M24.3461 38.4139L42.6297 16.2114C43.9358 14.6254 46.4909 15.8622 46.0584 17.8712L42.4782 34.5033C42.2028 35.7823 43.2329 36.9673 44.5372 36.8718L53.7849 36.1948C55.5438 36.0661 56.5645 38.1454 55.3874 39.4593L34.8635 62.3686C33.4649 63.9297 30.9229 62.5015 31.5273 60.4941L36.9306 42.5492C37.3527 41.1471 36.1456 39.7935 34.7053 40.054L26.2073 41.5905C24.4112 41.9152 23.1854 39.8233 24.3461 38.4139Z" fill="#2B2B2B"/>
<path d="M135.301 32.6357C145.78 33.8424 153.083 36.5098 153.083 46.6711C153.083 54.038 146.733 60.5159 134.793 60.5159C122.345 60.5159 116.503 52.5138 116.503 44.2578H124.886C125.013 47.6872 126.6 53.403 134.793 53.403C142.223 53.403 144.446 49.656 144.446 47.1791C144.446 44.1307 142.477 41.908 134.793 40.8918C122.091 39.2406 118.027 35.1126 118.027 27.4916C118.027 20.5057 124.314 14.7899 134.92 14.7899C146.542 14.7899 151.305 21.7758 151.432 29.0158H143.24C143.24 26.0944 141.271 21.9029 134.793 21.9029C128.252 21.9029 126.6 25.2053 126.6 27.1105C126.6 28.8253 127.426 31.7466 135.301 32.6357ZM171.629 25.9674C182.108 25.9674 188.395 33.7154 188.395 43.2416C188.395 52.7679 182.108 60.5159 171.629 60.5159C161.15 60.5159 154.863 52.7679 154.863 43.2416C154.863 33.7154 161.15 25.9674 171.629 25.9674ZM171.629 53.1489C177.154 53.1489 180.266 48.7033 180.266 43.2416C180.266 37.7799 177.154 33.3343 171.629 33.3343C166.104 33.3343 162.992 37.7799 162.992 43.2416C162.992 48.7033 166.104 53.1489 171.629 53.1489ZM203.267 60.5159C196.027 60.5159 191.201 55.8163 191.201 46.29V26.4755H199.33V43.4957C199.33 51.0531 201.299 53.1489 205.554 53.1489C210.253 53.1489 214.572 47.8777 214.572 40.1297V26.4755H222.701V60.0078H214.572V57.912C214.572 55.8798 215.016 54.6731 215.588 53.3394C215.842 52.7679 216.223 51.8788 215.397 51.6882C214.889 51.5612 214.699 51.9423 214.445 52.4503C212.794 55.7528 209.11 60.5159 203.267 60.5159ZM235.528 33.6519C235.91 33.7154 236.227 33.2073 236.291 33.0168C238.323 28.3807 240.165 25.9674 248.357 25.9674V34.2235C238.894 33.5884 236.164 36.9543 236.164 45.4644V60.0078H228.035V26.4755H236.164V28.3172C236.164 29.7779 235.783 31.048 235.211 32.1912C234.957 32.7628 234.766 33.5249 235.528 33.6519ZM248.114 43.2416C248.114 33.2708 254.655 25.9674 265.07 25.9674C274.469 25.9674 280.058 32.3182 280.63 39.1771H272.628C272.12 36.0017 269.643 33.3343 265.07 33.3343C259.482 33.3343 256.243 37.3989 256.243 43.2416C256.243 49.0844 259.482 53.1489 265.07 53.1489C269.643 53.1489 272.12 50.4816 272.628 47.3062H280.63C280.058 54.1651 274.533 60.5159 265.07 60.5159C254.845 60.5159 248.114 53.2124 248.114 43.2416ZM315.145 42.7971C315.145 43.6862 315.082 44.3213 314.955 45.2739H290.567C291.139 50.3546 294.441 53.403 299.522 53.403C303.396 53.403 305.365 51.3072 306.317 48.3223H314.573C313.113 55.2447 308.413 60.5159 299.458 60.5159C288.599 60.5159 282.629 53.2124 282.629 43.2416C282.629 32.7628 289.107 25.9674 299.331 25.9674C307.079 25.9674 315.145 30.6035 315.145 42.7971ZM290.885 39.6852H307.016C306.698 35.6206 304.285 32.5722 299.586 32.5722C294.06 32.5722 291.71 35.6841 290.885 39.6852ZM331.59 21.3948C328.161 21.3948 328.097 21.6488 328.097 25.3323V26.4755H337.242V33.5884H328.097V60.0078H319.968V33.5884H314.888V26.4755H319.968V24.5702C319.968 16.5046 323.144 14.2819 329.875 14.2819H337.242V21.3948H331.59ZM351.098 60.5159C343.858 60.5159 339.031 55.8163 339.031 46.29V26.4755H347.16V43.4957C347.16 51.0531 349.129 53.1489 353.384 53.1489C358.084 53.1489 362.402 47.8777 362.402 40.1297V26.4755H370.531V60.0078H362.402V57.912C362.402 55.8798 362.847 54.6731 363.418 53.3394C363.672 52.7679 364.053 51.8788 363.228 51.6882C362.72 51.5612 362.529 51.9423 362.275 52.4503C360.624 55.7528 356.94 60.5159 351.098 60.5159ZM375.865 14.2819H383.994V60.0078H375.865V14.2819Z" fill="white"/>
<path d="M435.824 22.919H412.961V34.0964H431.759V41.2094H412.961V52.3868H435.824V60.0078H404.323V15.298H435.824V22.919ZM460.071 25.9674C467.311 25.9674 472.137 30.667 472.137 40.1932V60.0078H464.008V42.9876C464.008 35.4301 462.04 33.3343 457.784 33.3343C453.085 33.3343 448.766 38.6055 448.766 46.3535V60.0078H440.637V26.4755H448.766V28.5712C448.766 30.6035 448.385 31.8101 447.75 33.1438C447.496 33.7154 447.115 34.6045 447.941 34.795C448.449 34.922 448.639 34.541 448.893 34.0329C450.418 30.667 454.228 25.9674 460.071 25.9674ZM507.435 42.7971C507.435 43.6862 507.372 44.3213 507.245 45.2739H482.857C483.429 50.3546 486.731 53.403 491.812 53.403C495.686 53.403 497.655 51.3072 498.607 48.3223H506.863C505.403 55.2447 500.703 60.5159 491.749 60.5159C480.889 60.5159 474.919 53.2124 474.919 43.2416C474.919 32.7628 481.397 25.9674 491.621 25.9674C499.37 25.9674 507.435 30.6035 507.435 42.7971ZM483.175 39.6852H499.306C498.988 35.6206 496.575 32.5722 491.876 32.5722C486.35 32.5722 484.001 35.6841 483.175 39.6852ZM517.72 33.6519C518.101 33.7154 518.419 33.2073 518.482 33.0168C520.514 28.3807 522.356 25.9674 530.549 25.9674V34.2235C521.086 33.5884 518.355 36.9543 518.355 45.4644V60.0078H510.226V26.4755H518.355V28.3172C518.355 29.7779 517.974 31.048 517.402 32.1912C517.148 32.7628 516.958 33.5249 517.72 33.6519ZM530.801 42.4795C530.801 33.4614 536.707 25.9674 545.408 25.9674C550.616 25.9674 553.855 28.5712 556.014 32.0642C556.077 32.1912 556.458 33.0168 557.03 32.7628C557.665 32.5087 557.221 31.6831 556.903 31.048C556.395 30.0954 556.204 29.2063 556.204 27.9996V26.4755H564.333V56.4513C564.333 67.1842 558.046 72.7095 547.758 72.7095C537.215 72.7095 532.389 67.0572 531.817 60.7699H539.819C540.2 63.8183 542.233 66.1046 547.631 66.1046C553.347 66.1046 556.204 62.9292 556.204 56.7689C556.204 55.6257 556.395 54.7366 556.903 53.784C557.221 53.1489 557.665 52.5138 557.03 52.1963C556.458 51.9423 556.141 52.5138 556.014 52.7679C553.855 56.4513 550.489 58.9917 545.408 58.9917C536.707 58.9917 530.801 51.4977 530.801 42.4795ZM547.313 51.6247C552.648 51.6247 556.204 47.4332 556.204 42.4795C556.204 37.5259 552.648 33.3343 547.313 33.3343C541.598 33.3343 538.93 37.5259 538.93 42.4795C538.93 47.4332 541.598 51.6247 547.313 51.6247ZM566.137 26.4755H574.774L582.268 48.1318C582.713 49.4654 582.776 50.6721 582.776 51.9423C582.776 52.3868 582.84 53.0219 583.538 53.0219C584.237 53.0219 584.3 52.4503 584.3 51.9423C584.3 50.7356 584.427 49.4654 584.872 48.1318L592.048 26.4755H600.686L586.46 63.8818C584.173 69.8516 580.998 72.2014 575.155 72.2014H569.058V65.0885H571.853C576.679 65.0885 577.632 65.0885 578.521 62.4846L579.22 60.4524L566.137 26.4755Z" fill="white" fill-opacity="0.7"/>
</svg>
