<svg width="86" height="85" viewBox="0 0 86 85" fill="none" xmlns="http://www.w3.org/2000/svg">
<path fill-rule="evenodd" clip-rule="evenodd" d="M43.1812 84.5C66.3771 84.5 85.1812 65.696 85.1812 42.5C85.1812 19.304 66.3771 0.5 43.1812 0.5C19.9852 0.5 1.18115 19.304 1.18115 42.5C1.18115 65.696 19.9852 84.5 43.1812 84.5ZM45.8658 17.6689L26.2597 41.4658C25.0152 42.9764 26.3296 45.2186 28.2556 44.8705L37.3683 43.2236C38.9128 42.9445 40.2072 44.3953 39.7545 45.8981L33.9604 65.1317C33.3123 67.2831 36.0381 68.8139 37.5379 67.1407L59.5463 42.5863C60.8085 41.178 59.7139 38.9493 57.8278 39.0873L47.9113 39.8129C46.5127 39.9153 45.408 38.6452 45.7033 37.2743L49.5425 19.4478C50.0063 17.2946 47.2664 15.9689 45.8658 17.6689Z" fill="#017E7A"/>
</svg>
