<svg width="223" height="144" viewBox="0 0 223 144" fill="none" xmlns="http://www.w3.org/2000/svg">
<path d="M15.955 119.444C24.8485 120.468 31.047 122.732 31.047 131.356C31.047 137.609 25.657 143.107 15.5238 143.107C4.95931 143.107 0.000488281 136.315 0.000488281 129.308H7.11532C7.22312 132.219 8.57063 137.07 15.5238 137.07C21.8301 137.07 23.7166 133.89 23.7166 131.788C23.7166 129.2 22.0457 127.314 15.5238 126.451C4.74371 125.05 1.29409 121.546 1.29409 115.078C1.29409 109.149 6.63022 104.298 15.6316 104.298C25.4953 104.298 29.5378 110.227 29.6456 116.372H22.6925C22.6925 113.893 21.0216 110.335 15.5238 110.335C9.97203 110.335 8.57063 113.138 8.57063 114.755C8.57063 116.21 9.27133 118.69 15.955 119.444Z" fill="white"/>
<path d="M46.2482 113.785C55.1417 113.785 60.4778 120.361 60.4778 128.446C60.4778 136.531 55.1417 143.107 46.2482 143.107C37.3546 143.107 32.0185 136.531 32.0185 128.446C32.0185 120.361 37.3546 113.785 46.2482 113.785ZM46.2482 136.854C50.9375 136.854 53.5786 133.081 53.5786 128.446C53.5786 123.81 50.9375 120.037 46.2482 120.037C41.5588 120.037 38.9177 123.81 38.9177 128.446C38.9177 133.081 41.5588 136.854 46.2482 136.854Z" fill="white"/>
<path d="M72.5607 143.107C66.4161 143.107 62.3197 139.118 62.3197 131.033V114.216H69.2189V128.661C69.2189 135.075 70.8898 136.854 74.5011 136.854C78.4898 136.854 82.155 132.38 82.155 125.805V114.216H89.0542V142.675H82.155V140.897C82.155 139.172 82.5323 138.148 83.0174 137.016C83.233 136.531 83.5564 135.776 82.8557 135.614C82.4245 135.507 82.2628 135.83 82.0472 136.261C80.6458 139.064 77.5196 143.107 72.5607 143.107Z" fill="white"/>
<path d="M99.4022 120.307C99.7256 120.361 99.9951 119.929 100.049 119.768C101.774 115.833 103.337 113.785 110.29 113.785V120.792C102.259 120.253 99.9412 123.11 99.9412 130.332V142.675H93.042V114.216H99.9412V115.779C99.9412 117.019 99.6178 118.097 99.1327 119.067C98.9171 119.552 98.7554 120.199 99.4022 120.307Z" fill="white"/>
<path d="M109.544 128.446C109.544 119.983 115.096 113.785 123.936 113.785C131.913 113.785 136.656 119.175 137.141 124.996H130.35C129.919 122.301 127.816 120.037 123.936 120.037C119.192 120.037 116.444 123.487 116.444 128.446C116.444 133.405 119.192 136.854 123.936 136.854C127.816 136.854 129.919 134.59 130.35 131.895H137.141C136.656 137.717 131.967 143.107 123.936 143.107C115.258 143.107 109.544 136.908 109.544 128.446Z" fill="white"/>
<path d="M165.896 128.068C165.896 128.823 165.842 129.362 165.734 130.171H145.036C145.521 134.483 148.324 137.07 152.636 137.07C155.924 137.07 157.595 135.291 158.404 132.758H165.411C164.171 138.633 160.182 143.107 152.582 143.107C143.365 143.107 138.299 136.908 138.299 128.446C138.299 119.552 143.797 113.785 152.475 113.785C159.05 113.785 165.896 117.72 165.896 128.068ZM145.306 125.427H158.997C158.727 121.978 156.679 119.39 152.69 119.39C148.001 119.39 146.007 122.032 145.306 125.427Z" fill="white"/>
<path d="M179.314 109.904C176.403 109.904 176.349 110.12 176.349 113.246V114.216H184.111V120.253H176.349V142.675H169.45V120.253H165.138V114.216H169.45V112.599C169.45 105.754 172.145 103.867 177.859 103.867H184.111V109.904H179.314Z" fill="white"/>
<path d="M195.331 143.107C189.187 143.107 185.09 139.118 185.09 131.033V114.216H191.989V128.661C191.989 135.075 193.66 136.854 197.272 136.854C201.26 136.854 204.925 132.38 204.925 125.805V114.216H211.825V142.675H204.925V140.897C204.925 139.172 205.303 138.148 205.788 137.016C206.003 136.531 206.327 135.776 205.626 135.614C205.195 135.507 205.033 135.83 204.818 136.261C203.416 139.064 200.29 143.107 195.331 143.107Z" fill="white"/>
<path d="M215.812 103.867H222.712V142.675H215.812V103.867Z" fill="white"/>
<path fill-rule="evenodd" clip-rule="evenodd" d="M111.601 84.6671C134.797 84.6671 153.601 65.8631 153.601 42.6671C153.601 19.4712 134.797 0.667114 111.601 0.667114C88.4046 0.667114 69.6006 19.4712 69.6006 42.6671C69.6006 65.8631 88.4046 84.6671 111.601 84.6671ZM114.285 17.836L94.679 41.6329C93.4344 43.1435 94.7488 45.3857 96.6749 45.0376L105.788 43.3907C107.332 43.1116 108.626 44.5624 108.174 46.0652L102.38 65.2988C101.732 67.4502 104.457 68.981 105.957 67.3078L127.966 42.7534C129.228 41.3451 128.133 39.1164 126.247 39.2545L116.331 39.9801C114.932 40.0824 113.827 38.8124 114.123 37.4414L117.962 19.615C118.426 17.4617 115.686 16.136 114.285 17.836Z" fill="white"/>
</svg>
