<svg width="224" height="144" viewBox="0 0 224 144" fill="none" xmlns="http://www.w3.org/2000/svg">
<path fill-rule="evenodd" clip-rule="evenodd" d="M112.274 84.7998C135.47 84.7998 154.274 65.9958 154.274 42.7998C154.274 19.6038 135.47 0.799805 112.274 0.799805C89.078 0.799805 70.2739 19.6038 70.2739 42.7998C70.2739 65.9958 89.078 84.7998 112.274 84.7998ZM114.958 17.9687L95.3524 41.7656C94.1078 43.2762 95.4222 45.5184 97.3482 45.1703L106.461 43.5234C108.005 43.2443 109.3 44.6951 108.847 46.1979L103.053 65.4315C102.405 67.5829 105.131 69.1137 106.63 67.4405L128.639 42.8861C129.901 41.4778 128.807 39.2491 126.92 39.3871L117.004 40.1127C115.605 40.2151 114.501 38.945 114.796 37.5741L118.635 19.7476C119.099 17.5944 116.359 16.2687 114.958 17.9687Z" fill="#017E7A"/>
<path d="M16.6283 119.577C25.5218 120.601 31.7204 122.865 31.7204 131.489C31.7204 137.742 26.3303 143.239 16.1971 143.239C5.63265 143.239 0.673828 136.448 0.673828 129.441H7.78866C7.89646 132.352 9.24397 137.203 16.1971 137.203C22.5034 137.203 24.3899 134.022 24.3899 131.92C24.3899 129.333 22.719 127.447 16.1971 126.584C5.41705 125.183 1.96743 121.679 1.96743 115.211C1.96743 109.282 7.30356 104.431 16.3049 104.431C26.1686 104.431 30.2112 110.36 30.319 116.505H23.3658C23.3658 114.025 21.6949 110.468 16.1971 110.468C10.6454 110.468 9.24397 113.271 9.24397 114.888C9.24397 116.343 9.94467 118.823 16.6283 119.577Z" fill="#19213D"/>
<path d="M46.9215 113.918C55.815 113.918 61.1512 120.493 61.1512 128.579C61.1512 136.664 55.815 143.239 46.9215 143.239C38.028 143.239 32.6918 136.664 32.6918 128.579C32.6918 120.493 38.028 113.918 46.9215 113.918ZM46.9215 136.987C51.6108 136.987 54.2519 133.214 54.2519 128.579C54.2519 123.943 51.6108 120.17 46.9215 120.17C42.2322 120.17 39.5911 123.943 39.5911 128.579C39.5911 133.214 42.2322 136.987 46.9215 136.987Z" fill="#19213D"/>
<path d="M73.2341 143.239C67.0894 143.239 62.993 139.251 62.993 131.166V114.349H69.8923V128.794C69.8923 135.208 71.5632 136.987 75.1745 136.987C79.1631 136.987 82.8283 132.513 82.8283 125.937V114.349H89.7276V142.808H82.8283V141.029C82.8283 139.305 83.2056 138.281 83.6907 137.149C83.9063 136.664 84.2297 135.909 83.529 135.747C83.0978 135.639 82.9361 135.963 82.7205 136.394C81.3191 139.197 78.1929 143.239 73.2341 143.239Z" fill="#19213D"/>
<path d="M100.076 120.44C100.399 120.493 100.668 120.062 100.722 119.901C102.447 115.966 104.01 113.918 110.963 113.918V120.925C102.932 120.386 100.615 123.242 100.615 130.465V142.808H93.7153V114.349H100.615V115.912C100.615 117.152 100.291 118.23 99.8061 119.2C99.5905 119.685 99.4288 120.332 100.076 120.44Z" fill="#19213D"/>
<path d="M110.218 128.579C110.218 120.116 115.769 113.918 124.609 113.918C132.586 113.918 137.329 119.308 137.815 125.129H131.023C130.592 122.434 128.49 120.17 124.609 120.17C119.866 120.17 117.117 123.62 117.117 128.579C117.117 133.537 119.866 136.987 124.609 136.987C128.49 136.987 130.592 134.723 131.023 132.028H137.815C137.329 137.849 132.64 143.239 124.609 143.239C115.931 143.239 110.218 137.041 110.218 128.579Z" fill="#19213D"/>
<path d="M166.569 128.201C166.569 128.956 166.515 129.495 166.407 130.303H145.71C146.195 134.615 148.998 137.203 153.31 137.203C156.598 137.203 158.268 135.424 159.077 132.891H166.084C164.844 138.766 160.856 143.239 153.256 143.239C144.039 143.239 138.972 137.041 138.972 128.579C138.972 119.685 144.47 113.918 153.148 113.918C159.724 113.918 166.569 117.852 166.569 128.201ZM145.979 125.56H159.67C159.4 122.11 157.352 119.523 153.364 119.523C148.674 119.523 146.68 122.164 145.979 125.56Z" fill="#19213D"/>
<path d="M179.987 110.037C177.077 110.037 177.023 110.252 177.023 113.379V114.349H184.784V120.386H177.023V142.808H170.124V120.386H165.812V114.349H170.124V112.732C170.124 105.887 172.819 104 178.532 104H184.784V110.037H179.987Z" fill="#19213D"/>
<path d="M196.005 143.239C189.86 143.239 185.763 139.251 185.763 131.166V114.349H192.663V128.794C192.663 135.208 194.334 136.987 197.945 136.987C201.934 136.987 205.599 132.513 205.599 125.937V114.349H212.498V142.808H205.599V141.029C205.599 139.305 205.976 138.281 206.461 137.149C206.677 136.664 207 135.909 206.299 135.747C205.868 135.639 205.707 135.963 205.491 136.394C204.09 139.197 200.963 143.239 196.005 143.239Z" fill="#19213D"/>
<path d="M216.486 104H223.385V142.808H216.486V104Z" fill="#19213D"/>
</svg>
