<svg xmlns="http://www.w3.org/2000/svg" xmlns:xlink="http://www.w3.org/1999/xlink" width="500" zoomAndPan="magnify" viewBox="0 0 375 374.999991" height="500" preserveAspectRatio="xMidYMid meet" version="1.0"><path fill="#00bf63" d="M 347.4375 281.179688 C 277.097656 232.277344 231.851562 205.332031 318.925781 224 C 234.542969 195.492188 287.210938 195.167969 372.652344 187.964844 C 287.210938 180.761719 234.542969 180.4375 318.925781 151.933594 C 231.851562 170.601562 277.097656 143.65625 347.4375 94.75 C 270.296875 132.050781 224.660156 158.285156 284.027344 91.90625 C 217.652344 151.273438 243.882812 105.628906 281.179688 28.492188 C 232.277344 98.828125 205.332031 144.078125 224.003906 57 C 195.492188 141.382812 195.171875 88.71875 187.964844 3.277344 C 180.761719 88.71875 180.4375 141.382812 151.933594 57 C 170.601562 144.074219 143.65625 98.832031 94.75 28.488281 C 132.050781 105.625 158.285156 151.269531 91.90625 91.90625 C 151.273438 158.28125 105.628906 132.046875 28.492188 94.746094 C 98.832031 143.652344 144.078125 170.597656 57.003906 151.929688 C 141.382812 180.4375 88.71875 180.761719 3.277344 187.964844 C 88.71875 195.167969 141.382812 195.492188 57 224 C 144.074219 205.332031 98.828125 232.277344 28.488281 281.179688 C 105.625 243.878906 151.269531 217.652344 91.90625 284.027344 C 158.28125 224.660156 132.046875 270.296875 94.746094 347.4375 C 143.652344 277.097656 170.597656 231.851562 151.929688 318.925781 C 180.4375 234.542969 180.757812 287.210938 187.960938 372.652344 C 195.167969 287.210938 195.488281 234.542969 224 318.925781 C 205.328125 231.851562 232.273438 277.097656 281.179688 347.4375 C 243.875 270.308594 217.648438 224.660156 284.023438 284.027344 C 224.660156 217.652344 270.308594 243.878906 347.4375 281.179688 Z M 187.964844 247.8125 C 154.914062 247.8125 128.117188 221.019531 128.117188 187.964844 C 128.117188 154.914062 154.914062 128.117188 187.964844 128.117188 C 221.019531 128.117188 247.8125 154.914062 247.8125 187.964844 C 247.8125 221.019531 221.019531 247.8125 187.964844 247.8125 Z M 187.964844 247.8125 " fill-opacity="1" fill-rule="nonzero"/></svg>