<?xml version="1.0" encoding="iso-8859-1"?>
<!-- Generator: Adobe Illustrator 16.0.0, SVG Export Plug-In . SVG Version: 6.00 Build 0)  -->
<!DOCTYPE svg PUBLIC "-//W3C//DTD SVG 1.1//EN" "http://www.w3.org/Graphics/SVG/1.1/DTD/svg11.dtd">
<svg version="1.1" id="Capa_1" xmlns="http://www.w3.org/2000/svg" xmlns:xlink="http://www.w3.org/1999/xlink" x="0px" y="0px"
	 width="46px" height="46px" viewBox="0 0 46 46" style="enable-background:new 0 0 46 46;" xml:space="preserve">
<g>
	<g id="More">
		<g>
			<path d="M23.5,20h-1c-1.381,0-2.5,1.119-2.5,2.5v1c0,1.381,1.119,2.5,2.5,2.5h1c1.381,0,2.5-1.119,2.5-2.5v-1
				C26,21.119,24.881,20,23.5,20z M14.5,20h-1c-1.381,0-2.5,1.119-2.5,2.5v1c0,1.381,1.119,2.5,2.5,2.5h1c1.381,0,2.5-1.119,2.5-2.5
				v-1C17,21.119,15.881,20,14.5,20z M23,0C10.297,0,0,10.298,0,23s10.297,23,23,23c12.702,0,23-10.298,23-23S35.702,0,23,0z M23,42
				C12.507,42,4,33.493,4,23S12.507,4,23,4s19,8.507,19,19S33.493,42,23,42z M32.5,20h-1c-1.381,0-2.5,1.119-2.5,2.5v1
				c0,1.381,1.119,2.5,2.5,2.5h1c1.381,0,2.5-1.119,2.5-2.5v-1C35,21.119,33.881,20,32.5,20z"/>
		</g>
	</g>
</g>
<g>
</g>
<g>
</g>
<g>
</g>
<g>
</g>
<g>
</g>
<g>
</g>
<g>
</g>
<g>
</g>
<g>
</g>
<g>
</g>
<g>
</g>
<g>
</g>
<g>
</g>
<g>
</g>
<g>
</g>
</svg>
