<svg width="1295" height="600" viewBox="0 0 1295 600" fill="none" xmlns="http://www.w3.org/2000/svg">
<path d="M314 50C353.453 50 392.345 59.3373 427.498 77.2484C462.65 95.1595 493.065 121.136 516.254 153.054C539.444 184.971 554.75 221.924 560.922 260.891C567.094 299.858 563.956 339.733 551.764 377.254C539.573 414.776 518.674 448.879 490.777 476.777C462.88 504.674 428.776 525.573 391.254 537.764C353.733 549.956 313.858 553.094 274.891 546.922C235.925 540.75 198.972 525.444 167.054 502.254L314 300L314 50Z" fill="#00BF63"/>
<path d="M142.776 117.84C189.108 74.2893 250.294 50.0303 313.881 50L314 300L142.776 117.84Z" fill="#AD9024"/>
<path d="M167.054 502.254C124.342 471.222 92.5503 427.465 76.2358 377.254C59.9214 327.043 59.9214 272.956 76.2359 222.746L314 300L167.054 502.254Z" fill="#112532"/>
<path d="M76.2359 222.746C89.2486 182.697 112.167 146.583 142.864 117.757L314 300L76.2359 222.746Z" fill="#6E6E6E"/>
<rect x="730" y="100" width="50" height="40" fill="#00BF63"/>
<rect x="730" y="220" width="50" height="40" fill="#112532"/>
<rect x="730" y="341" width="50" height="40" fill="#6E6E6E"/>
<path d="M805.864 128.264C803.336 128.264 801.248 127.432 799.6 125.768C797.952 124.088 797.128 122.032 797.128 119.6C797.128 117.168 797.952 115.12 799.6 113.456C801.248 111.776 803.336 110.936 805.864 110.936C807.4 110.936 808.808 111.304 810.088 112.04C811.368 112.76 812.36 113.736 813.064 114.968L811.936 115.616C811.376 114.576 810.552 113.744 809.464 113.12C808.376 112.48 807.176 112.16 805.864 112.16C803.688 112.16 801.896 112.88 800.488 114.32C799.096 115.744 798.4 117.504 798.4 119.6C798.4 121.696 799.096 123.464 800.488 124.904C801.896 126.328 803.688 127.04 805.864 127.04C807.176 127.04 808.384 126.72 809.488 126.08C810.592 125.44 811.424 124.584 811.984 123.512L813.112 124.16C812.424 125.408 811.432 126.408 810.136 127.16C808.84 127.896 807.416 128.264 805.864 128.264ZM821.25 128.264C819.49 128.264 817.994 127.664 816.762 126.464C815.546 125.248 814.938 123.76 814.938 122C814.938 120.24 815.546 118.76 816.762 117.56C817.994 116.344 819.49 115.736 821.25 115.736C822.994 115.736 824.474 116.344 825.69 117.56C826.922 118.76 827.538 120.24 827.538 122C827.538 123.76 826.922 125.248 825.69 126.464C824.474 127.664 822.994 128.264 821.25 128.264ZM817.626 125.624C818.618 126.616 819.826 127.112 821.25 127.112C822.674 127.112 823.874 126.616 824.85 125.624C825.826 124.632 826.314 123.424 826.314 122C826.314 120.576 825.826 119.368 824.85 118.376C823.874 117.384 822.674 116.888 821.25 116.888C819.826 116.888 818.618 117.384 817.626 118.376C816.65 119.368 816.162 120.576 816.162 122C816.162 123.424 816.65 124.632 817.626 125.624ZM835.922 115.736C837.346 115.736 838.474 116.176 839.306 117.056C840.154 117.92 840.578 119.08 840.578 120.536V128H839.354V120.536C839.354 119.416 839.042 118.528 838.418 117.872C837.81 117.216 836.946 116.888 835.826 116.888C834.594 116.888 833.586 117.296 832.802 118.112C832.018 118.928 831.626 120.112 831.626 121.664V128H830.426V116H831.626V118.28C832.49 116.584 833.922 115.736 835.922 115.736ZM850.117 117.176H846.541V124.976C846.541 125.664 846.669 126.16 846.925 126.464C847.181 126.768 847.573 126.944 848.101 126.992C848.629 127.024 849.301 127 850.117 126.92V128C848.501 128.24 847.293 128.128 846.493 127.664C845.709 127.2 845.317 126.304 845.317 124.976V117.176H842.677V116H845.317V113L846.541 112.64V116H850.117V117.176ZM854.196 118.352C854.916 116.672 856.252 115.832 858.204 115.832V116.984C857.068 116.984 856.116 117.352 855.348 118.088C854.58 118.808 854.196 119.888 854.196 121.328V128H852.996V116H854.196V118.352ZM861.909 112.832C861.717 113.008 861.493 113.096 861.237 113.096C860.981 113.096 860.757 113.008 860.565 112.832C860.373 112.64 860.277 112.408 860.277 112.136C860.277 111.88 860.373 111.664 860.565 111.488C860.757 111.296 860.981 111.2 861.237 111.2C861.493 111.2 861.717 111.296 861.909 111.488C862.101 111.664 862.197 111.88 862.197 112.136C862.197 112.408 862.101 112.64 861.909 112.832ZM860.637 128V116H861.837V128H860.637ZM871.896 115.736C873.624 115.736 875.088 116.344 876.288 117.56C877.504 118.76 878.112 120.24 878.112 122C878.112 123.76 877.504 125.248 876.288 126.464C875.088 127.664 873.624 128.264 871.896 128.264C870.76 128.264 869.736 127.992 868.824 127.448C867.928 126.904 867.232 126.16 866.736 125.216V128H865.536V111.2H866.736V118.784C867.232 117.84 867.928 117.096 868.824 116.552C869.736 116.008 870.76 115.736 871.896 115.736ZM868.2 125.624C869.192 126.616 870.4 127.112 871.824 127.112C873.248 127.112 874.448 126.616 875.424 125.624C876.416 124.632 876.911 123.424 876.911 122C876.911 120.576 876.416 119.368 875.424 118.376C874.448 117.384 873.248 116.888 871.824 116.888C870.4 116.888 869.192 117.384 868.2 118.376C867.224 119.368 866.736 120.576 866.736 122C866.736 123.424 867.224 124.632 868.2 125.624ZM889.644 116H890.844V128H889.644V125.72C888.78 127.416 887.348 128.264 885.348 128.264C883.924 128.264 882.788 127.832 881.94 126.968C881.108 126.088 880.692 124.92 880.692 123.464V116H881.916V123.464C881.916 124.584 882.22 125.472 882.828 126.128C883.452 126.784 884.324 127.112 885.444 127.112C886.676 127.112 887.684 126.704 888.468 125.888C889.252 125.072 889.644 123.888 889.644 122.336V116ZM900.695 117.176H897.119V124.976C897.119 125.664 897.247 126.16 897.503 126.464C897.759 126.768 898.151 126.944 898.679 126.992C899.207 127.024 899.879 127 900.695 126.92V128C899.079 128.24 897.871 128.128 897.071 127.664C896.287 127.2 895.895 126.304 895.895 124.976V117.176H893.255V116H895.895V113L897.119 112.64V116H900.695V117.176ZM908.344 128.264C906.584 128.264 905.088 127.664 903.856 126.464C902.64 125.248 902.032 123.76 902.032 122C902.032 120.24 902.64 118.76 903.856 117.56C905.088 116.344 906.584 115.736 908.344 115.736C910.088 115.736 911.568 116.344 912.784 117.56C914.016 118.76 914.632 120.24 914.632 122C914.632 123.76 914.016 125.248 912.784 126.464C911.568 127.664 910.088 128.264 908.344 128.264ZM904.72 125.624C905.712 126.616 906.92 127.112 908.344 127.112C909.768 127.112 910.968 126.616 911.944 125.624C912.92 124.632 913.408 123.424 913.408 122C913.408 120.576 912.92 119.368 911.944 118.376C910.968 117.384 909.768 116.888 908.344 116.888C906.92 116.888 905.712 117.384 904.72 118.376C903.744 119.368 903.256 120.576 903.256 122C903.256 123.424 903.744 124.632 904.72 125.624ZM918.72 118.352C919.44 116.672 920.776 115.832 922.728 115.832V116.984C921.592 116.984 920.64 117.352 919.872 118.088C919.104 118.808 918.72 119.888 918.72 121.328V128H917.52V116H918.72V118.352ZM925.508 119.144C925.508 119.736 925.756 120.2 926.252 120.536C926.748 120.872 927.356 121.128 928.076 121.304C928.796 121.464 929.508 121.648 930.212 121.856C930.932 122.064 931.54 122.416 932.036 122.912C932.532 123.392 932.78 124.04 932.78 124.856C932.78 125.848 932.38 126.664 931.58 127.304C930.796 127.944 929.764 128.264 928.484 128.264C927.332 128.264 926.356 128.024 925.556 127.544C924.772 127.048 924.228 126.4 923.924 125.6L924.956 125C925.18 125.656 925.596 126.176 926.204 126.56C926.828 126.928 927.588 127.112 928.484 127.112C929.38 127.112 930.116 126.92 930.692 126.536C931.284 126.136 931.58 125.576 931.58 124.856C931.58 124.264 931.332 123.792 930.836 123.44C930.34 123.088 929.732 122.832 929.012 122.672C928.292 122.496 927.572 122.304 926.852 122.096C926.148 121.888 925.548 121.544 925.052 121.064C924.556 120.584 924.308 119.944 924.308 119.144C924.308 118.184 924.684 117.376 925.436 116.72C926.204 116.064 927.188 115.736 928.388 115.736C929.348 115.736 930.18 115.952 930.884 116.384C931.604 116.816 932.132 117.4 932.468 118.136L931.46 118.712C931.22 118.12 930.82 117.672 930.26 117.368C929.7 117.048 929.076 116.888 928.388 116.888C927.572 116.888 926.884 117.096 926.324 117.512C925.78 117.912 925.508 118.456 925.508 119.144Z" fill="black"/>
<path d="M803.224 248.264C801.672 248.264 800.352 247.912 799.264 247.208C798.192 246.488 797.464 245.52 797.08 244.304L798.184 243.656C798.488 244.696 799.064 245.52 799.912 246.128C800.776 246.736 801.88 247.04 803.224 247.04C804.584 247.04 805.624 246.728 806.344 246.104C807.08 245.48 807.448 244.672 807.448 243.68C807.448 242.752 807.096 242.04 806.392 241.544C805.688 241.048 804.592 240.56 803.104 240.08C802.56 239.904 802.16 239.776 801.904 239.696C801.664 239.6 801.312 239.464 800.848 239.288C800.384 239.096 800.04 238.928 799.816 238.784C799.592 238.64 799.32 238.448 799 238.208C798.696 237.968 798.472 237.728 798.328 237.488C798.184 237.232 798.056 236.936 797.944 236.6C797.832 236.248 797.776 235.864 797.776 235.448C797.776 234.088 798.256 233 799.216 232.184C800.192 231.352 801.408 230.936 802.864 230.936C804.176 230.936 805.296 231.264 806.224 231.92C807.152 232.576 807.832 233.424 808.264 234.464L807.184 235.064C806.384 233.128 804.944 232.16 802.864 232.16C801.712 232.16 800.792 232.464 800.104 233.072C799.416 233.68 799.072 234.456 799.072 235.4C799.072 236.312 799.392 236.992 800.032 237.44C800.672 237.888 801.72 238.352 803.176 238.832C804.104 239.136 804.824 239.4 805.336 239.624C805.864 239.832 806.424 240.128 807.016 240.512C807.624 240.88 808.064 241.328 808.336 241.856C808.608 242.368 808.744 242.968 808.744 243.656C808.744 245.048 808.24 246.168 807.232 247.016C806.224 247.848 804.888 248.264 803.224 248.264ZM812.829 238.352C813.549 236.672 814.885 235.832 816.837 235.832V236.984C815.701 236.984 814.749 237.352 813.981 238.088C813.213 238.808 812.829 239.888 812.829 241.328V248H811.629V236H812.829V238.352ZM824.039 248.264C822.231 248.264 820.727 247.664 819.527 246.464C818.327 245.264 817.727 243.776 817.727 242C817.727 240.224 818.327 238.736 819.527 237.536C820.727 236.336 822.231 235.736 824.039 235.736C825.207 235.736 826.263 236.016 827.207 236.576C828.151 237.12 828.839 237.864 829.271 238.808L828.287 239.384C827.935 238.616 827.375 238.008 826.607 237.56C825.855 237.112 824.999 236.888 824.039 236.888C822.599 236.888 821.391 237.384 820.415 238.376C819.439 239.352 818.951 240.56 818.951 242C818.951 243.44 819.439 244.656 820.415 245.648C821.391 246.624 822.599 247.112 824.039 247.112C824.999 247.112 825.855 246.888 826.607 246.44C827.375 245.992 827.959 245.384 828.359 244.616L829.367 245.216C828.887 246.144 828.167 246.888 827.207 247.448C826.263 247.992 825.207 248.264 824.039 248.264ZM837.66 232.088C835.276 231.896 834.084 232.984 834.084 235.352V236H837.66V237.176H834.084V248H832.86V237.176H830.796V236H832.86V235.352C832.86 233.848 833.268 232.712 834.084 231.944C834.916 231.16 836.108 230.824 837.66 230.936V232.088ZM848.16 236H849.36V248H848.16V245.72C847.296 247.416 845.864 248.264 843.864 248.264C842.44 248.264 841.304 247.832 840.456 246.968C839.624 246.088 839.208 244.92 839.208 243.464V236H840.432V243.464C840.432 244.584 840.736 245.472 841.344 246.128C841.968 246.784 842.84 247.112 843.96 247.112C845.192 247.112 846.2 246.704 846.984 245.888C847.768 245.072 848.16 243.888 848.16 242.336V236ZM853.067 248V230.48H854.267V248H853.067ZM873.916 232.4H865.876V239.12H873.628V240.32H865.876V248H864.604V231.2H873.916V232.4ZM882.282 248.264C880.522 248.264 879.026 247.664 877.794 246.464C876.578 245.248 875.97 243.76 875.97 242C875.97 240.24 876.578 238.76 877.794 237.56C879.026 236.344 880.522 235.736 882.282 235.736C884.026 235.736 885.506 236.344 886.722 237.56C887.954 238.76 888.57 240.24 888.57 242C888.57 243.76 887.954 245.248 886.722 246.464C885.506 247.664 884.026 248.264 882.282 248.264ZM878.658 245.624C879.65 246.616 880.858 247.112 882.282 247.112C883.706 247.112 884.906 246.616 885.882 245.624C886.858 244.632 887.346 243.424 887.346 242C887.346 240.576 886.858 239.368 885.882 238.376C884.906 237.384 883.706 236.888 882.282 236.888C880.858 236.888 879.65 237.384 878.658 238.376C877.682 239.368 877.194 240.576 877.194 242C877.194 243.424 877.682 244.632 878.658 245.624ZM900.097 236H901.297V248H900.097V245.72C899.233 247.416 897.801 248.264 895.801 248.264C894.377 248.264 893.241 247.832 892.393 246.968C891.561 246.088 891.145 244.92 891.145 243.464V236H892.369V243.464C892.369 244.584 892.673 245.472 893.281 246.128C893.905 246.784 894.777 247.112 895.897 247.112C897.129 247.112 898.137 246.704 898.921 245.888C899.705 245.072 900.097 243.888 900.097 242.336V236ZM910.5 235.736C911.924 235.736 913.052 236.176 913.884 237.056C914.732 237.92 915.156 239.08 915.156 240.536V248H913.932V240.536C913.932 239.416 913.62 238.528 912.996 237.872C912.388 237.216 911.524 236.888 910.404 236.888C909.172 236.888 908.164 237.296 907.38 238.112C906.596 238.928 906.204 240.112 906.204 241.664V248H905.004V236H906.204V238.28C907.068 236.584 908.5 235.736 910.5 235.736ZM929.135 231.2H930.335V248H929.135V245.216C928.639 246.16 927.935 246.904 927.023 247.448C926.127 247.992 925.111 248.264 923.975 248.264C922.247 248.264 920.775 247.664 919.559 246.464C918.359 245.248 917.759 243.76 917.759 242C917.759 240.24 918.359 238.76 919.559 237.56C920.775 236.344 922.247 235.736 923.975 235.736C925.111 235.736 926.127 236.008 927.023 236.552C927.935 237.096 928.639 237.84 929.135 238.784V231.2ZM920.423 245.624C921.415 246.616 922.623 247.112 924.047 247.112C925.471 247.112 926.671 246.616 927.647 245.624C928.639 244.632 929.135 243.424 929.135 242C929.135 240.576 928.639 239.368 927.647 238.376C926.671 237.384 925.471 236.888 924.047 236.888C922.623 236.888 921.415 237.384 920.423 238.376C919.447 239.368 918.959 240.576 918.959 242C918.959 243.424 919.447 244.632 920.423 245.624ZM939.42 235.736C941.18 235.736 942.604 236.36 943.692 237.608C944.796 238.856 945.348 240.336 945.348 242.048C945.348 242.112 945.34 242.208 945.324 242.336C945.324 242.464 945.324 242.56 945.324 242.624H934.452C934.596 243.968 935.132 245.056 936.06 245.888C937.004 246.704 938.164 247.112 939.54 247.112C940.5 247.112 941.34 246.912 942.06 246.512C942.78 246.112 943.324 245.584 943.692 244.928L944.748 245.552C944.252 246.384 943.548 247.048 942.636 247.544C941.724 248.024 940.684 248.264 939.516 248.264C937.676 248.264 936.164 247.68 934.98 246.512C933.796 245.328 933.204 243.824 933.204 242C933.204 240.208 933.78 238.72 934.932 237.536C936.1 236.336 937.596 235.736 939.42 235.736ZM939.42 236.888C938.06 236.888 936.924 237.312 936.012 238.16C935.1 239.008 934.58 240.104 934.452 241.448H944.1C943.972 240.024 943.46 238.912 942.564 238.112C941.684 237.296 940.636 236.888 939.42 236.888ZM949.353 238.352C950.073 236.672 951.409 235.832 953.361 235.832V236.984C952.225 236.984 951.273 237.352 950.505 238.088C949.737 238.808 949.353 239.888 949.353 241.328V248H948.153V236H949.353V238.352ZM956.141 239.144C956.141 239.736 956.389 240.2 956.885 240.536C957.381 240.872 957.989 241.128 958.709 241.304C959.429 241.464 960.141 241.648 960.845 241.856C961.565 242.064 962.173 242.416 962.669 242.912C963.165 243.392 963.413 244.04 963.413 244.856C963.413 245.848 963.013 246.664 962.213 247.304C961.429 247.944 960.397 248.264 959.117 248.264C957.965 248.264 956.989 248.024 956.189 247.544C955.405 247.048 954.861 246.4 954.557 245.6L955.589 245C955.813 245.656 956.229 246.176 956.837 246.56C957.461 246.928 958.221 247.112 959.117 247.112C960.013 247.112 960.749 246.92 961.325 246.536C961.917 246.136 962.213 245.576 962.213 244.856C962.213 244.264 961.965 243.792 961.469 243.44C960.973 243.088 960.365 242.832 959.645 242.672C958.925 242.496 958.205 242.304 957.485 242.096C956.781 241.888 956.181 241.544 955.685 241.064C955.189 240.584 954.941 239.944 954.941 239.144C954.941 238.184 955.317 237.376 956.069 236.72C956.837 236.064 957.821 235.736 959.021 235.736C959.981 235.736 960.813 235.952 961.517 236.384C962.237 236.816 962.765 237.4 963.101 238.136L962.093 238.712C961.853 238.12 961.453 237.672 960.893 237.368C960.333 237.048 959.709 236.888 959.021 236.888C958.205 236.888 957.517 237.096 956.957 237.512C956.413 237.912 956.141 238.456 956.141 239.144Z" fill="black"/>
<path d="M803.224 369.264C801.672 369.264 800.352 368.912 799.264 368.208C798.192 367.488 797.464 366.52 797.08 365.304L798.184 364.656C798.488 365.696 799.064 366.52 799.912 367.128C800.776 367.736 801.88 368.04 803.224 368.04C804.584 368.04 805.624 367.728 806.344 367.104C807.08 366.48 807.448 365.672 807.448 364.68C807.448 363.752 807.096 363.04 806.392 362.544C805.688 362.048 804.592 361.56 803.104 361.08C802.56 360.904 802.16 360.776 801.904 360.696C801.664 360.6 801.312 360.464 800.848 360.288C800.384 360.096 800.04 359.928 799.816 359.784C799.592 359.64 799.32 359.448 799 359.208C798.696 358.968 798.472 358.728 798.328 358.488C798.184 358.232 798.056 357.936 797.944 357.6C797.832 357.248 797.776 356.864 797.776 356.448C797.776 355.088 798.256 354 799.216 353.184C800.192 352.352 801.408 351.936 802.864 351.936C804.176 351.936 805.296 352.264 806.224 352.92C807.152 353.576 807.832 354.424 808.264 355.464L807.184 356.064C806.384 354.128 804.944 353.16 802.864 353.16C801.712 353.16 800.792 353.464 800.104 354.072C799.416 354.68 799.072 355.456 799.072 356.4C799.072 357.312 799.392 357.992 800.032 358.44C800.672 358.888 801.72 359.352 803.176 359.832C804.104 360.136 804.824 360.4 805.336 360.624C805.864 360.832 806.424 361.128 807.016 361.512C807.624 361.88 808.064 362.328 808.336 362.856C808.608 363.368 808.744 363.968 808.744 364.656C808.744 366.048 808.24 367.168 807.232 368.016C806.224 368.848 804.888 369.264 803.224 369.264ZM812.829 359.352C813.549 357.672 814.885 356.832 816.837 356.832V357.984C815.701 357.984 814.749 358.352 813.981 359.088C813.213 359.808 812.829 360.888 812.829 362.328V369H811.629V357H812.829V359.352ZM824.039 369.264C822.231 369.264 820.727 368.664 819.527 367.464C818.327 366.264 817.727 364.776 817.727 363C817.727 361.224 818.327 359.736 819.527 358.536C820.727 357.336 822.231 356.736 824.039 356.736C825.207 356.736 826.263 357.016 827.207 357.576C828.151 358.12 828.839 358.864 829.271 359.808L828.287 360.384C827.935 359.616 827.375 359.008 826.607 358.56C825.855 358.112 824.999 357.888 824.039 357.888C822.599 357.888 821.391 358.384 820.415 359.376C819.439 360.352 818.951 361.56 818.951 363C818.951 364.44 819.439 365.656 820.415 366.648C821.391 367.624 822.599 368.112 824.039 368.112C824.999 368.112 825.855 367.888 826.607 367.44C827.375 366.992 827.959 366.384 828.359 365.616L829.367 366.216C828.887 367.144 828.167 367.888 827.207 368.448C826.263 368.992 825.207 369.264 824.039 369.264ZM837.66 353.088C835.276 352.896 834.084 353.984 834.084 356.352V357H837.66V358.176H834.084V369H832.86V358.176H830.796V357H832.86V356.352C832.86 354.848 833.268 353.712 834.084 352.944C834.916 352.16 836.108 351.824 837.66 351.936V353.088ZM848.16 357H849.36V369H848.16V366.72C847.296 368.416 845.864 369.264 843.864 369.264C842.44 369.264 841.304 368.832 840.456 367.968C839.624 367.088 839.208 365.92 839.208 364.464V357H840.432V364.464C840.432 365.584 840.736 366.472 841.344 367.128C841.968 367.784 842.84 368.112 843.96 368.112C845.192 368.112 846.2 367.704 846.984 366.888C847.768 366.072 848.16 364.888 848.16 363.336V357ZM853.067 369V351.48H854.267V369H853.067ZM873.916 353.4H865.876V360.12H873.628V361.32H865.876V369H864.604V352.2H873.916V353.4ZM882.282 369.264C880.522 369.264 879.026 368.664 877.794 367.464C876.578 366.248 875.97 364.76 875.97 363C875.97 361.24 876.578 359.76 877.794 358.56C879.026 357.344 880.522 356.736 882.282 356.736C884.026 356.736 885.506 357.344 886.722 358.56C887.954 359.76 888.57 361.24 888.57 363C888.57 364.76 887.954 366.248 886.722 367.464C885.506 368.664 884.026 369.264 882.282 369.264ZM878.658 366.624C879.65 367.616 880.858 368.112 882.282 368.112C883.706 368.112 884.906 367.616 885.882 366.624C886.858 365.632 887.346 364.424 887.346 363C887.346 361.576 886.858 360.368 885.882 359.376C884.906 358.384 883.706 357.888 882.282 357.888C880.858 357.888 879.65 358.384 878.658 359.376C877.682 360.368 877.194 361.576 877.194 363C877.194 364.424 877.682 365.632 878.658 366.624ZM900.097 357H901.297V369H900.097V366.72C899.233 368.416 897.801 369.264 895.801 369.264C894.377 369.264 893.241 368.832 892.393 367.968C891.561 367.088 891.145 365.92 891.145 364.464V357H892.369V364.464C892.369 365.584 892.673 366.472 893.281 367.128C893.905 367.784 894.777 368.112 895.897 368.112C897.129 368.112 898.137 367.704 898.921 366.888C899.705 366.072 900.097 364.888 900.097 363.336V357ZM910.5 356.736C911.924 356.736 913.052 357.176 913.884 358.056C914.732 358.92 915.156 360.08 915.156 361.536V369H913.932V361.536C913.932 360.416 913.62 359.528 912.996 358.872C912.388 358.216 911.524 357.888 910.404 357.888C909.172 357.888 908.164 358.296 907.38 359.112C906.596 359.928 906.204 361.112 906.204 362.664V369H905.004V357H906.204V359.28C907.068 357.584 908.5 356.736 910.5 356.736ZM929.135 352.2H930.335V369H929.135V366.216C928.639 367.16 927.935 367.904 927.023 368.448C926.127 368.992 925.111 369.264 923.975 369.264C922.247 369.264 920.775 368.664 919.559 367.464C918.359 366.248 917.759 364.76 917.759 363C917.759 361.24 918.359 359.76 919.559 358.56C920.775 357.344 922.247 356.736 923.975 356.736C925.111 356.736 926.127 357.008 927.023 357.552C927.935 358.096 928.639 358.84 929.135 359.784V352.2ZM920.423 366.624C921.415 367.616 922.623 368.112 924.047 368.112C925.471 368.112 926.671 367.616 927.647 366.624C928.639 365.632 929.135 364.424 929.135 363C929.135 361.576 928.639 360.368 927.647 359.376C926.671 358.384 925.471 357.888 924.047 357.888C922.623 357.888 921.415 358.384 920.423 359.376C919.447 360.368 918.959 361.576 918.959 363C918.959 364.424 919.447 365.632 920.423 366.624ZM944.58 357H945.804V369H944.58V366.288C944.068 367.216 943.364 367.944 942.468 368.472C941.572 369 940.556 369.264 939.42 369.264C937.708 369.264 936.244 368.664 935.028 367.464C933.812 366.248 933.204 364.76 933.204 363C933.204 361.24 933.812 359.76 935.028 358.56C936.244 357.344 937.708 356.736 939.42 356.736C940.556 356.736 941.572 357 942.468 357.528C943.364 358.056 944.068 358.784 944.58 359.712V357ZM935.892 366.624C936.884 367.616 938.092 368.112 939.516 368.112C940.94 368.112 942.14 367.616 943.116 366.624C944.092 365.632 944.58 364.424 944.58 363C944.58 361.576 944.092 360.368 943.116 359.376C942.14 358.384 940.94 357.888 939.516 357.888C938.092 357.888 936.884 358.384 935.892 359.376C934.916 360.368 934.428 361.576 934.428 363C934.428 364.424 934.916 365.632 935.892 366.624ZM955.633 358.176H952.057V365.976C952.057 366.664 952.185 367.16 952.441 367.464C952.697 367.768 953.089 367.944 953.617 367.992C954.145 368.024 954.817 368 955.633 367.92V369C954.017 369.24 952.809 369.128 952.009 368.664C951.225 368.2 950.833 367.304 950.833 365.976V358.176H948.193V357H950.833V354L952.057 353.64V357H955.633V358.176ZM959.784 353.832C959.592 354.008 959.368 354.096 959.112 354.096C958.856 354.096 958.632 354.008 958.44 353.832C958.248 353.64 958.152 353.408 958.152 353.136C958.152 352.88 958.248 352.664 958.44 352.488C958.632 352.296 958.856 352.2 959.112 352.2C959.368 352.2 959.592 352.296 959.784 352.488C959.976 352.664 960.072 352.88 960.072 353.136C960.072 353.408 959.976 353.64 959.784 353.832ZM958.512 369V357H959.712V369H958.512ZM968.907 369.264C967.147 369.264 965.651 368.664 964.419 367.464C963.203 366.248 962.595 364.76 962.595 363C962.595 361.24 963.203 359.76 964.419 358.56C965.651 357.344 967.147 356.736 968.907 356.736C970.651 356.736 972.131 357.344 973.347 358.56C974.579 359.76 975.195 361.24 975.195 363C975.195 364.76 974.579 366.248 973.347 367.464C972.131 368.664 970.651 369.264 968.907 369.264ZM965.283 366.624C966.275 367.616 967.483 368.112 968.907 368.112C970.331 368.112 971.531 367.616 972.507 366.624C973.483 365.632 973.971 364.424 973.971 363C973.971 361.576 973.483 360.368 972.507 359.376C971.531 358.384 970.331 357.888 968.907 357.888C967.483 357.888 966.275 358.384 965.283 359.376C964.307 360.368 963.819 361.576 963.819 363C963.819 364.424 964.307 365.632 965.283 366.624ZM983.578 356.736C985.002 356.736 986.13 357.176 986.962 358.056C987.81 358.92 988.234 360.08 988.234 361.536V369H987.01V361.536C987.01 360.416 986.698 359.528 986.074 358.872C985.466 358.216 984.602 357.888 983.482 357.888C982.25 357.888 981.242 358.296 980.458 359.112C979.674 359.928 979.282 361.112 979.282 362.664V369H978.082V357H979.282V359.28C980.146 357.584 981.578 356.736 983.578 356.736Z" fill="black"/>
<path d="M1192.43 117.2C1194.08 117.2 1195.43 117.72 1196.49 118.76C1197.54 119.784 1198.07 121.112 1198.07 122.744C1198.07 124.36 1197.54 125.688 1196.49 126.728C1195.43 127.752 1194.08 128.264 1192.43 128.264C1190.78 128.264 1189.43 127.752 1188.38 126.728C1187.32 125.688 1186.79 124.36 1186.79 122.744C1186.79 121.48 1187.14 120.36 1187.82 119.384L1193.46 111.2H1194.9L1190.61 117.464C1191.22 117.288 1191.82 117.2 1192.43 117.2ZM1189.26 125.84C1190.06 126.64 1191.12 127.04 1192.43 127.04C1193.74 127.04 1194.8 126.64 1195.6 125.84C1196.4 125.04 1196.8 124.008 1196.8 122.744C1196.8 121.464 1196.4 120.424 1195.6 119.624C1194.8 118.824 1193.74 118.424 1192.43 118.424C1191.12 118.424 1190.06 118.824 1189.26 119.624C1188.48 120.424 1188.09 121.464 1188.09 122.744C1188.09 124.008 1188.48 125.04 1189.26 125.84ZM1211.08 125.912C1209.98 127.48 1208.43 128.264 1206.45 128.264C1204.47 128.264 1202.92 127.48 1201.82 125.912C1200.71 124.344 1200.16 122.24 1200.16 119.6C1200.16 116.96 1200.71 114.856 1201.82 113.288C1202.92 111.72 1204.47 110.936 1206.45 110.936C1208.43 110.936 1209.98 111.72 1211.08 113.288C1212.19 114.856 1212.74 116.96 1212.74 119.6C1212.74 122.24 1212.19 124.344 1211.08 125.912ZM1202.78 125.096C1203.66 126.392 1204.88 127.04 1206.45 127.04C1208.02 127.04 1209.24 126.392 1210.12 125.096C1211 123.784 1211.44 121.952 1211.44 119.6C1211.44 117.248 1211 115.424 1210.12 114.128C1209.24 112.816 1208.02 112.16 1206.45 112.16C1204.88 112.16 1203.66 112.816 1202.78 114.128C1201.9 115.424 1201.46 117.248 1201.46 119.6C1201.46 121.952 1201.9 123.784 1202.78 125.096ZM1218.72 118.088C1217.67 118.088 1216.79 117.744 1216.08 117.056C1215.4 116.368 1215.05 115.52 1215.05 114.512C1215.05 113.504 1215.4 112.656 1216.08 111.968C1216.79 111.28 1217.67 110.936 1218.72 110.936C1219.78 110.936 1220.65 111.28 1221.34 111.968C1222.04 112.656 1222.4 113.504 1222.4 114.512C1222.4 115.52 1222.05 116.368 1221.36 117.056C1220.68 117.744 1219.8 118.088 1218.72 118.088ZM1216.95 116.288C1217.41 116.752 1218 116.984 1218.72 116.984C1219.44 116.984 1220.04 116.752 1220.5 116.288C1220.98 115.808 1221.22 115.216 1221.22 114.512C1221.22 113.808 1220.98 113.224 1220.5 112.76C1220.04 112.28 1219.44 112.04 1218.72 112.04C1218 112.04 1217.41 112.28 1216.95 112.76C1216.48 113.224 1216.25 113.808 1216.25 114.512C1216.25 115.216 1216.48 115.808 1216.95 116.288ZM1215.96 125.84L1227.36 113.024L1228.18 113.48L1216.76 126.296L1215.96 125.84ZM1228.13 127.232C1227.44 127.92 1226.57 128.264 1225.52 128.264C1224.46 128.264 1223.58 127.92 1222.88 127.232C1222.19 126.544 1221.84 125.696 1221.84 124.688C1221.84 123.68 1222.19 122.832 1222.88 122.144C1223.58 121.456 1224.46 121.112 1225.52 121.112C1226.57 121.112 1227.44 121.456 1228.13 122.144C1228.84 122.832 1229.19 123.68 1229.19 124.688C1229.19 125.696 1228.84 126.544 1228.13 127.232ZM1223.74 126.464C1224.2 126.928 1224.8 127.16 1225.52 127.16C1226.24 127.16 1226.83 126.928 1227.29 126.464C1227.77 125.984 1228.01 125.392 1228.01 124.688C1228.01 123.984 1227.77 123.4 1227.29 122.936C1226.83 122.456 1226.24 122.216 1225.52 122.216C1224.8 122.216 1224.2 122.456 1223.74 122.936C1223.28 123.4 1223.04 123.984 1223.04 124.688C1223.04 125.392 1223.28 125.984 1223.74 126.464Z" fill="black"/>
<path d="M1187.03 248V246.848L1193.2 240.512C1195.01 238.64 1195.91 237.056 1195.91 235.76C1195.91 234.64 1195.56 233.76 1194.86 233.12C1194.15 232.48 1193.27 232.16 1192.22 232.16C1190.34 232.16 1189.01 233.008 1188.21 234.704L1187.13 234.056C1187.62 233.048 1188.31 232.28 1189.19 231.752C1190.09 231.208 1191.1 230.936 1192.22 230.936C1193.58 230.936 1194.74 231.368 1195.72 232.232C1196.71 233.096 1197.21 234.272 1197.21 235.76C1197.21 236.72 1196.93 237.656 1196.37 238.568C1195.82 239.464 1195.06 240.416 1194.06 241.424L1188.86 246.776H1197.59V248H1187.03ZM1210.61 245.912C1209.51 247.48 1207.97 248.264 1205.98 248.264C1204 248.264 1202.45 247.48 1201.35 245.912C1200.25 244.344 1199.69 242.24 1199.69 239.6C1199.69 236.96 1200.25 234.856 1201.35 233.288C1202.45 231.72 1204 230.936 1205.98 230.936C1207.97 230.936 1209.51 231.72 1210.61 233.288C1211.72 234.856 1212.27 236.96 1212.27 239.6C1212.27 242.24 1211.72 244.344 1210.61 245.912ZM1202.31 245.096C1203.19 246.392 1204.41 247.04 1205.98 247.04C1207.55 247.04 1208.77 246.392 1209.65 245.096C1210.53 243.784 1210.97 241.952 1210.97 239.6C1210.97 237.248 1210.53 235.424 1209.65 234.128C1208.77 232.816 1207.55 232.16 1205.98 232.16C1204.41 232.16 1203.19 232.816 1202.31 234.128C1201.43 235.424 1200.99 237.248 1200.99 239.6C1200.99 241.952 1201.43 243.784 1202.31 245.096ZM1218.25 238.088C1217.2 238.088 1216.32 237.744 1215.61 237.056C1214.93 236.368 1214.58 235.52 1214.58 234.512C1214.58 233.504 1214.93 232.656 1215.61 231.968C1216.32 231.28 1217.2 230.936 1218.25 230.936C1219.31 230.936 1220.18 231.28 1220.87 231.968C1221.57 232.656 1221.93 233.504 1221.93 234.512C1221.93 235.52 1221.58 236.368 1220.89 237.056C1220.21 237.744 1219.33 238.088 1218.25 238.088ZM1216.48 236.288C1216.94 236.752 1217.53 236.984 1218.25 236.984C1218.97 236.984 1219.57 236.752 1220.03 236.288C1220.51 235.808 1220.75 235.216 1220.75 234.512C1220.75 233.808 1220.51 233.224 1220.03 232.76C1219.57 232.28 1218.97 232.04 1218.25 232.04C1217.53 232.04 1216.94 232.28 1216.48 232.76C1216.01 233.224 1215.78 233.808 1215.78 234.512C1215.78 235.216 1216.01 235.808 1216.48 236.288ZM1215.49 245.84L1226.89 233.024L1227.71 233.48L1216.29 246.296L1215.49 245.84ZM1227.66 247.232C1226.97 247.92 1226.1 248.264 1225.05 248.264C1223.99 248.264 1223.11 247.92 1222.41 247.232C1221.72 246.544 1221.37 245.696 1221.37 244.688C1221.37 243.68 1221.72 242.832 1222.41 242.144C1223.11 241.456 1223.99 241.112 1225.05 241.112C1226.1 241.112 1226.97 241.456 1227.66 242.144C1228.37 242.832 1228.72 243.68 1228.72 244.688C1228.72 245.696 1228.37 246.544 1227.66 247.232ZM1223.27 246.464C1223.73 246.928 1224.33 247.16 1225.05 247.16C1225.77 247.16 1226.36 246.928 1226.82 246.464C1227.3 245.984 1227.54 245.392 1227.54 244.688C1227.54 243.984 1227.3 243.4 1226.82 242.936C1226.36 242.456 1225.77 242.216 1225.05 242.216C1224.33 242.216 1223.73 242.456 1223.27 242.936C1222.81 243.4 1222.57 243.984 1222.57 244.688C1222.57 245.392 1222.81 245.984 1223.27 246.464Z" fill="black"/>
<path d="M1195.17 360.312C1196.1 360.68 1196.82 361.232 1197.35 361.968C1197.9 362.704 1198.17 363.552 1198.17 364.512C1198.17 366 1197.65 367.168 1196.61 368.016C1195.57 368.848 1194.23 369.264 1192.6 369.264C1190.97 369.264 1189.63 368.848 1188.59 368.016C1187.55 367.168 1187.03 366 1187.03 364.512C1187.03 363.552 1187.3 362.704 1187.82 361.968C1188.37 361.232 1189.1 360.68 1190.03 360.312C1189.28 359.944 1188.68 359.432 1188.23 358.776C1187.8 358.104 1187.58 357.336 1187.58 356.472C1187.58 355.048 1188.06 353.936 1189.02 353.136C1190 352.336 1191.19 351.936 1192.6 351.936C1194.01 351.936 1195.19 352.336 1196.15 353.136C1197.13 353.936 1197.62 355.048 1197.62 356.472C1197.62 357.336 1197.39 358.104 1196.94 358.776C1196.51 359.432 1195.92 359.944 1195.17 360.312ZM1188.86 356.472C1188.86 357.48 1189.21 358.28 1189.91 358.872C1190.62 359.464 1191.51 359.76 1192.6 359.76C1193.69 359.76 1194.58 359.464 1195.29 358.872C1195.99 358.28 1196.34 357.48 1196.34 356.472C1196.34 355.432 1195.99 354.624 1195.29 354.048C1194.6 353.456 1193.7 353.16 1192.6 353.16C1191.5 353.16 1190.59 353.456 1189.89 354.048C1189.2 354.624 1188.86 355.432 1188.86 356.472ZM1189.48 367.104C1190.25 367.728 1191.29 368.04 1192.6 368.04C1193.91 368.04 1194.95 367.728 1195.72 367.104C1196.49 366.48 1196.87 365.616 1196.87 364.512C1196.87 363.408 1196.49 362.552 1195.72 361.944C1194.95 361.32 1193.91 361.008 1192.6 361.008C1191.29 361.008 1190.25 361.32 1189.48 361.944C1188.71 362.552 1188.33 363.408 1188.33 364.512C1188.33 365.616 1188.71 366.48 1189.48 367.104ZM1203.91 359.088C1202.85 359.088 1201.97 358.744 1201.27 358.056C1200.58 357.368 1200.24 356.52 1200.24 355.512C1200.24 354.504 1200.58 353.656 1201.27 352.968C1201.97 352.28 1202.85 351.936 1203.91 351.936C1204.97 351.936 1205.84 352.28 1206.53 352.968C1207.23 353.656 1207.58 354.504 1207.58 355.512C1207.58 356.52 1207.24 357.368 1206.55 358.056C1205.86 358.744 1204.98 359.088 1203.91 359.088ZM1202.13 357.288C1202.6 357.752 1203.19 357.984 1203.91 357.984C1204.63 357.984 1205.22 357.752 1205.69 357.288C1206.17 356.808 1206.41 356.216 1206.41 355.512C1206.41 354.808 1206.17 354.224 1205.69 353.76C1205.22 353.28 1204.63 353.04 1203.91 353.04C1203.19 353.04 1202.6 353.28 1202.13 353.76C1201.67 354.224 1201.44 354.808 1201.44 355.512C1201.44 356.216 1201.67 356.808 1202.13 357.288ZM1201.15 366.84L1212.55 354.024L1213.37 354.48L1201.94 367.296L1201.15 366.84ZM1213.32 368.232C1212.63 368.92 1211.76 369.264 1210.7 369.264C1209.65 369.264 1208.77 368.92 1208.06 368.232C1207.37 367.544 1207.03 366.696 1207.03 365.688C1207.03 364.68 1207.37 363.832 1208.06 363.144C1208.77 362.456 1209.65 362.112 1210.7 362.112C1211.76 362.112 1212.63 362.456 1213.32 363.144C1214.02 363.832 1214.37 364.68 1214.37 365.688C1214.37 366.696 1214.02 367.544 1213.32 368.232ZM1208.93 367.464C1209.39 367.928 1209.98 368.16 1210.7 368.16C1211.42 368.16 1212.01 367.928 1212.48 367.464C1212.96 366.984 1213.2 366.392 1213.2 365.688C1213.2 364.984 1212.96 364.4 1212.48 363.936C1212.01 363.456 1211.42 363.216 1210.7 363.216C1209.98 363.216 1209.39 363.456 1208.93 363.936C1208.46 364.4 1208.23 364.984 1208.23 365.688C1208.23 366.392 1208.46 366.984 1208.93 367.464Z" fill="black"/>
<rect x="730" y="460" width="50" height="40" fill="#AD9024"/>
<path d="M798.088 471.2H799.36V488H798.088V471.2ZM808.782 475.736C810.206 475.736 811.334 476.176 812.166 477.056C813.014 477.92 813.438 479.08 813.438 480.536V488H812.214V480.536C812.214 479.416 811.902 478.528 811.278 477.872C810.67 477.216 809.806 476.888 808.686 476.888C807.454 476.888 806.446 477.296 805.662 478.112C804.878 478.928 804.486 480.112 804.486 481.664V488H803.286V476H804.486V478.28C805.35 476.584 806.782 475.736 808.782 475.736ZM825.523 476H826.795L821.731 488H820.267L815.179 476H816.475L820.987 486.752L825.523 476ZM833.904 475.736C835.664 475.736 837.088 476.36 838.176 477.608C839.28 478.856 839.832 480.336 839.832 482.048C839.832 482.112 839.824 482.208 839.808 482.336C839.808 482.464 839.808 482.56 839.808 482.624H828.936C829.08 483.968 829.616 485.056 830.544 485.888C831.488 486.704 832.648 487.112 834.024 487.112C834.984 487.112 835.824 486.912 836.544 486.512C837.264 486.112 837.808 485.584 838.176 484.928L839.232 485.552C838.736 486.384 838.032 487.048 837.12 487.544C836.208 488.024 835.168 488.264 834 488.264C832.16 488.264 830.648 487.68 829.464 486.512C828.28 485.328 827.688 483.824 827.688 482C827.688 480.208 828.264 478.72 829.416 477.536C830.584 476.336 832.08 475.736 833.904 475.736ZM833.904 476.888C832.544 476.888 831.408 477.312 830.496 478.16C829.584 479.008 829.064 480.104 828.936 481.448H838.584C838.456 480.024 837.944 478.912 837.048 478.112C836.168 477.296 835.12 476.888 833.904 476.888ZM842.984 479.144C842.984 479.736 843.232 480.2 843.728 480.536C844.224 480.872 844.832 481.128 845.552 481.304C846.272 481.464 846.984 481.648 847.688 481.856C848.408 482.064 849.016 482.416 849.512 482.912C850.008 483.392 850.256 484.04 850.256 484.856C850.256 485.848 849.856 486.664 849.056 487.304C848.272 487.944 847.24 488.264 845.96 488.264C844.808 488.264 843.832 488.024 843.032 487.544C842.248 487.048 841.704 486.4 841.4 485.6L842.432 485C842.656 485.656 843.072 486.176 843.68 486.56C844.304 486.928 845.064 487.112 845.96 487.112C846.856 487.112 847.592 486.92 848.168 486.536C848.76 486.136 849.056 485.576 849.056 484.856C849.056 484.264 848.808 483.792 848.312 483.44C847.816 483.088 847.208 482.832 846.488 482.672C845.768 482.496 845.048 482.304 844.328 482.096C843.624 481.888 843.024 481.544 842.528 481.064C842.032 480.584 841.784 479.944 841.784 479.144C841.784 478.184 842.16 477.376 842.912 476.72C843.68 476.064 844.664 475.736 845.864 475.736C846.824 475.736 847.656 475.952 848.36 476.384C849.08 476.816 849.608 477.4 849.944 478.136L848.936 478.712C848.696 478.12 848.296 477.672 847.736 477.368C847.176 477.048 846.552 476.888 845.864 476.888C845.048 476.888 844.36 477.096 843.8 477.512C843.256 477.912 842.984 478.456 842.984 479.144ZM858.836 477.176H855.26V484.976C855.26 485.664 855.388 486.16 855.644 486.464C855.9 486.768 856.292 486.944 856.82 486.992C857.348 487.024 858.02 487 858.836 486.92V488C857.22 488.24 856.012 488.128 855.212 487.664C854.428 487.2 854.036 486.304 854.036 484.976V477.176H851.396V476H854.036V473L855.26 472.64V476H858.836V477.176ZM866.485 488.264C864.725 488.264 863.229 487.664 861.997 486.464C860.781 485.248 860.173 483.76 860.173 482C860.173 480.24 860.781 478.76 861.997 477.56C863.229 476.344 864.725 475.736 866.485 475.736C868.229 475.736 869.709 476.344 870.925 477.56C872.157 478.76 872.773 480.24 872.773 482C872.773 483.76 872.157 485.248 870.925 486.464C869.709 487.664 868.229 488.264 866.485 488.264ZM862.861 485.624C863.853 486.616 865.061 487.112 866.485 487.112C867.909 487.112 869.109 486.616 870.085 485.624C871.061 484.632 871.549 483.424 871.549 482C871.549 480.576 871.061 479.368 870.085 478.376C869.109 477.384 867.909 476.888 866.485 476.888C865.061 476.888 863.853 477.384 862.861 478.376C861.885 479.368 861.397 480.576 861.397 482C861.397 483.424 861.885 484.632 862.861 485.624ZM876.861 478.352C877.581 476.672 878.917 475.832 880.868 475.832V476.984C879.733 476.984 878.781 477.352 878.013 478.088C877.245 478.808 876.861 479.888 876.861 481.328V488H875.661V476H876.861V478.352ZM883.648 479.144C883.648 479.736 883.896 480.2 884.392 480.536C884.888 480.872 885.496 481.128 886.216 481.304C886.936 481.464 887.648 481.648 888.352 481.856C889.072 482.064 889.68 482.416 890.176 482.912C890.672 483.392 890.92 484.04 890.92 484.856C890.92 485.848 890.52 486.664 889.72 487.304C888.936 487.944 887.904 488.264 886.624 488.264C885.472 488.264 884.496 488.024 883.696 487.544C882.912 487.048 882.368 486.4 882.064 485.6L883.096 485C883.32 485.656 883.736 486.176 884.344 486.56C884.968 486.928 885.728 487.112 886.624 487.112C887.52 487.112 888.256 486.92 888.832 486.536C889.424 486.136 889.72 485.576 889.72 484.856C889.72 484.264 889.472 483.792 888.976 483.44C888.48 483.088 887.872 482.832 887.152 482.672C886.432 482.496 885.712 482.304 884.992 482.096C884.288 481.888 883.688 481.544 883.192 481.064C882.696 480.584 882.448 479.944 882.448 479.144C882.448 478.184 882.824 477.376 883.576 476.72C884.344 476.064 885.328 475.736 886.528 475.736C887.488 475.736 888.32 475.952 889.024 476.384C889.744 476.816 890.272 477.4 890.608 478.136L889.6 478.712C889.36 478.12 888.96 477.672 888.4 477.368C887.84 477.048 887.216 476.888 886.528 476.888C885.712 476.888 885.024 477.096 884.464 477.512C883.92 477.912 883.648 478.456 883.648 479.144ZM910.783 476H912.007V488H910.783V485.288C910.271 486.216 909.567 486.944 908.671 487.472C907.775 488 906.759 488.264 905.623 488.264C903.911 488.264 902.447 487.664 901.231 486.464C900.015 485.248 899.407 483.76 899.407 482C899.407 480.24 900.015 478.76 901.231 477.56C902.447 476.344 903.911 475.736 905.623 475.736C906.759 475.736 907.775 476 908.671 476.528C909.567 477.056 910.271 477.784 910.783 478.712V476ZM902.095 485.624C903.087 486.616 904.295 487.112 905.719 487.112C907.143 487.112 908.343 486.616 909.319 485.624C910.295 484.632 910.783 483.424 910.783 482C910.783 480.576 910.295 479.368 909.319 478.376C908.343 477.384 907.143 476.888 905.719 476.888C904.295 476.888 903.087 477.384 902.095 478.376C901.119 479.368 900.631 480.576 900.631 482C900.631 483.424 901.119 484.632 902.095 485.624ZM921.188 475.736C922.612 475.736 923.74 476.176 924.572 477.056C925.42 477.92 925.844 479.08 925.844 480.536V488H924.62V480.536C924.62 479.416 924.308 478.528 923.684 477.872C923.076 477.216 922.212 476.888 921.092 476.888C919.86 476.888 918.852 477.296 918.068 478.112C917.284 478.928 916.892 480.112 916.892 481.664V488H915.692V476H916.892V478.28C917.756 476.584 919.188 475.736 921.188 475.736ZM939.823 471.2H941.023V488H939.823V485.216C939.327 486.16 938.623 486.904 937.711 487.448C936.815 487.992 935.799 488.264 934.663 488.264C932.935 488.264 931.463 487.664 930.247 486.464C929.047 485.248 928.447 483.76 928.447 482C928.447 480.24 929.047 478.76 930.247 477.56C931.463 476.344 932.935 475.736 934.663 475.736C935.799 475.736 936.815 476.008 937.711 476.552C938.623 477.096 939.327 477.84 939.823 478.784V471.2ZM931.111 485.624C932.103 486.616 933.311 487.112 934.735 487.112C936.159 487.112 937.359 486.616 938.335 485.624C939.327 484.632 939.823 483.424 939.823 482C939.823 480.576 939.327 479.368 938.335 478.376C937.359 477.384 936.159 476.888 934.735 476.888C933.311 476.888 932.103 477.384 931.111 478.376C930.135 479.368 929.647 480.576 929.647 482C929.647 483.424 930.135 484.632 931.111 485.624ZM952.618 486.8H960.538V488H951.346V471.2H952.618V486.8ZM964.214 472.832C964.022 473.008 963.798 473.096 963.542 473.096C963.286 473.096 963.062 473.008 962.87 472.832C962.678 472.64 962.582 472.408 962.582 472.136C962.582 471.88 962.678 471.664 962.87 471.488C963.062 471.296 963.286 471.2 963.542 471.2C963.798 471.2 964.022 471.296 964.214 471.488C964.406 471.664 964.502 471.88 964.502 472.136C964.502 472.408 964.406 472.64 964.214 472.832ZM962.942 488V476H964.142V488H962.942ZM978.424 476H979.624V492.8H978.424V485.216C977.928 486.16 977.224 486.904 976.312 487.448C975.416 487.992 974.4 488.264 973.264 488.264C971.536 488.264 970.064 487.664 968.848 486.464C967.648 485.248 967.048 483.76 967.048 482C967.048 480.24 967.648 478.76 968.848 477.56C970.064 476.344 971.536 475.736 973.264 475.736C974.4 475.736 975.416 476.008 976.312 476.552C977.224 477.096 977.928 477.84 978.424 478.784V476ZM969.712 485.624C970.704 486.616 971.912 487.112 973.336 487.112C974.76 487.112 975.96 486.616 976.936 485.624C977.928 484.632 978.424 483.424 978.424 482C978.424 480.576 977.928 479.368 976.936 478.376C975.96 477.384 974.76 476.888 973.336 476.888C971.912 476.888 970.704 477.384 969.712 478.376C968.736 479.368 968.248 480.576 968.248 482C968.248 483.424 968.736 484.632 969.712 485.624ZM991.949 476H993.149V488H991.949V485.72C991.085 487.416 989.653 488.264 987.653 488.264C986.229 488.264 985.093 487.832 984.245 486.968C983.413 486.088 982.997 484.92 982.997 483.464V476H984.221V483.464C984.221 484.584 984.525 485.472 985.133 486.128C985.757 486.784 986.629 487.112 987.749 487.112C988.981 487.112 989.989 486.704 990.773 485.888C991.557 485.072 991.949 483.888 991.949 482.336V476ZM998.128 472.832C997.936 473.008 997.712 473.096 997.456 473.096C997.2 473.096 996.976 473.008 996.784 472.832C996.592 472.64 996.496 472.408 996.496 472.136C996.496 471.88 996.592 471.664 996.784 471.488C996.976 471.296 997.2 471.2 997.456 471.2C997.712 471.2 997.936 471.296 998.128 471.488C998.32 471.664 998.416 471.88 998.416 472.136C998.416 472.408 998.32 472.64 998.128 472.832ZM996.856 488V476H998.056V488H996.856ZM1012.34 471.2H1013.54V488H1012.34V485.216C1011.84 486.16 1011.14 486.904 1010.23 487.448C1009.33 487.992 1008.31 488.264 1007.18 488.264C1005.45 488.264 1003.98 487.664 1002.76 486.464C1001.56 485.248 1000.96 483.76 1000.96 482C1000.96 480.24 1001.56 478.76 1002.76 477.56C1003.98 476.344 1005.45 475.736 1007.18 475.736C1008.31 475.736 1009.33 476.008 1010.23 476.552C1011.14 477.096 1011.84 477.84 1012.34 478.784V471.2ZM1003.63 485.624C1004.62 486.616 1005.83 487.112 1007.25 487.112C1008.67 487.112 1009.87 486.616 1010.85 485.624C1011.84 484.632 1012.34 483.424 1012.34 482C1012.34 480.576 1011.84 479.368 1010.85 478.376C1009.87 477.384 1008.67 476.888 1007.25 476.888C1005.83 476.888 1004.62 477.384 1003.63 478.376C1002.65 479.368 1002.16 480.576 1002.16 482C1002.16 483.424 1002.65 484.632 1003.63 485.624ZM1018.5 472.832C1018.3 473.008 1018.08 473.096 1017.82 473.096C1017.57 473.096 1017.34 473.008 1017.15 472.832C1016.96 472.64 1016.86 472.408 1016.86 472.136C1016.86 471.88 1016.96 471.664 1017.15 471.488C1017.34 471.296 1017.57 471.2 1017.82 471.2C1018.08 471.2 1018.3 471.296 1018.5 471.488C1018.69 471.664 1018.78 471.88 1018.78 472.136C1018.78 472.408 1018.69 472.64 1018.5 472.832ZM1017.22 488V476H1018.42V488H1017.22ZM1028.27 477.176H1024.69V484.976C1024.69 485.664 1024.82 486.16 1025.07 486.464C1025.33 486.768 1025.72 486.944 1026.25 486.992C1026.78 487.024 1027.45 487 1028.27 486.92V488C1026.65 488.24 1025.44 488.128 1024.64 487.664C1023.86 487.2 1023.47 486.304 1023.47 484.976V477.176H1020.83V476H1023.47V473L1024.69 472.64V476H1028.27V477.176ZM1040.16 476H1041.46L1036.28 489.104C1035.81 490.288 1035.16 491.216 1034.31 491.888C1033.46 492.576 1032.53 492.88 1031.52 492.8V491.672C1032.29 491.736 1032.98 491.512 1033.59 491C1034.21 490.504 1034.72 489.792 1035.1 488.864L1035.36 488.216L1029.84 476H1031.14L1035.99 486.68L1040.16 476Z" fill="black"/>
<path d="M1190.8 471.2H1191.88V488H1190.61V472.592L1186.72 473.816L1186.41 472.712L1190.8 471.2ZM1195 488V486.848L1201.17 480.512C1202.98 478.64 1203.88 477.056 1203.88 475.76C1203.88 474.64 1203.53 473.76 1202.82 473.12C1202.12 472.48 1201.24 472.16 1200.18 472.16C1198.31 472.16 1196.98 473.008 1196.18 474.704L1195.1 474.056C1195.59 473.048 1196.28 472.28 1197.16 471.752C1198.06 471.208 1199.06 470.936 1200.18 470.936C1201.54 470.936 1202.71 471.368 1203.69 472.232C1204.68 473.096 1205.18 474.272 1205.18 475.76C1205.18 476.72 1204.9 477.656 1204.34 478.568C1203.79 479.464 1203.02 480.416 1202.03 481.424L1196.82 486.776H1205.56V488H1195ZM1211.57 478.088C1210.52 478.088 1209.64 477.744 1208.93 477.056C1208.25 476.368 1207.9 475.52 1207.9 474.512C1207.9 473.504 1208.25 472.656 1208.93 471.968C1209.64 471.28 1210.52 470.936 1211.57 470.936C1212.63 470.936 1213.5 471.28 1214.19 471.968C1214.89 472.656 1215.25 473.504 1215.25 474.512C1215.25 475.52 1214.9 476.368 1214.21 477.056C1213.53 477.744 1212.65 478.088 1211.57 478.088ZM1209.8 476.288C1210.26 476.752 1210.85 476.984 1211.57 476.984C1212.29 476.984 1212.89 476.752 1213.35 476.288C1213.83 475.808 1214.07 475.216 1214.07 474.512C1214.07 473.808 1213.83 473.224 1213.35 472.76C1212.89 472.28 1212.29 472.04 1211.57 472.04C1210.85 472.04 1210.26 472.28 1209.8 472.76C1209.33 473.224 1209.1 473.808 1209.1 474.512C1209.1 475.216 1209.33 475.808 1209.8 476.288ZM1208.81 485.84L1220.21 473.024L1221.03 473.48L1209.61 486.296L1208.81 485.84ZM1220.98 487.232C1220.29 487.92 1219.42 488.264 1218.37 488.264C1217.31 488.264 1216.43 487.92 1215.73 487.232C1215.04 486.544 1214.69 485.696 1214.69 484.688C1214.69 483.68 1215.04 482.832 1215.73 482.144C1216.43 481.456 1217.31 481.112 1218.37 481.112C1219.42 481.112 1220.29 481.456 1220.98 482.144C1221.69 482.832 1222.04 483.68 1222.04 484.688C1222.04 485.696 1221.69 486.544 1220.98 487.232ZM1216.59 486.464C1217.05 486.928 1217.65 487.16 1218.37 487.16C1219.09 487.16 1219.68 486.928 1220.14 486.464C1220.62 485.984 1220.86 485.392 1220.86 484.688C1220.86 483.984 1220.62 483.4 1220.14 482.936C1219.68 482.456 1219.09 482.216 1218.37 482.216C1217.65 482.216 1217.05 482.456 1216.59 482.936C1216.13 483.4 1215.89 483.984 1215.89 484.688C1215.89 485.392 1216.13 485.984 1216.59 486.464Z" fill="black"/>
</svg>
