<svg width="74" height="74" viewBox="0 0 74 74" fill="none" xmlns="http://www.w3.org/2000/svg">
<path fill-rule="evenodd" clip-rule="evenodd" d="M37 74C57.4345 74 74 57.4345 74 37C74 16.5655 57.4345 0 37 0C16.5655 0 0 16.5655 0 37C0 57.4345 16.5655 74 37 74ZM39.3649 15.125L22.0929 36.0889C20.9965 37.4197 22.1544 39.3949 23.8512 39.0883L31.879 37.6375C33.2396 37.3916 34.3799 38.6696 33.9811 39.9935L28.8768 56.9374C28.3058 58.8328 30.7072 60.1813 32.0284 58.7073L51.4167 37.076C52.5287 35.8354 51.5644 33.872 49.9029 33.9936L41.1669 34.6328C39.9348 34.723 38.9616 33.6041 39.2217 32.3964L42.6039 16.6921C43.0125 14.7952 40.5988 13.6274 39.3649 15.125Z" fill="black"/>
</svg>
